<?xml version="1.0" standalone="no"?>
<!DOCTYPE svg PUBLIC "-//W3C//DTD SVG 20010904//EN"
 "http://www.w3.org/TR/2001/REC-SVG-20010904/DTD/svg10.dtd">
<svg version="1.0" xmlns="http://www.w3.org/2000/svg"
 width="270.000000pt" height="270.000000pt" viewBox="0 0 270.000000 270.000000"
 preserveAspectRatio="xMidYMid meet">
<metadata>
Created by potrace 1.11, written by Peter Selinger 2001-2013
</metadata>
<g transform="translate(0.000000,270.000000) scale(0.100000,-0.100000)"
fill="#000000" stroke="none">
<path d="M1263 2649 c-395 -28 -740 -223 -976 -551 -151 -212 -232 -462 -236
-733 -4 -258 58 -485 190 -702 181 -295 500 -526 819 -592 30 -6 66 -14 80
-17 14 -4 95 -8 180 -10 123 -3 177 1 261 16 353 65 655 265 858 568 93 139
177 357 197 512 3 25 7 56 10 70 5 30 6 247 0 275 -2 11 -7 43 -11 70 -3 28
-15 82 -26 122 -119 451 -463 801 -910 928 -93 26 -142 34 -254 43 -49 4 -131
4 -182 1z"/>
</g>
</svg>
