<?xml version="1.0" encoding="UTF-8"?>
<svg width="238px" height="239px" viewBox="0 0 238 239" version="1.1" xmlns="http://www.w3.org/2000/svg" xmlns:xlink="http://www.w3.org/1999/xlink">
    <!-- Generator: Sketch 51.3 (57544) - http://www.bohemiancoding.com/sketch -->
    <title>Group 457</title>
    <desc>Created with Sketch.</desc>
    <defs>
        <polygon id="path-1" points="0.8346 0.653666667 2.616 0.653666667 2.616 2.63366667 0.8346 2.63366667"></polygon>
        <polygon id="path-3" points="0 0.19385 1.78305 0.19385 1.78305 1.97585 0 1.97585"></polygon>
        <polygon id="path-5" points="0 0.28275 1.78305 0.28275 1.78305 2.06475 0 2.06475"></polygon>
        <polygon id="path-7" points="0.1461 0.258 1.9296 0.258 1.9296 2.03985 0.1461 2.03985"></polygon>
    </defs>
    <g id="Page-1" stroke="none" stroke-width="1" fill="none" fill-rule="evenodd">
        <g id="Group-457">
            <path d="M118.999159,121 C119.550883,121 120,120.550505 120,119.998316 C120,119.446128 119.550883,119 118.999159,119 C118.447435,119 118,119.446128 118,119.998316 C118,120.550505 118.447435,121 118.999159,121" id="Fill-1" fill="#262626"></path>
            <path d="M131.999159,121 C132.550883,121 133,120.550505 133,119.998316 C133,119.446128 132.550883,119 131.999159,119 C131.447435,119 131,119.446128 131,119.998316 C131,120.550505 131.447435,121 131.999159,121" id="Fill-3" fill="#262626"></path>
            <path d="M121.999159,133 C122.550883,133 123,132.551811 123,131.999158 C123,131.446504 122.550883,131 121.999159,131 C121.447435,131 121,131.446504 121,131.999158 C121,132.551811 121.447435,133 121.999159,133" id="Fill-5" fill="#262626"></path>
            <path d="M108.000841,129 C108.552565,129 109,128.552189 109,128 C109,127.447811 108.552565,127 108.000841,127 C107.449117,127 107,127.447811 107,128 C107,128.552189 107.449117,129 108.000841,129" id="Fill-7" fill="#262626"></path>
            <path d="M108.000841,113 C108.552565,113 109,112.551811 109,111.999158 C109,111.446504 108.552565,111 108.000841,111 C107.449117,111 107,111.446504 107,111.999158 C107,112.551811 107.449117,113 108.000841,113" id="Fill-9" fill="#262626"></path>
            <path d="M121.999159,108 C122.550883,108 123,107.551811 123,106.999158 C123,106.446504 122.550883,106 121.999159,106 C121.447435,106 121,106.446504 121,106.999158 C121,107.551811 121.447435,108 121.999159,108" id="Fill-11" fill="#262626"></path>
            <path d="M143.999159,121 C144.550883,121 145,120.550505 145,119.998316 C145,119.446128 144.550883,119 143.999159,119 C143.447435,119 143,119.446128 143,119.998316 C143,120.550505 143.447435,121 143.999159,121" id="Fill-13" fill="#262626"></path>
            <path d="M140.000841,137 C140.552565,137 141,136.551811 141,135.999158 C141,135.446504 140.552565,135 140.000841,135 C139.449117,135 139,135.446504 139,135.999158 C139,136.551811 139.449117,137 140.000841,137" id="Fill-15" fill="#262626"></path>
            <path d="M127.000841,145 C127.552565,145 128,144.550505 128,143.998316 C128,143.446128 127.552565,143 127.000841,143 C126.449117,143 126,143.446128 126,143.998316 C126,144.550505 126.449117,145 127.000841,145" id="Fill-17" fill="#262626"></path>
            <path d="M110,145 C110.552189,145 111,144.550505 111,143.998316 C111,143.446128 110.552189,143 110,143 C109.447811,143 109,143.446128 109,143.998316 C109,144.550505 109.447811,145 110,145" id="Fill-19" fill="#262626"></path>
            <path d="M98,137 C98.5521886,137 99,136.551811 99,135.999158 C99,135.446504 98.5521886,135 98,135 C97.4478114,135 97,135.446504 97,135.999158 C97,136.551811 97.4478114,137 98,137" id="Fill-21" fill="#262626"></path>
            <path d="M91.999159,121 C92.5508831,121 93,120.550505 93,119.998316 C93,119.446128 92.5508831,119 91.999159,119 C91.4474348,119 91,119.446128 91,119.998316 C91,120.550505 91.4474348,121 91.999159,121" id="Fill-23" fill="#262626"></path>
            <path d="M98,105 C98.5521886,105 99,104.552189 99,104 C99,103.447811 98.5521886,103 98,103 C97.4478114,103 97,103.447811 97,104 C97,104.552189 97.4478114,105 98,105" id="Fill-25" fill="#262626"></path>
            <path d="M110,95 C110.552189,95 111,94.5505051 111,93.9983165 C111,93.4461279 110.552189,93 110,93 C109.447811,93 109,93.4461279 109,93.9983165 C109,94.5505051 109.447811,95 110,95" id="Fill-27" fill="#262626"></path>
            <path d="M127.000841,95 C127.552565,95 128,94.5505051 128,93.9983165 C128,93.4461279 127.552565,93 127.000841,93 C126.449117,93 126,93.4461279 126,93.9983165 C126,94.5505051 126.449117,95 127.000841,95" id="Fill-29" fill="#262626"></path>
            <path d="M140.000841,105 C140.552565,105 141,104.552189 141,104 C141,103.447811 140.552565,103 140.000841,103 C139.449117,103 139,103.447811 139,104 C139,104.552189 139.449117,105 140.000841,105" id="Fill-31" fill="#262626"></path>
            <path d="M157.999159,121 C158.550883,121 159,120.550505 159,119.998316 C159,119.446128 158.550883,119 157.999159,119 C157.447435,119 157,119.446128 157,119.998316 C157,120.550505 157.447435,121 157.999159,121" id="Fill-33" fill="#262626"></path>
            <path d="M154,137 C154.552189,137 155,136.552189 155,136 C155,135.447811 154.552189,135 154,135 C153.447811,135 153,135.447811 153,136 C153,136.552189 153.447811,137 154,137" id="Fill-35" fill="#262626"></path>
            <path d="M144,150 C144.552189,150 145,149.551811 145,148.999158 C145,148.446504 144.552189,148 144,148 C143.447811,148 143,148.446504 143,148.999158 C143,149.551811 143.447811,150 144,150" id="Fill-37" fill="#262626"></path>
            <path d="M131.000841,158 C131.552565,158 132,157.551811 132,156.999158 C132,156.446504 131.552565,156 131.000841,156 C130.449117,156 130,156.446504 130,156.999158 C130,157.551811 130.449117,158 131.000841,158" id="Fill-39" fill="#262626"></path>
            <path d="M113.999159,160 C114.550883,160 115,159.550505 115,159 C115,158.447811 114.550883,158 113.999159,158 C113.447435,158 113,158.447811 113,159 C113,159.550505 113.447435,160 113.999159,160" id="Fill-41" fill="#262626"></path>
            <path d="M99,154 C99.5521886,154 100,153.551811 100,152.999158 C100,152.446504 99.5521886,152 99,152 C98.4478114,152 98,152.446504 98,152.999158 C98,153.551811 98.4478114,154 99,154" id="Fill-43" fill="#262626"></path>
            <path d="M86.999159,144 C87.5508831,144 88,143.551811 88,142.999158 C88,142.446504 87.5508831,142 86.999159,142 C86.4474348,142 86,142.446504 86,142.999158 C86,143.551811 86.4474348,144 86.999159,144" id="Fill-45" fill="#262626"></path>
            <path d="M80,129 C80.5521886,129 81,128.550505 81,127.998316 C81,127.446128 80.5521886,127 80,127 C79.4478114,127 79,127.446128 79,127.998316 C79,128.550505 79.4478114,129 80,129" id="Fill-47" fill="#262626"></path>
            <path d="M80,112 C80.5521886,112 81,111.550505 81,110.998316 C81,110.446128 80.5521886,110 80,110 C79.4478114,110 79,110.446128 79,110.998316 C79,111.550505 79.4478114,112 80,112" id="Fill-49" fill="#262626"></path>
            <path d="M86.999159,98 C87.5508831,98 88,97.5505051 88,97 C88,96.4478114 87.5508831,96 86.999159,96 C86.4474348,96 86,96.4478114 86,97 C86,97.5505051 86.4474348,98 86.999159,98" id="Fill-51" fill="#262626"></path>
            <path d="M99,86 C99.5521886,86 100,85.5505051 100,84.9983165 C100,84.4461279 99.5521886,84 99,84 C98.4478114,84 98,84.4461279 98,84.9983165 C98,85.5505051 98.4478114,86 99,86" id="Fill-53" fill="#262626"></path>
            <path d="M113.999159,82 C114.550883,82 115,81.5505051 115,80.9983165 C115,80.4461279 114.550883,80 113.999159,80 C113.447435,80 113,80.4461279 113,80.9983165 C113,81.5505051 113.447435,82 113.999159,82" id="Fill-55" fill="#262626"></path>
            <path d="M131.000841,83 C131.552565,83 132,82.5518113 132,81.9991575 C132,81.4465038 131.552565,81 131.000841,81 C130.449117,81 130,81.4465038 130,81.9991575 C130,82.5518113 130.449117,83 131.000841,83" id="Fill-57" fill="#262626"></path>
            <path d="M144,91 C144.552189,91 145,90.5521886 145,90 C145,89.4478114 144.552189,89 144,89 C143.447811,89 143,89.4478114 143,90 C143,90.5521886 143.447811,91 144,91" id="Fill-59" fill="#262626"></path>
            <path d="M154,104 C154.552189,104 155,103.551811 155,102.999158 C155,102.446504 154.552189,102 154,102 C153.447811,102 153,102.446504 153,102.999158 C153,103.551811 153.447811,104 154,104" id="Fill-61" fill="#262626"></path>
            <path d="M170.999159,121 C171.550883,121 172,120.550505 172,119.998316 C172,119.446128 171.550883,119 170.999159,119 C170.447435,119 170,119.446128 170,119.998316 C170,120.550505 170.447435,121 170.999159,121" id="Fill-63" fill="#262626"></path>
            <path d="M168.999159,137 C169.550883,137 170,136.551811 170,135.999158 C170,135.446504 169.550883,135 168.999159,135 C168.447435,135 168,135.446504 168,135.999158 C168,136.551811 168.447435,137 168.999159,137" id="Fill-65" fill="#262626"></path>
            <path d="M161,151 C161.552189,151 162,150.550505 162,149.998316 C162,149.447811 161.552189,149 161,149 C160.447811,149 160,149.447811 160,149.998316 C160,150.550505 160.447811,151 161,151" id="Fill-67" fill="#262626"></path>
            <path d="M148.999159,163 C149.550883,163 150,162.551811 150,161.999158 C150,161.446504 149.550883,161 148.999159,161 C148.447435,161 148,161.446504 148,161.999158 C148,162.551811 148.447435,163 148.999159,163" id="Fill-69" fill="#262626"></path>
            <path d="M134,171 C134.552189,171 135,170.550505 135,169.998316 C135,169.446128 134.552189,169 134,169 C133.447811,169 133,169.446128 133,169.998316 C133,170.550505 133.447811,171 134,171" id="Fill-71" fill="#262626"></path>
            <path d="M118.999159,173 C119.550883,173 120,172.550505 120,171.998316 C120,171.446128 119.550883,171 118.999159,171 C118.447435,171 118,171.446128 118,171.998316 C118,172.550505 118.447435,173 118.999159,173" id="Fill-73" fill="#262626"></path>
            <path d="M102.000841,171 C102.552565,171 103,170.550505 103,169.998316 C103,169.446128 102.552565,169 102.000841,169 C101.449117,169 101,169.446128 101,169.998316 C101,170.550505 101.449117,171 102.000841,171" id="Fill-75" fill="#262626"></path>
            <path d="M87.999159,163 C88.5508831,163 89,162.551811 89,161.999158 C89,161.446504 88.5508831,161 87.999159,161 C87.4474348,161 87,161.446504 87,161.999158 C87,162.551811 87.4474348,163 87.999159,163" id="Fill-77" fill="#262626"></path>
            <path d="M77,151 C77.5521886,151 78,150.550505 78,149.998316 C78,149.447811 77.5521886,149 77,149 C76.4478114,149 76,149.447811 76,149.998316 C76,150.550505 76.4478114,151 77,151" id="Fill-79" fill="#262626"></path>
            <path d="M68.999159,137 C69.5508831,137 70,136.551811 70,135.999158 C70,135.446504 69.5508831,135 68.999159,135 C68.4474348,135 68,135.446504 68,135.999158 C68,136.551811 68.4474348,137 68.999159,137" id="Fill-81" fill="#262626"></path>
            <path d="M66.999159,121 C67.5508831,121 68,120.550505 68,119.998316 C68,119.446128 67.5508831,119 66.999159,119 C66.4474348,119 66,119.446128 66,119.998316 C66,120.550505 66.4474348,121 66.999159,121" id="Fill-83" fill="#262626"></path>
            <path d="M68.999159,104 C69.5508831,104 70,103.552189 70,103 C70,102.447811 69.5508831,102 68.999159,102 C68.4474348,102 68,102.447811 68,103 C68,103.552189 68.4474348,104 68.999159,104" id="Fill-85" fill="#262626"></path>
            <path d="M77,90 C77.5521886,90 78,89.5505051 78,88.9983165 C78,88.4461279 77.5521886,88 77,88 C76.4478114,88 76,88.4461279 76,88.9983165 C76,89.5505051 76.4478114,90 77,90" id="Fill-87" fill="#262626"></path>
            <path d="M87.999159,79 C88.5508831,79 89,78.5518113 89,77.9991575 C89,77.4465038 88.5508831,77 87.999159,77 C87.4474348,77 87,77.4465038 87,77.9991575 C87,78.5518113 87.4474348,79 87.999159,79" id="Fill-89" fill="#262626"></path>
            <path d="M102.000841,71 C102.552565,71 103,70.5505051 103,69.9983165 C103,69.4461279 102.552565,69 102.000841,69 C101.449117,69 101,69.4461279 101,69.9983165 C101,70.5505051 101.449117,71 102.000841,71" id="Fill-91" fill="#262626"></path>
            <path d="M118.999159,69 C119.550883,69 120,68.5505051 120,67.9983165 C120,67.4461279 119.550883,67 118.999159,67 C118.447435,67 118,67.4461279 118,67.9983165 C118,68.5505051 118.447435,69 118.999159,69" id="Fill-93" fill="#262626"></path>
            <path d="M134,71 C134.552189,71 135,70.5505051 135,69.9983165 C135,69.4461279 134.552189,69 134,69 C133.447811,69 133,69.4461279 133,69.9983165 C133,70.5505051 133.447811,71 134,71" id="Fill-95" fill="#262626"></path>
            <path d="M148.999159,79 C149.550883,79 150,78.5518113 150,77.9991575 C150,77.4465038 149.550883,77 148.999159,77 C148.447435,77 148,77.4465038 148,77.9991575 C148,78.5518113 148.447435,79 148.999159,79" id="Fill-97" fill="#262626"></path>
            <path d="M161,90 C161.552189,90 162,89.5505051 162,88.9983165 C162,88.4461279 161.552189,88 161,88 C160.447811,88 160,88.4461279 160,88.9983165 C160,89.5505051 160.447811,90 161,90" id="Fill-99" fill="#262626"></path>
            <path d="M168.999159,104 C169.550883,104 170,103.552189 170,103 C170,102.447811 169.550883,102 168.999159,102 C168.447435,102 168,102.447811 168,103 C168,103.552189 168.447435,104 168.999159,104" id="Fill-101" fill="#262626"></path>
            <path d="M184.999159,121 C185.550883,121 186,120.550505 186,119.998316 C186,119.446128 185.550883,119 184.999159,119 C184.447435,119 184,119.446128 184,119.998316 C184,120.550505 184.447435,121 184.999159,121" id="Fill-103" fill="#262626"></path>
            <path d="M181.999159,137 C182.550883,137 183,136.552189 183,136 C183,135.447811 182.550883,135 181.999159,135 C181.447435,135 181,135.447811 181,136 C181,136.552189 181.447435,137 181.999159,137" id="Fill-105" fill="#262626"></path>
            <path d="M176.000841,152 C176.550883,152 177,151.551811 177,150.999158 C177,150.446504 176.550883,150 176.000841,150 C175.449117,150 175,150.446504 175,150.999158 C175,151.551811 175.449117,152 176.000841,152" id="Fill-107" fill="#262626"></path>
            <path d="M167.000841,165 C167.550883,165 168,164.550505 168,163.998316 C168,163.446128 167.550883,163 167.000841,163 C166.449117,163 166,163.446128 166,163.998316 C166,164.550505 166.449117,165 167.000841,165" id="Fill-109" fill="#262626"></path>
            <path d="M152.999159,177 C153.550883,177 154,176.552189 154,176 C154,175.447811 153.550883,175 152.999159,175 C152.447435,175 152,175.447811 152,176 C152,176.552189 152.447435,177 152.999159,177" id="Fill-111" fill="#262626"></path>
            <path d="M139,183 C139.552189,183 140,182.552189 140,182 C140,181.447811 139.552189,181 139,181 C138.447811,181 138,181.447811 138,182 C138,182.552189 138.447811,183 139,183" id="Fill-113" fill="#262626"></path>
            <path d="M122,187 C122.552189,187 123,186.551811 123,185.999158 C123,185.446504 122.552189,185 122,185 C121.447811,185 121,185.446504 121,185.999158 C121,186.551811 121.447811,187 122,187" id="Fill-115" fill="#262626"></path>
            <path d="M107.000841,185 C107.552565,185 108,184.550505 108,183.998316 C108,183.446128 107.552565,183 107.000841,183 C106.449117,183 106,183.446128 106,183.998316 C106,184.550505 106.449117,185 107.000841,185" id="Fill-117" fill="#262626"></path>
            <path d="M90.999159,180 C91.5508831,180 92,179.552189 92,179 C92,178.447811 91.5508831,178 90.999159,178 C90.4491169,178 90,178.447811 90,179 C90,179.552189 90.4491169,180 90.999159,180" id="Fill-119" fill="#262626"></path>
            <path d="M76.999159,171 C77.5508831,171 78,170.551811 78,169.999158 C78,169.446504 77.5508831,169 76.999159,169 C76.4474348,169 76,169.446504 76,169.999158 C76,170.551811 76.4474348,171 76.999159,171" id="Fill-121" fill="#262626"></path>
            <path d="M66,159 C66.5521886,159 67,158.552189 67,158 C67,157.447811 66.5521886,157 66,157 C65.4478114,157 65,157.447811 65,158 C65,158.552189 65.4478114,159 66,159" id="Fill-123" fill="#262626"></path>
            <path d="M57.999159,144 C58.5508831,144 59,143.552189 59,143 C59,142.447811 58.5508831,142 57.999159,142 C57.4474348,142 57,142.447811 57,143 C57,143.552189 57.4474348,144 57.999159,144" id="Fill-125" fill="#262626"></path>
            <path d="M52.999159,129 C53.5508831,129 54,128.550505 54,127.998316 C54,127.446128 53.5508831,127 52.999159,127 C52.4474348,127 52,127.446128 52,127.998316 C52,128.550505 52.4474348,129 52.999159,129" id="Fill-127" fill="#262626"></path>
            <path d="M52.999159,112 C53.5508831,112 54,111.550505 54,110.998316 C54,110.446128 53.5508831,110 52.999159,110 C52.4474348,110 52,110.446128 52,110.998316 C52,111.550505 52.4474348,112 52.999159,112" id="Fill-129" fill="#262626"></path>
            <path d="M57.999159,96 C58.5508831,96 59,95.5518113 59,94.9991575 C59,94.4465038 58.5508831,94 57.999159,94 C57.4474348,94 57,94.4465038 57,94.9991575 C57,95.5518113 57.4474348,96 57.999159,96" id="Fill-131" fill="#262626"></path>
            <path d="M66,82 C66.5521886,82 67,81.5518113 67,80.9991575 C67,80.4465038 66.5521886,80 66,80 C65.4478114,80 65,80.4465038 65,80.9991575 C65,81.5518113 65.4478114,82 66,82" id="Fill-133" fill="#262626"></path>
            <path d="M76.999159,70 C77.5508831,70 78,69.5521886 78,69 C78,68.4478114 77.5508831,68 76.999159,68 C76.4474348,68 76,68.4478114 76,69 C76,69.5521886 76.4474348,70 76.999159,70" id="Fill-135" fill="#262626"></path>
            <path d="M90.999159,61 C91.5508831,61 92,60.5521886 92,60 C92,59.4478114 91.5508831,59 90.999159,59 C90.4491169,59 90,59.4478114 90,60 C90,60.5521886 90.4491169,61 90.999159,61" id="Fill-137" fill="#262626"></path>
            <path d="M107.000841,56 C107.552565,56 108,55.5505051 108,54.9983165 C108,54.4461279 107.552565,54 107.000841,54 C106.449117,54 106,54.4461279 106,54.9983165 C106,55.5505051 106.449117,56 107.000841,56" id="Fill-139" fill="#262626"></path>
            <path d="M122,55 C122.552189,55 123,54.5521886 123,54 C123,53.4478114 122.552189,53 122,53 C121.447811,53 121,53.4478114 121,54 C121,54.5521886 121.447811,55 122,55" id="Fill-141" fill="#262626"></path>
            <path d="M139,59 C139.552189,59 140,58.5521886 140,58 C140,57.4478114 139.552189,57 139,57 C138.447811,57 138,57.4478114 138,58 C138,58.5521886 138.447811,59 139,59" id="Fill-143" fill="#262626"></path>
            <path d="M152.999159,65 C153.550883,65 154,64.5518113 154,63.9991575 C154,63.4465038 153.550883,63 152.999159,63 C152.447435,63 152,63.4465038 152,63.9991575 C152,64.5518113 152.447435,65 152.999159,65" id="Fill-145" fill="#262626"></path>
            <path d="M167.000841,75 C167.550883,75 168,74.5505051 168,73.9983165 C168,73.4461279 167.550883,73 167.000841,73 C166.449117,73 166,73.4461279 166,73.9983165 C166,74.5505051 166.449117,75 167.000841,75" id="Fill-147" fill="#262626"></path>
            <path d="M176.000841,89 C176.550883,89 177,88.5521886 177,88 C177,87.4478114 176.550883,87 176.000841,87 C175.449117,87 175,87.4478114 175,88 C175,88.5521886 175.449117,89 176.000841,89" id="Fill-149" fill="#262626"></path>
            <path d="M181.999159,104 C182.550883,104 183,103.551811 183,102.999158 C183,102.446504 182.550883,102 181.999159,102 C181.447435,102 181,102.446504 181,102.999158 C181,103.551811 181.447435,104 181.999159,104" id="Fill-151" fill="#262626"></path>
            <path d="M197,121 C197.552189,121 198,120.550505 198,119.998316 C198,119.446128 197.552189,119 197,119 C196.447811,119 196,119.446128 196,119.998316 C196,120.550505 196.447811,121 197,121" id="Fill-153" fill="#262626"></path>
            <path d="M196,137 C196.552189,137 197,136.550505 197,135.998316 C197,135.446128 196.552189,135 196,135 C195.447811,135 195,135.446128 195,135.998316 C195,136.550505 195.447811,137 196,137" id="Fill-155" fill="#262626"></path>
            <path d="M190,153 C190.552189,153 191,152.551811 191,151.999158 C191,151.446504 190.552189,151 190,151 C189.447811,151 189,151.446504 189,151.999158 C189,152.551811 189.447811,153 190,153" id="Fill-157" fill="#262626"></path>
            <path d="M182,167 C182.552189,167 183,166.551811 183,165.999158 C183,165.446504 182.552189,165 182,165 C181.447811,165 181,165.446504 181,165.999158 C181,166.551811 181.447811,167 182,167" id="Fill-159" fill="#262626"></path>
            <path d="M171,179 C171.552189,179 172,178.550505 172,177.998316 C172,177.446128 171.552189,177 171,177 C170.447811,177 170,177.446128 170,177.998316 C170,178.550505 170.447811,179 171,179" id="Fill-161" fill="#262626"></path>
            <path d="M157.999159,189 C158.550883,189 159,188.551811 159,187.999158 C159,187.446504 158.550883,187 157.999159,187 C157.447435,187 157,187.446504 157,187.999158 C157,188.551811 157.447435,189 157.999159,189" id="Fill-163" fill="#262626"></path>
            <path d="M143,195 C143.552189,195 144,194.550505 144,193.998316 C144,193.446128 143.552189,193 143,193 C142.447811,193 142,193.446128 142,193.998316 C142,194.550505 142.447811,195 143,195" id="Fill-165" fill="#262626"></path>
            <path d="M126.999159,199 C127.550883,199 128,198.552189 128,198 C128,197.447811 127.550883,197 126.999159,197 C126.447435,197 126,197.447811 126,198 C126,198.552189 126.447435,199 126.999159,199" id="Fill-167" fill="#262626"></path>
            <path d="M109.999159,199 C110.550883,199 111,198.552189 111,198 C111,197.447811 110.550883,197 109.999159,197 C109.447435,197 109,197.447811 109,198 C109,198.552189 109.447435,199 109.999159,199" id="Fill-169" fill="#262626"></path>
            <path d="M93.999159,195 C94.5508831,195 95,194.550505 95,193.998316 C95,193.446128 94.5508831,193 93.999159,193 C93.4474348,193 93,193.446128 93,193.998316 C93,194.550505 93.4474348,195 93.999159,195" id="Fill-171" fill="#262626"></path>
            <path d="M78.999159,189 C79.5508831,189 80,188.551811 80,187.999158 C80,187.446504 79.5508831,187 78.999159,187 C78.4474348,187 78,187.446504 78,187.999158 C78,188.551811 78.4474348,189 78.999159,189" id="Fill-173" fill="#262626"></path>
            <path d="M66.000841,179 C66.5525652,179 67,178.550505 67,177.998316 C67,177.446128 66.5525652,177 66.000841,177 C65.4491169,177 65,177.446128 65,177.998316 C65,178.550505 65.4491169,179 66.000841,179" id="Fill-175" fill="#262626"></path>
            <path d="M55.000841,167 C55.5525652,167 56,166.551811 56,165.999158 C56,165.446504 55.5525652,165 55.000841,165 C54.4491169,165 54,165.446504 54,165.999158 C54,166.551811 54.4491169,167 55.000841,167" id="Fill-177" fill="#262626"></path>
            <path d="M47.000841,153 C47.5525652,153 48,152.551811 48,151.999158 C48,151.446504 47.5525652,151 47.000841,151 C46.4491169,151 46,151.446504 46,151.999158 C46,152.551811 46.4491169,153 47.000841,153" id="Fill-179" fill="#262626"></path>
            <path d="M42.000841,137 C42.5525652,137 43,136.550505 43,135.998316 C43,135.446128 42.5525652,135 42.000841,135 C41.4491169,135 41,135.446128 41,135.998316 C41,136.550505 41.4491169,137 42.000841,137" id="Fill-181" fill="#262626"></path>
            <path d="M40.000841,121 C40.5525652,121 41,120.550505 41,119.998316 C41,119.446128 40.5525652,119 40.000841,119 C39.4491169,119 39,119.446128 39,119.998316 C39,120.550505 39.4491169,121 40.000841,121" id="Fill-183" fill="#262626"></path>
            <path d="M42.000841,104 C42.5525652,104 43,103.550505 43,102.998316 C43,102.446128 42.5525652,102 42.000841,102 C41.4491169,102 41,102.446128 41,102.998316 C41,103.550505 41.4491169,104 42.000841,104" id="Fill-185" fill="#262626"></path>
            <path d="M47.000841,89 C47.5525652,89 48,88.5521886 48,88 C48,87.4478114 47.5525652,87 47.000841,87 C46.4491169,87 46,87.4478114 46,88 C46,88.5521886 46.4491169,89 47.000841,89" id="Fill-187" fill="#262626"></path>
            <path d="M55.000841,74 C55.5525652,74 56,73.5521886 56,73 C56,72.4478114 55.5525652,72 55.000841,72 C54.4491169,72 54,72.4478114 54,73 C54,73.5521886 54.4491169,74 55.000841,74" id="Fill-189" fill="#262626"></path>
            <path d="M66.000841,62 C66.5525652,62 67,61.5505051 67,60.9983165 C67,60.4461279 66.5525652,60 66.000841,60 C65.4491169,60 65,60.4461279 65,60.9983165 C65,61.5505051 65.4491169,62 66.000841,62" id="Fill-191" fill="#262626"></path>
            <path d="M78.999159,52 C79.5508831,52 80,51.5521886 80,51 C80,50.4478114 79.5508831,50 78.999159,50 C78.4474348,50 78,50.4478114 78,51 C78,51.5521886 78.4474348,52 78.999159,52" id="Fill-193" fill="#262626"></path>
            <path d="M93.999159,45 C94.5508831,45 95,44.5505051 95,43.9983165 C95,43.4461279 94.5508831,43 93.999159,43 C93.4474348,43 93,43.4461279 93,43.9983165 C93,44.5505051 93.4474348,45 93.999159,45" id="Fill-195" fill="#262626"></path>
            <path d="M109.999159,42 C110.550883,42 111,41.5518113 111,40.9991575 C111,40.4465038 110.550883,40 109.999159,40 C109.447435,40 109,40.4465038 109,40.9991575 C109,41.5518113 109.447435,42 109.999159,42" id="Fill-197" fill="#262626"></path>
            <path d="M126.999159,42 C127.550883,42 128,41.5518113 128,40.9991575 C128,40.4465038 127.550883,40 126.999159,40 C126.447435,40 126,40.4465038 126,40.9991575 C126,41.5518113 126.447435,42 126.999159,42" id="Fill-199" fill="#262626"></path>
            <path d="M143,45 C143.552189,45 144,44.5505051 144,43.9983165 C144,43.4461279 143.552189,43 143,43 C142.447811,43 142,43.4461279 142,43.9983165 C142,44.5505051 142.447811,45 143,45" id="Fill-201" fill="#262626"></path>
            <path d="M157.999159,52 C158.550883,52 159,51.5521886 159,51 C159,50.4478114 158.550883,50 157.999159,50 C157.447435,50 157,50.4478114 157,51 C157,51.5521886 157.447435,52 157.999159,52" id="Fill-203" fill="#262626"></path>
            <path d="M171,62 C171.552189,62 172,61.5505051 172,60.9983165 C172,60.4461279 171.552189,60 171,60 C170.447811,60 170,60.4461279 170,60.9983165 C170,61.5505051 170.447811,62 171,62" id="Fill-205" fill="#262626"></path>
            <path d="M182,74 C182.552189,74 183,73.5521886 183,73 C183,72.4478114 182.552189,72 182,72 C181.447811,72 181,72.4478114 181,73 C181,73.5521886 181.447811,74 182,74" id="Fill-207" fill="#262626"></path>
            <path d="M190,89 C190.552189,89 191,88.5521886 191,88 C191,87.4478114 190.552189,87 190,87 C189.447811,87 189,87.4478114 189,88 C189,88.5521886 189.447811,89 190,89" id="Fill-209" fill="#262626"></path>
            <path d="M196,104 C196.552189,104 197,103.550505 197,102.998316 C197,102.446128 196.552189,102 196,102 C195.447811,102 195,102.446128 195,102.998316 C195,103.550505 195.447811,104 196,104" id="Fill-211" fill="#262626"></path>
            <path d="M210,121 C210.552189,121 211,120.550505 211,119.998316 C211,119.446128 210.552189,119 210,119 C209.447811,119 209,119.446128 209,119.998316 C209,120.550505 209.447811,121 210,121" id="Fill-213" fill="#262626"></path>
            <path d="M209.000841,137 C209.552565,137 210,136.550505 210,135.998316 C210,135.446128 209.552565,135 209.000841,135 C208.449117,135 208,135.446128 208,135.998316 C208,136.550505 208.449117,137 209.000841,137" id="Fill-215" fill="#262626"></path>
            <path d="M205,153 C205.552189,153 206,152.550505 206,151.998316 C206,151.446128 205.552189,151 205,151 C204.447811,151 204,151.446128 204,151.998316 C204,152.550505 204.447811,153 205,153" id="Fill-217" fill="#262626"></path>
            <path d="M198.000841,168 C198.552565,168 199,167.551811 199,166.999158 C199,166.446504 198.552565,166 198.000841,166 C197.449117,166 197,166.446504 197,166.999158 C197,167.551811 197.449117,168 198.000841,168" id="Fill-219" fill="#262626"></path>
            <path d="M187.999159,181 C188.550883,181 189,180.551811 189,179.999158 C189,179.446504 188.550883,179 187.999159,179 C187.447435,179 187,179.446504 187,179.999158 C187,180.551811 187.447435,181 187.999159,181" id="Fill-221" fill="#262626"></path>
            <path d="M175.999159,192 C176.550883,192 177,191.552189 177,191 C177,190.447811 176.550883,190 175.999159,190 C175.447435,190 175,190.447811 175,191 C175,191.552189 175.447435,192 175.999159,192" id="Fill-223" fill="#262626"></path>
            <path d="M162.000841,201 C162.552565,201 163,200.550505 163,199.998316 C163,199.446128 162.552565,199 162.000841,199 C161.449117,199 161,199.446128 161,199.998316 C161,200.550505 161.449117,201 162.000841,201" id="Fill-225" fill="#262626"></path>
            <path d="M146.999159,208 C147.550883,208 148,207.552189 148,207 C148,206.447811 147.550883,206 146.999159,206 C146.447435,206 146,206.447811 146,207 C146,207.552189 146.447435,208 146.999159,208" id="Fill-227" fill="#262626"></path>
            <path d="M130.999159,212 C131.550883,212 132,211.552189 132,211 C132,210.447811 131.550883,210 130.999159,210 C130.447435,210 130,210.447811 130,211 C130,211.552189 130.447435,212 130.999159,212" id="Fill-229" fill="#262626"></path>
            <path d="M114.000841,212 C114.552565,212 115,211.551811 115,210.999158 C115,210.446504 114.552565,210 114.000841,210 C113.449117,210 113,210.446504 113,210.999158 C113,211.551811 113.449117,212 114.000841,212" id="Fill-231" fill="#262626"></path>
            <path d="M97.999159,210 C98.5508831,210 99,209.551811 99,208.999158 C99,208.446504 98.5508831,208 97.999159,208 C97.4474348,208 97,208.446504 97,208.999158 C97,209.551811 97.4474348,210 97.999159,210" id="Fill-233" fill="#262626"></path>
            <path d="M82,205 C82.5521886,205 83,204.552189 83,204 C83,203.447811 82.5521886,203 82,203 C81.4478114,203 81,203.447811 81,204 C81,204.552189 81.4478114,205 82,205" id="Fill-235" fill="#262626"></path>
            <path d="M67.999159,198 C68.5508831,198 69,197.550505 69,196.998316 C69,196.446128 68.5508831,196 67.999159,196 C67.4491169,196 67,196.446128 67,196.998316 C67,197.550505 67.4491169,198 67.999159,198" id="Fill-237" fill="#262626"></path>
            <path d="M55,187 C55.5521886,187 56,186.551811 56,185.999158 C56,185.446504 55.5521886,185 55,185 C54.4478114,185 54,185.446504 54,185.999158 C54,186.551811 54.4478114,187 55,187" id="Fill-239" fill="#262626"></path>
            <path d="M44,174 C44.5521886,174 45,173.550505 45,172.998316 C45,172.446128 44.5521886,172 44,172 C43.4478114,172 43,172.446128 43,172.998316 C43,173.550505 43.4478114,174 44,174" id="Fill-241" fill="#262626"></path>
            <path d="M35,161 C35.5521886,161 36,160.552189 36,160 C36,159.447811 35.5521886,159 35,159 C34.4478114,159 34,159.447811 34,160 C34,160.552189 34.4478114,161 35,161" id="Fill-243" fill="#262626"></path>
            <path d="M30,145 C30.5521886,145 31,144.551811 31,143.999158 C31,143.446504 30.5521886,143 30,143 C29.4478114,143 29,143.446504 29,143.999158 C29,144.551811 29.4478114,145 30,145" id="Fill-245" fill="#262626"></path>
            <path d="M27.999159,129 C28.5508831,129 29,128.552189 29,128 C29,127.447811 28.5508831,127 27.999159,127 C27.4474348,127 27,127.447811 27,128 C27,128.552189 27.4474348,129 27.999159,129" id="Fill-247" fill="#262626"></path>
            <path d="M27.999159,112 C28.5508831,112 29,111.551811 29,110.999158 C29,110.446504 28.5508831,110 27.999159,110 C27.4474348,110 27,110.446504 27,110.999158 C27,111.551811 27.4474348,112 27.999159,112" id="Fill-249" fill="#262626"></path>
            <path d="M30,96 C30.5521886,96 31,95.5521886 31,95 C31,94.4478114 30.5521886,94 30,94 C29.4478114,94 29,94.4478114 29,95 C29,95.5521886 29.4478114,96 30,96" id="Fill-251" fill="#262626"></path>
            <path d="M35,81 C35.5521886,81 36,80.5518113 36,79.9991575 C36,79.4465038 35.5521886,79 35,79 C34.4478114,79 34,79.4465038 34,79.9991575 C34,80.5518113 34.4478114,81 35,81" id="Fill-253" fill="#262626"></path>
            <path d="M44,66 C44.5521886,66 45,65.5505051 45,64.9983165 C45,64.4461279 44.5521886,64 44,64 C43.4478114,64 43,64.4461279 43,64.9983165 C43,65.5505051 43.4478114,66 44,66" id="Fill-255" fill="#262626"></path>
            <path d="M55,54 C55.5521886,54 56,53.5521886 56,53 C56,52.4478114 55.5521886,52 55,52 C54.4478114,52 54,52.4478114 54,53 C54,53.5521886 54.4478114,54 55,54" id="Fill-257" fill="#262626"></path>
            <path d="M67.999159,44 C68.5508831,44 69,43.5505051 69,42.9983165 C69,42.4461279 68.5508831,42 67.999159,42 C67.4491169,42 67,42.4461279 67,42.9983165 C67,43.5505051 67.4491169,44 67.999159,44" id="Fill-259" fill="#262626"></path>
            <path d="M82,36 C82.5521886,36 83,35.5518113 83,34.9991575 C83,34.4465038 82.5521886,34 82,34 C81.4478114,34 81,34.4465038 81,34.9991575 C81,35.5518113 81.4478114,36 82,36" id="Fill-261" fill="#262626"></path>
            <path d="M97.999159,31 C98.5508831,31 99,30.5521886 99,30 C99,29.4478114 98.5508831,29 97.999159,29 C97.4474348,29 97,29.4478114 97,30 C97,30.5521886 97.4474348,31 97.999159,31" id="Fill-263" fill="#262626"></path>
            <path d="M114.000841,29 C114.552565,29 115,28.5521886 115,28 C115,27.4478114 114.552565,27 114.000841,27 C113.449117,27 113,27.4478114 113,28 C113,28.5521886 113.449117,29 114.000841,29" id="Fill-265" fill="#262626"></path>
            <path d="M130.999159,30 C131.550883,30 132,29.5518113 132,28.9991575 C132,28.4465038 131.550883,28 130.999159,28 C130.447435,28 130,28.4465038 130,28.9991575 C130,29.5518113 130.447435,30 130.999159,30" id="Fill-267" fill="#262626"></path>
            <path d="M146.999159,33 C147.550883,33 148,32.5521886 148,32 C148,31.4478114 147.550883,31 146.999159,31 C146.447435,31 146,31.4478114 146,32 C146,32.5521886 146.447435,33 146.999159,33" id="Fill-269" fill="#262626"></path>
            <path d="M162.000841,40 C162.552565,40 163,39.5505051 163,38.9983165 C163,38.4461279 162.552565,38 162.000841,38 C161.449117,38 161,38.4461279 161,38.9983165 C161,39.5505051 161.449117,40 162.000841,40" id="Fill-271" fill="#262626"></path>
            <path d="M175.999159,49 C176.550883,49 177,48.5518113 177,47.9991575 C177,47.4465038 176.550883,47 175.999159,47 C175.447435,47 175,47.4465038 175,47.9991575 C175,48.5518113 175.447435,49 175.999159,49" id="Fill-273" fill="#262626"></path>
            <path d="M187.999159,60 C188.550883,60 189,59.5521886 189,59 C189,58.4478114 188.550883,58 187.999159,58 C187.447435,58 187,58.4478114 187,59 C187,59.5521886 187.447435,60 187.999159,60" id="Fill-275" fill="#262626"></path>
            <path d="M198.000841,73 C198.552565,73 199,72.5505051 199,71.9983165 C199,71.4461279 198.552565,71 198.000841,71 C197.449117,71 197,71.4461279 197,71.9983165 C197,72.5505051 197.449117,73 198.000841,73" id="Fill-277" fill="#262626"></path>
            <path d="M205,89 C205.552189,89 206,88.5505051 206,87.9983165 C206,87.4461279 205.552189,87 205,87 C204.447811,87 204,87.4461279 204,87.9983165 C204,88.5505051 204.447811,89 205,89" id="Fill-279" fill="#262626"></path>
            <path d="M209.000841,104 C209.552565,104 210,103.550505 210,102.998316 C210,102.446128 209.552565,102 209.000841,102 C208.449117,102 208,102.446128 208,102.998316 C208,103.550505 208.449117,104 209.000841,104" id="Fill-281" fill="#262626"></path>
            <path d="M223,121 C223.552189,121 224,120.550505 224,119.998316 C224,119.446128 223.552189,119 223,119 C222.447811,119 222,119.446128 222,119.998316 C222,120.550505 222.447811,121 223,121" id="Fill-283" fill="#262626"></path>
            <path d="M221.999159,137 C222.550883,137 223,136.552189 223,136 C223,135.447811 222.550883,135 221.999159,135 C221.447435,135 221,135.447811 221,136 C221,136.552189 221.447435,137 221.999159,137" id="Fill-285" fill="#262626"></path>
            <path d="M217.999159,153 C218.550883,153 219,152.550505 219,151.998316 C219,151.447811 218.550883,151 217.999159,151 C217.447435,151 217,151.447811 217,151.998316 C217,152.550505 217.447435,153 217.999159,153" id="Fill-287" fill="#262626"></path>
            <path d="M211.999159,169 C212.550883,169 213,168.550505 213,167.998316 C213,167.446128 212.550883,167 211.999159,167 C211.447435,167 211,167.446128 211,167.998316 C211,168.550505 211.447435,169 211.999159,169" id="Fill-289" fill="#262626"></path>
            <path d="M202.999159,182 C203.550883,182 204,181.552189 204,181 C204,180.447811 203.550883,180 202.999159,180 C202.447435,180 202,180.447811 202,181 C202,181.552189 202.447435,182 202.999159,182" id="Fill-291" fill="#262626"></path>
            <path d="M192.000841,195 C192.552565,195 193,194.552189 193,194 C193,193.447811 192.552565,193 192.000841,193 C191.449117,193 191,193.447811 191,194 C191,194.552189 191.449117,195 192.000841,195" id="Fill-293" fill="#262626"></path>
            <path d="M180.000841,205 C180.552565,205 181,204.550505 181,203.998316 C181,203.446128 180.552565,203 180.000841,203 C179.449117,203 179,203.446128 179,203.998316 C179,204.550505 179.449117,205 180.000841,205" id="Fill-295" fill="#262626"></path>
            <path d="M166.999159,214 C167.550883,214 168,213.550505 168,212.998316 C168,212.446128 167.550883,212 166.999159,212 C166.447435,212 166,212.446128 166,212.998316 C166,213.550505 166.447435,214 166.999159,214" id="Fill-297" fill="#262626"></path>
            <path d="M150.999159,221 C151.550883,221 152,220.550505 152,219.998316 C152,219.446128 151.550883,219 150.999159,219 C150.449117,219 150,219.446128 150,219.998316 C150,220.550505 150.449117,221 150.999159,221" id="Fill-299" fill="#262626"></path>
            <path d="M136.000841,224 C136.552565,224 137,223.550505 137,222.998316 C137,222.446128 136.552565,222 136.000841,222 C135.449117,222 135,222.446128 135,222.998316 C135,223.550505 135.449117,224 136.000841,224" id="Fill-301" fill="#262626"></path>
            <path d="M118.999159,225 C119.550883,225 120,224.551811 120,223.999158 C120,223.446504 119.550883,223 118.999159,223 C118.447435,223 118,223.446504 118,223.999158 C118,224.551811 118.447435,225 118.999159,225" id="Fill-303" fill="#262626"></path>
            <path d="M102,224 C102.552189,224 103,223.550505 103,222.998316 C103,222.446128 102.552189,222 102,222 C101.447811,222 101,222.446128 101,222.998316 C101,223.550505 101.447811,224 102,224" id="Fill-305" fill="#262626"></path>
            <path d="M86.999159,221 C87.5508831,221 88,220.550505 88,219.998316 C88,219.446128 87.5508831,219 86.999159,219 C86.4474348,219 86,219.446128 86,219.998316 C86,220.550505 86.4474348,221 86.999159,221" id="Fill-307" fill="#262626"></path>
            <path d="M70.999159,214 C71.5508831,214 72,213.550505 72,212.998316 C72,212.446128 71.5508831,212 70.999159,212 C70.4474348,212 70,212.446128 70,212.998316 C70,213.550505 70.4474348,214 70.999159,214" id="Fill-309" fill="#262626"></path>
            <path d="M57,205 C57.5521886,205 58,204.550505 58,203.998316 C58,203.446128 57.5521886,203 57,203 C56.4478114,203 56,203.446128 56,203.998316 C56,204.550505 56.4478114,205 57,205" id="Fill-311" fill="#262626"></path>
            <path d="M44,195 C44.5521886,195 45,194.552189 45,194 C45,193.447811 44.5521886,193 44,193 C43.4478114,193 43,193.447811 43,194 C43,194.552189 43.4478114,195 44,195" id="Fill-313" fill="#262626"></path>
            <path d="M33.999159,182 C34.5508831,182 35,181.552189 35,181 C35,180.447811 34.5508831,180 33.999159,180 C33.4474348,180 33,180.447811 33,181 C33,181.552189 33.4474348,182 33.999159,182" id="Fill-315" fill="#262626"></path>
            <path d="M24.999159,169 C25.5508831,169 26,168.550505 26,167.998316 C26,167.446128 25.5508831,167 24.999159,167 C24.4474348,167 24,167.446128 24,167.998316 C24,168.550505 24.4474348,169 24.999159,169" id="Fill-317" fill="#262626"></path>
            <path d="M18.999159,153 C19.5508831,153 20,152.550505 20,151.998316 C20,151.447811 19.5508831,151 18.999159,151 C18.4474348,151 18,151.447811 18,151.998316 C18,152.550505 18.4474348,153 18.999159,153" id="Fill-319" fill="#262626"></path>
            <path d="M14.999159,137 C15.5508831,137 16,136.552189 16,136 C16,135.447811 15.5508831,135 14.999159,135 C14.4474348,135 14,135.447811 14,136 C14,136.552189 14.4474348,137 14.999159,137" id="Fill-321" fill="#262626"></path>
            <path d="M14.000841,121 C14.5525652,121 15,120.550505 15,119.998316 C15,119.446128 14.5525652,119 14.000841,119 C13.4491169,119 13,119.446128 13,119.998316 C13,120.550505 13.4491169,121 14.000841,121" id="Fill-323" fill="#262626"></path>
            <path d="M14.999159,104 C15.5508831,104 16,103.551811 16,102.999158 C16,102.446504 15.5508831,102 14.999159,102 C14.4474348,102 14,102.446504 14,102.999158 C14,103.551811 14.4474348,104 14.999159,104" id="Fill-325" fill="#262626"></path>
            <path d="M18.999159,89 C19.5508831,89 20,88.5505051 20,87.9983165 C20,87.4461279 19.5508831,87 18.999159,87 C18.4474348,87 18,87.4461279 18,87.9983165 C18,88.5505051 18.4474348,89 18.999159,89" id="Fill-327" fill="#262626"></path>
            <path d="M24.999159,73 C25.5508831,73 26,72.5505051 26,71.9983165 C26,71.4461279 25.5508831,71 24.999159,71 C24.4474348,71 24,71.4461279 24,71.9983165 C24,72.5505051 24.4474348,73 24.999159,73" id="Fill-329" fill="#262626"></path>
            <path d="M33.999159,59 C34.5508831,59 35,58.5518113 35,57.9991575 C35,57.4465038 34.5508831,57 33.999159,57 C33.4474348,57 33,57.4465038 33,57.9991575 C33,58.5518113 33.4474348,59 33.999159,59" id="Fill-331" fill="#262626"></path>
            <path d="M44,46 C44.5521886,46 45,45.5518113 45,44.9991575 C45,44.4465038 44.5521886,44 44,44 C43.4478114,44 43,44.4465038 43,44.9991575 C43,45.5518113 43.4478114,46 44,46" id="Fill-333" fill="#262626"></path>
            <path d="M57,35 C57.5521886,35 58,34.5505051 58,33.9983165 C58,33.4461279 57.5521886,33 57,33 C56.4478114,33 56,33.4461279 56,33.9983165 C56,34.5505051 56.4478114,35 57,35" id="Fill-335" fill="#262626"></path>
            <path d="M70.999159,28 C71.5508831,28 72,27.5505051 72,26.9983165 C72,26.4461279 71.5508831,26 70.999159,26 C70.4474348,26 70,26.4461279 70,26.9983165 C70,27.5505051 70.4474348,28 70.999159,28" id="Fill-337" fill="#262626"></path>
            <path d="M86.999159,21 C87.5508831,21 88,20.5505051 88,19.9983165 C88,19.4461279 87.5508831,19 86.999159,19 C86.4474348,19 86,19.4461279 86,19.9983165 C86,20.5505051 86.4474348,21 86.999159,21" id="Fill-339" fill="#262626"></path>
            <path d="M102,16 C102.552189,16 103,15.5505051 103,14.9983165 C103,14.4461279 102.552189,14 102,14 C101.447811,14 101,14.4461279 101,14.9983165 C101,15.5505051 101.447811,16 102,16" id="Fill-341" fill="#262626"></path>
            <path d="M118.999159,15 C119.550883,15 120,14.5521886 120,14 C120,13.4478114 119.550883,13 118.999159,13 C118.447435,13 118,13.4478114 118,14 C118,14.5521886 118.447435,15 118.999159,15" id="Fill-343" fill="#262626"></path>
            <path d="M136.000841,16 C136.552565,16 137,15.5505051 137,14.9983165 C137,14.4461279 136.552565,14 136.000841,14 C135.449117,14 135,14.4461279 135,14.9983165 C135,15.5505051 135.449117,16 136.000841,16" id="Fill-345" fill="#262626"></path>
            <path d="M150.999159,21 C151.550883,21 152,20.5505051 152,19.9983165 C152,19.4461279 151.550883,19 150.999159,19 C150.449117,19 150,19.4461279 150,19.9983165 C150,20.5505051 150.449117,21 150.999159,21" id="Fill-347" fill="#262626"></path>
            <path d="M166.999159,28 C167.550883,28 168,27.5505051 168,26.9983165 C168,26.4461279 167.550883,26 166.999159,26 C166.447435,26 166,26.4461279 166,26.9983165 C166,27.5505051 166.447435,28 166.999159,28" id="Fill-349" fill="#262626"></path>
            <path d="M180.000841,35 C180.552565,35 181,34.5505051 181,33.9983165 C181,33.4461279 180.552565,33 180.000841,33 C179.449117,33 179,33.4461279 179,33.9983165 C179,34.5505051 179.449117,35 180.000841,35" id="Fill-351" fill="#262626"></path>
            <path d="M192.000841,46 C192.552565,46 193,45.5518113 193,44.9991575 C193,44.4465038 192.552565,44 192.000841,44 C191.449117,44 191,44.4465038 191,44.9991575 C191,45.5518113 191.449117,46 192.000841,46" id="Fill-353" fill="#262626"></path>
            <path d="M202.999159,59 C203.550883,59 204,58.5518113 204,57.9991575 C204,57.4465038 203.550883,57 202.999159,57 C202.447435,57 202,57.4465038 202,57.9991575 C202,58.5518113 202.447435,59 202.999159,59" id="Fill-355" fill="#262626"></path>
            <path d="M211.999159,73 C212.550883,73 213,72.5505051 213,71.9983165 C213,71.4461279 212.550883,71 211.999159,71 C211.447435,71 211,71.4461279 211,71.9983165 C211,72.5505051 211.447435,73 211.999159,73" id="Fill-357" fill="#262626"></path>
            <path d="M217.999159,89 C218.550883,89 219,88.5505051 219,87.9983165 C219,87.4461279 218.550883,87 217.999159,87 C217.447435,87 217,87.4461279 217,87.9983165 C217,88.5505051 217.447435,89 217.999159,89" id="Fill-359" fill="#262626"></path>
            <path d="M221.999159,104 C222.550883,104 223,103.551811 223,102.999158 C223,102.446504 222.550883,102 221.999159,102 C221.447435,102 221,102.446504 221,102.999158 C221,103.551811 221.447435,104 221.999159,104" id="Fill-361" fill="#262626"></path>
            <g id="Group-365" transform="translate(235.000000, 118.000000)">
                <mask id="mask-2" fill="white">
                    <use xlink:href="#path-1"></use>
                </mask>
                <g id="Clip-364"></g>
                <path d="M1.7256,2.63366667 C2.2176,2.63366667 2.6166,2.18866667 2.6166,1.642 C2.6166,1.09533333 2.2176,0.653666667 1.7256,0.653666667 C1.2336,0.653666667 0.8346,1.09533333 0.8346,1.642 C0.8346,2.18866667 1.2336,2.63366667 1.7256,2.63366667" id="Fill-363" fill="#262626" mask="url(#mask-2)"></path>
            </g>
            <path d="M236.000841,138 C236.552565,138 237,137.551811 237,136.999158 C237,136.446504 236.552565,136 236.000841,136 C235.449117,136 235,136.446504 235,136.999158 C235,137.551811 235.449117,138 236.000841,138" id="Fill-366" fill="#262626"></path>
            <path d="M231.999159,153 C232.550883,153 233,152.551811 233,151.999158 C233,151.446504 232.550883,151 231.999159,151 C231.449117,151 231,151.446504 231,151.999158 C231,152.551811 231.449117,153 231.999159,153" id="Fill-368" fill="#262626"></path>
            <path d="M227.000841,169 C227.552565,169 228,168.550505 228,167.998316 C228,167.446128 227.552565,167 227.000841,167 C226.449117,167 226,167.446128 226,167.998316 C226,168.550505 226.449117,169 227.000841,169" id="Fill-370" fill="#262626"></path>
            <path d="M218.999159,183 C219.550883,183 220,182.550505 220,181.998316 C220,181.446128 219.550883,181 218.999159,181 C218.447435,181 218,181.446128 218,181.998316 C218,182.550505 218.447435,183 218.999159,183" id="Fill-372" fill="#262626"></path>
            <path d="M209.000841,197 C209.552565,197 210,196.550505 210,195.998316 C210,195.446128 209.552565,195 209.000841,195 C208.449117,195 208,195.446128 208,195.998316 C208,196.550505 208.449117,197 209.000841,197" id="Fill-374" fill="#262626"></path>
            <path d="M198,209 C198.552189,209 199,208.551811 199,207.999158 C199,207.446504 198.552189,207 198,207 C197.447811,207 197,207.446504 197,207.999158 C197,208.551811 197.447811,209 198,209" id="Fill-376" fill="#262626"></path>
            <path d="M185.000841,219 C185.552565,219 186,218.552189 186,218 C186,217.447811 185.552565,217 185.000841,217 C184.449117,217 184,217.447811 184,218 C184,218.552189 184.449117,219 185.000841,219" id="Fill-378" fill="#262626"></path>
            <path d="M170,227 C170.552189,227 171,226.552189 171,226 C171,225.447811 170.552189,225 170,225 C169.447811,225 169,225.447811 169,226 C169,226.552189 169.447811,227 170,227" id="Fill-380" fill="#262626"></path>
            <path d="M156.000841,233 C156.550883,233 157,232.552189 157,232 C157,231.447811 156.550883,231 156.000841,231 C155.449117,231 155,231.447811 155,232 C155,232.552189 155.449117,233 156.000841,233" id="Fill-382" fill="#262626"></path>
            <path d="M139,237 C139.552189,237 140,236.552189 140,236 C140,235.447811 139.552189,235 139,235 C138.447811,235 138,235.447811 138,236 C138,236.552189 138.447811,237 139,237" id="Fill-384" fill="#262626"></path>
            <path d="M121.999159,239 C122.550883,239 123,238.551811 123,237.999158 C123,237.446504 122.550883,237 121.999159,237 C121.447435,237 121,237.446504 121,237.999158 C121,238.551811 121.447435,239 121.999159,239" id="Fill-386" fill="#262626"></path>
            <path d="M107.000841,238 C107.550883,238 108,237.551811 108,236.999158 C108,236.446504 107.550883,236 107.000841,236 C106.449117,236 106,236.446504 106,236.999158 C106,237.551811 106.449117,238 107.000841,238" id="Fill-388" fill="#262626"></path>
            <path d="M89.999159,235 C90.5508831,235 91,234.552189 91,234 C91,233.447811 90.5508831,233 89.999159,233 C89.4474348,233 89,233.447811 89,234 C89,234.552189 89.4474348,235 89.999159,235" id="Fill-390" fill="#262626"></path>
            <path d="M74,230 C74.5521886,230 75,229.550505 75,228.998316 C75,228.447811 74.5521886,228 74,228 C73.4478114,228 73,228.447811 73,228.998316 C73,229.550505 73.4478114,230 74,230" id="Fill-392" fill="#262626"></path>
            <path d="M60,223 C60.5521886,223 61,222.551811 61,221.999158 C61,221.446504 60.5521886,221 60,221 C59.4478114,221 59,221.446504 59,221.999158 C59,222.551811 59.4478114,223 60,223" id="Fill-394" fill="#262626"></path>
            <path d="M45,213 C45.5521886,213 46,212.552189 46,212 C46,211.447811 45.5521886,211 45,211 C44.4478114,211 44,211.447811 44,212 C44,212.552189 44.4478114,213 45,213" id="Fill-396" fill="#262626"></path>
            <path d="M32.999159,203 C33.5508831,203 34,202.551811 34,201.999158 C34,201.446504 33.5508831,201 32.999159,201 C32.4474348,201 32,201.446504 32,201.999158 C32,202.551811 32.4474348,203 32.999159,203" id="Fill-398" fill="#262626"></path>
            <path d="M23.000841,190 C23.5525652,190 24,189.551811 24,188.999158 C24,188.446504 23.5525652,188 23.000841,188 C22.4491169,188 22,188.446504 22,188.999158 C22,189.551811 22.4491169,190 23.000841,190" id="Fill-400" fill="#262626"></path>
            <path d="M13.999159,177 C14.5508831,177 15,176.551811 15,175.999158 C15,175.446504 14.5508831,175 13.999159,175 C13.4491169,175 13,175.446504 13,175.999158 C13,176.551811 13.4491169,177 13.999159,177" id="Fill-402" fill="#262626"></path>
            <path d="M8,161 C8.55218855,161 9,160.552189 9,160 C9,159.447811 8.55218855,159 8,159 C7.44781145,159 7,159.447811 7,160 C7,160.552189 7.44781145,161 8,161" id="Fill-404" fill="#262626"></path>
            <path d="M2.99915896,145 C3.5508831,145 4,144.550505 4,143.998316 C4,143.446128 3.5508831,143 2.99915896,143 C2.44743482,143 2,143.446128 2,143.998316 C2,144.550505 2.44743482,145 2.99915896,145" id="Fill-406" fill="#262626"></path>
            <g id="Group-410" transform="translate(0.000000, 127.000000)">
                <mask id="mask-4" fill="white">
                    <use xlink:href="#path-3"></use>
                </mask>
                <g id="Clip-409"></g>
                <path d="M0.89055,1.97585 C1.38255,1.97585 1.78305,1.57535 1.78305,1.08335 C1.78305,0.59135 1.38255,0.19385 0.89055,0.19385 C0.39855,0.19385 -0.00045,0.59135 -0.00045,1.08335 C-0.00045,1.57535 0.39855,1.97585 0.89055,1.97585" id="Fill-408" fill="#262626" mask="url(#mask-4)"></path>
            </g>
            <g id="Group-413" transform="translate(0.000000, 110.000000)">
                <mask id="mask-6" fill="white">
                    <use xlink:href="#path-5"></use>
                </mask>
                <g id="Clip-412"></g>
                <path d="M0.89055,2.06475 C1.38255,2.06475 1.78305,1.66425 1.78305,1.17225 C1.78305,0.68025 1.38255,0.28275 0.89055,0.28275 C0.39855,0.28275 -0.00045,0.68025 -0.00045,1.17225 C-0.00045,1.66425 0.39855,2.06475 0.89055,2.06475" id="Fill-411" fill="#262626" mask="url(#mask-6)"></path>
            </g>
            <path d="M2.99915896,96 C3.5508831,96 4,95.5505051 4,95 C4,94.4478114 3.5508831,94 2.99915896,94 C2.44743482,94 2,94.4478114 2,95 C2,95.5505051 2.44743482,96 2.99915896,96" id="Fill-414" fill="#262626"></path>
            <path d="M8,80 C8.55218855,80 9,79.5518113 9,78.9991575 C9,78.4465038 8.55218855,78 8,78 C7.44781145,78 7,78.4465038 7,78.9991575 C7,79.5518113 7.44781145,80 8,80" id="Fill-416" fill="#262626"></path>
            <path d="M13.999159,65 C14.5508831,65 15,64.5521886 15,64 C15,63.4478114 14.5508831,63 13.999159,63 C13.4491169,63 13,63.4478114 13,64 C13,64.5521886 13.4491169,65 13.999159,65" id="Fill-418" fill="#262626"></path>
            <path d="M23.000841,51 C23.5525652,51 24,50.5521886 24,50 C24,49.4478114 23.5525652,49 23.000841,49 C22.4491169,49 22,49.4478114 22,50 C22,50.5521886 22.4491169,51 23.000841,51" id="Fill-420" fill="#262626"></path>
            <path d="M32.999159,39 C33.5508831,39 34,38.5521886 34,38 C34,37.4478114 33.5508831,37 32.999159,37 C32.4474348,37 32,37.4478114 32,38 C32,38.5521886 32.4474348,39 32.999159,39" id="Fill-422" fill="#262626"></path>
            <path d="M45,28 C45.5521886,28 46,27.5518113 46,26.9991575 C46,26.4465038 45.5521886,26 45,26 C44.4478114,26 44,26.4465038 44,26.9991575 C44,27.5518113 44.4478114,28 45,28" id="Fill-424" fill="#262626"></path>
            <path d="M60,19 C60.5521886,19 61,18.5521886 61,18 C61,17.4478114 60.5521886,17 60,17 C59.4478114,17 59,17.4478114 59,18 C59,18.5521886 59.4478114,19 60,19" id="Fill-426" fill="#262626"></path>
            <path d="M74,11 C74.5521886,11 75,10.5505051 75,9.9983165 C75,9.44612795 74.5521886,9 74,9 C73.4478114,9 73,9.44612795 73,9.9983165 C73,10.5505051 73.4478114,11 74,11" id="Fill-428" fill="#262626"></path>
            <path d="M89.999159,6 C90.5508831,6 91,5.55181129 91,4.99915754 C91,4.44650379 90.5508831,4 89.999159,4 C89.4474348,4 89,4.44650379 89,4.99915754 C89,5.55181129 89.4474348,6 89.999159,6" id="Fill-430" fill="#262626"></path>
            <path d="M107.000841,3 C107.550883,3 108,2.55181129 108,1.99915754 C108,1.44650379 107.550883,1 107.000841,1 C106.449117,1 106,1.44650379 106,1.99915754 C106,2.55181129 106.449117,3 107.000841,3" id="Fill-432" fill="#262626"></path>
            <g id="Group-436" transform="translate(121.000000, 0.000000)">
                <mask id="mask-8" fill="white">
                    <use xlink:href="#path-7"></use>
                </mask>
                <g id="Clip-435"></g>
                <path d="M1.0371,2.03985 C1.5291,2.03985 1.9296,1.64085 1.9296,1.14885 C1.9296,0.65685 1.5291,0.25785 1.0371,0.25785 C0.5451,0.25785 0.1461,0.65685 0.1461,1.14885 C0.1461,1.64085 0.5451,2.03985 1.0371,2.03985" id="Fill-434" fill="#262626" mask="url(#mask-8)"></path>
            </g>
            <path d="M139,4 C139.552189,4 140,3.55218855 140,3 C140,2.44781145 139.552189,2 139,2 C138.447811,2 138,2.44781145 138,3 C138,3.55218855 138.447811,4 139,4" id="Fill-437" fill="#262626"></path>
            <path d="M156.000841,9 C156.550883,9 157,8.55218855 157,8 C157,7.44781145 156.550883,7 156.000841,7 C155.449117,7 155,7.44781145 155,8 C155,8.55218855 155.449117,9 156.000841,9" id="Fill-439" fill="#262626"></path>
            <path d="M170,14 C170.552189,14 171,13.5518113 171,12.9991575 C171,12.4465038 170.552189,12 170,12 C169.447811,12 169,12.4465038 169,12.9991575 C169,13.5518113 169.447811,14 170,14" id="Fill-441" fill="#262626"></path>
            <path d="M185.000841,23 C185.552565,23 186,22.5518113 186,21.9991575 C186,21.4465038 185.552565,21 185.000841,21 C184.449117,21 184,21.4465038 184,21.9991575 C184,22.5518113 184.449117,23 185.000841,23" id="Fill-443" fill="#262626"></path>
            <path d="M198,33 C198.552189,33 199,32.5521886 199,32 C199,31.4478114 198.552189,31 198,31 C197.447811,31 197,31.4478114 197,32 C197,32.5521886 197.447811,33 198,33" id="Fill-445" fill="#262626"></path>
            <path d="M209.000841,44 C209.552565,44 210,43.5505051 210,42.9983165 C210,42.4461279 209.552565,42 209.000841,42 C208.449117,42 208,42.4461279 208,42.9983165 C208,43.5505051 208.449117,44 209.000841,44" id="Fill-447" fill="#262626"></path>
            <path d="M218.999159,58 C219.550883,58 220,57.5518113 220,56.9991575 C220,56.4465038 219.550883,56 218.999159,56 C218.447435,56 218,56.4465038 218,56.9991575 C218,57.5518113 218.447435,58 218.999159,58" id="Fill-449" fill="#262626"></path>
            <path d="M227.000841,73 C227.552565,73 228,72.5505051 228,71.9983165 C228,71.4461279 227.552565,71 227.000841,71 C226.449117,71 226,71.4461279 226,71.9983165 C226,72.5505051 226.449117,73 227.000841,73" id="Fill-451" fill="#262626"></path>
            <path d="M231.999159,88 C232.550883,88 233,87.5518113 233,86.9991575 C233,86.4465038 232.550883,86 231.999159,86 C231.449117,86 231,86.4465038 231,86.9991575 C231,87.5518113 231.449117,88 231.999159,88" id="Fill-453" fill="#262626"></path>
            <path d="M236.000841,104 C236.552565,104 237,103.552189 237,103 C237,102.447811 236.552565,102 236.000841,102 C235.449117,102 235,102.447811 235,103 C235,103.552189 235.449117,104 236.000841,104" id="Fill-455" fill="#262626"></path>
        </g>
    </g>
</svg>