<?xml version="1.0" encoding="UTF-8"?>
<svg width="1200px" height="1200px" viewBox="0 0 1200 1200" version="1.1" xmlns="http://www.w3.org/2000/svg" xmlns:xlink="http://www.w3.org/1999/xlink">
    <!-- Generator: Sketch 51.3 (57544) - http://www.bohemiancoding.com/sketch -->
    <title>3874</title>
    <desc>Created with Sketch.</desc>
    <defs>
        <polygon id="path-1" points="0 0 1200 0 1200 109.94 0 109.94"></polygon>
    </defs>
    <g id="3874" stroke="none" stroke-width="1" fill="none" fill-rule="evenodd">
        <path d="M10,0 L0,0 L0,10 C5.523,10 10,5.523 10,0" id="Fill-3" fill="#262626"></path>
        <path d="M100,10 C105.523,10 110,5.523 110,0 L90,0 C90,5.523 94.477,10 100,10" id="Fill-4" fill="#262626"></path>
        <path d="M200,10 C205.523,10 210,5.523 210,0 L190,0 C190,5.523 194.477,10 200,10" id="Fill-5" fill="#262626"></path>
        <path d="M300,10 C305.523,10 310,5.523 310,0 L290,0 C290,5.523 294.477,10 300,10" id="Fill-6" fill="#262626"></path>
        <path d="M400,10 C405.523,10 410,5.523 410,0 L390,0 C390,5.523 394.477,10 400,10" id="Fill-7" fill="#262626"></path>
        <path d="M500,10 C505.523,10 510,5.523 510,0 L490,0 C490,5.523 494.477,10 500,10" id="Fill-8" fill="#262626"></path>
        <path d="M600,10 C605.523,10 610,5.523 610,0 L590,0 C590,5.523 594.477,10 600,10" id="Fill-9" fill="#262626"></path>
        <path d="M700,10 C705.523,10 710,5.523 710,0 L690,0 C690,5.523 694.477,10 700,10" id="Fill-10" fill="#262626"></path>
        <path d="M800,10 C805.523,10 810,5.523 810,0 L790,0 C790,5.523 794.477,10 800,10" id="Fill-11" fill="#262626"></path>
        <path d="M900,10 C905.523,10 910,5.523 910,0 L890,0 C890,5.523 894.477,10 900,10" id="Fill-12" fill="#262626"></path>
        <path d="M1000,10 C1005.52,10 1010,5.523 1010,0 L990,0 C990,5.523 994.477,10 1000,10" id="Fill-13" fill="#262626"></path>
        <path d="M1100,10 C1105.52,10 1110,5.523 1110,0 L1090,0 C1090,5.523 1094.48,10 1100,10" id="Fill-14" fill="#262626"></path>
        <path d="M1200,10 L1200,0 L1190,0 C1190,5.523 1194.48,10 1200,10" id="Fill-15" fill="#262626"></path>
        <path d="M10,100 C10,94.477 5.523,90 0,90 L0,110 C5.523,110 10,105.523 10,100" id="Fill-16" fill="#262626"></path>
        <path d="M100,90 C94.477,90 90,94.477 90,100 C90,105.523 94.477,110 100,110 C105.523,110 110,105.523 110,100 C110,94.477 105.523,90 100,90" id="Fill-17" fill="#262626"></path>
        <path d="M200,90 C194.477,90 190,94.477 190,100 C190,105.523 194.477,110 200,110 C205.523,110 210,105.523 210,100 C210,94.477 205.523,90 200,90" id="Fill-18" fill="#262626"></path>
        <path d="M300,90 C294.477,90 290,94.477 290,100 C290,105.523 294.477,110 300,110 C305.523,110 310,105.523 310,100 C310,94.477 305.523,90 300,90" id="Fill-19" fill="#262626"></path>
        <path d="M400,90 C394.477,90 390,94.477 390,100 C390,105.523 394.477,110 400,110 C405.523,110 410,105.523 410,100 C410,94.477 405.523,90 400,90" id="Fill-20" fill="#262626"></path>
        <path d="M500,90 C494.477,90 490,94.477 490,100 C490,105.523 494.477,110 500,110 C505.523,110 510,105.523 510,100 C510,94.477 505.523,90 500,90" id="Fill-21" fill="#262626"></path>
        <path d="M600,90 C594.477,90 590,94.477 590,100 C590,105.523 594.477,110 600,110 C605.523,110 610,105.523 610,100 C610,94.477 605.523,90 600,90" id="Fill-22" fill="#262626"></path>
        <path d="M700,90 C694.477,90 690,94.477 690,100 C690,105.523 694.477,110 700,110 C705.523,110 710,105.523 710,100 C710,94.477 705.523,90 700,90" id="Fill-23" fill="#262626"></path>
        <path d="M800,90 C794.477,90 790,94.477 790,100 C790,105.523 794.477,110 800,110 C805.523,110 810,105.523 810,100 C810,94.477 805.523,90 800,90" id="Fill-24" fill="#262626"></path>
        <path d="M900,90 C894.477,90 890,94.477 890,100 C890,105.523 894.477,110 900,110 C905.523,110 910,105.523 910,100 C910,94.477 905.523,90 900,90" id="Fill-25" fill="#262626"></path>
        <path d="M1000,90 C994.477,90 990,94.477 990,100 C990,105.523 994.477,110 1000,110 C1005.52,110 1010,105.523 1010,100 C1010,94.477 1005.52,90 1000,90" id="Fill-26" fill="#262626"></path>
        <path d="M1100,90 C1094.48,90 1090,94.477 1090,100 C1090,105.523 1094.48,110 1100,110 C1105.52,110 1110,105.523 1110,100 C1110,94.477 1105.52,90 1100,90" id="Fill-27" fill="#262626"></path>
        <path d="M1190,100 C1190,105.523 1194.48,110 1200,110 L1200,90 C1194.48,90 1190,94.477 1190,100" id="Fill-28" fill="#262626"></path>
        <path d="M10,200 C10,194.477 5.523,190 0,190 L0,210 C5.523,210 10,205.523 10,200" id="Fill-29" fill="#262626"></path>
        <path d="M100,190 C94.477,190 90,194.477 90,200 C90,205.523 94.477,210 100,210 C105.523,210 110,205.523 110,200 C110,194.477 105.523,190 100,190" id="Fill-30" fill="#262626"></path>
        <path d="M200,190 C194.477,190 190,194.477 190,200 C190,205.523 194.477,210 200,210 C205.523,210 210,205.523 210,200 C210,194.477 205.523,190 200,190" id="Fill-31" fill="#262626"></path>
        <path d="M300,190 C294.477,190 290,194.477 290,200 C290,205.523 294.477,210 300,210 C305.523,210 310,205.523 310,200 C310,194.477 305.523,190 300,190" id="Fill-32" fill="#262626"></path>
        <path d="M400,190 C394.477,190 390,194.477 390,200 C390,205.523 394.477,210 400,210 C405.523,210 410,205.523 410,200 C410,194.477 405.523,190 400,190" id="Fill-33" fill="#262626"></path>
        <path d="M500,190 C494.477,190 490,194.477 490,200 C490,205.523 494.477,210 500,210 C505.523,210 510,205.523 510,200 C510,194.477 505.523,190 500,190" id="Fill-34" fill="#262626"></path>
        <path d="M600,190 C594.477,190 590,194.477 590,200 C590,205.523 594.477,210 600,210 C605.523,210 610,205.523 610,200 C610,194.477 605.523,190 600,190" id="Fill-35" fill="#262626"></path>
        <path d="M700,190 C694.477,190 690,194.477 690,200 C690,205.523 694.477,210 700,210 C705.523,210 710,205.523 710,200 C710,194.477 705.523,190 700,190" id="Fill-36" fill="#262626"></path>
        <path d="M800,190 C794.477,190 790,194.477 790,200 C790,205.523 794.477,210 800,210 C805.523,210 810,205.523 810,200 C810,194.477 805.523,190 800,190" id="Fill-37" fill="#262626"></path>
        <path d="M900,190 C894.477,190 890,194.477 890,200 C890,205.523 894.477,210 900,210 C905.523,210 910,205.523 910,200 C910,194.477 905.523,190 900,190" id="Fill-38" fill="#262626"></path>
        <path d="M1000,190 C994.477,190 990,194.477 990,200 C990,205.523 994.477,210 1000,210 C1005.52,210 1010,205.523 1010,200 C1010,194.477 1005.52,190 1000,190" id="Fill-39" fill="#262626"></path>
        <path d="M1100,190 C1094.48,190 1090,194.477 1090,200 C1090,205.523 1094.48,210 1100,210 C1105.52,210 1110,205.523 1110,200 C1110,194.477 1105.52,190 1100,190" id="Fill-40" fill="#262626"></path>
        <path d="M1190,200 C1190,205.523 1194.48,210 1200,210 L1200,190 C1194.48,190 1190,194.477 1190,200" id="Fill-41" fill="#262626"></path>
        <path d="M10,300 C10,294.477 5.523,290 0,290 L0,310 C5.523,310 10,305.523 10,300" id="Fill-42" fill="#262626"></path>
        <path d="M100,290 C94.477,290 90,294.477 90,300 C90,305.523 94.477,310 100,310 C105.523,310 110,305.523 110,300 C110,294.477 105.523,290 100,290" id="Fill-43" fill="#262626"></path>
        <path d="M200,290 C194.477,290 190,294.477 190,300 C190,305.523 194.477,310 200,310 C205.523,310 210,305.523 210,300 C210,294.477 205.523,290 200,290" id="Fill-44" fill="#262626"></path>
        <path d="M300,290 C294.477,290 290,294.477 290,300 C290,305.523 294.477,310 300,310 C305.523,310 310,305.523 310,300 C310,294.477 305.523,290 300,290" id="Fill-45" fill="#262626"></path>
        <path d="M400,290 C394.477,290 390,294.477 390,300 C390,305.523 394.477,310 400,310 C405.523,310 410,305.523 410,300 C410,294.477 405.523,290 400,290" id="Fill-46" fill="#262626"></path>
        <path d="M500,290 C494.477,290 490,294.477 490,300 C490,305.523 494.477,310 500,310 C505.523,310 510,305.523 510,300 C510,294.477 505.523,290 500,290" id="Fill-47" fill="#262626"></path>
        <path d="M600,290 C594.477,290 590,294.477 590,300 C590,305.523 594.477,310 600,310 C605.523,310 610,305.523 610,300 C610,294.477 605.523,290 600,290" id="Fill-48" fill="#262626"></path>
        <path d="M700,290 C694.477,290 690,294.477 690,300 C690,305.523 694.477,310 700,310 C705.523,310 710,305.523 710,300 C710,294.477 705.523,290 700,290" id="Fill-49" fill="#262626"></path>
        <path d="M800,290 C794.477,290 790,294.477 790,300 C790,305.523 794.477,310 800,310 C805.523,310 810,305.523 810,300 C810,294.477 805.523,290 800,290" id="Fill-50" fill="#262626"></path>
        <path d="M900,290 C894.477,290 890,294.477 890,300 C890,305.523 894.477,310 900,310 C905.523,310 910,305.523 910,300 C910,294.477 905.523,290 900,290" id="Fill-51" fill="#262626"></path>
        <path d="M1000,290 C994.477,290 990,294.477 990,300 C990,305.523 994.477,310 1000,310 C1005.52,310 1010,305.523 1010,300 C1010,294.477 1005.52,290 1000,290" id="Fill-52" fill="#262626"></path>
        <path d="M1100,290 C1094.48,290 1090,294.477 1090,300 C1090,305.523 1094.48,310 1100,310 C1105.52,310 1110,305.523 1110,300 C1110,294.477 1105.52,290 1100,290" id="Fill-53" fill="#262626"></path>
        <path d="M1190,300 C1190,305.523 1194.48,310 1200,310 L1200,290 C1194.48,290 1190,294.477 1190,300" id="Fill-54" fill="#262626"></path>
        <path d="M10,400 C10,394.477 5.523,390 0,390 L0,410 C5.523,410 10,405.523 10,400" id="Fill-55" fill="#262626"></path>
        <path d="M100,390 C94.477,390 90,394.477 90,400 C90,405.523 94.477,410 100,410 C105.523,410 110,405.523 110,400 C110,394.477 105.523,390 100,390" id="Fill-56" fill="#262626"></path>
        <path d="M200,390 C194.477,390 190,394.477 190,400 C190,405.523 194.477,410 200,410 C205.523,410 210,405.523 210,400 C210,394.477 205.523,390 200,390" id="Fill-57" fill="#262626"></path>
        <path d="M300,390 C294.477,390 290,394.477 290,400 C290,405.523 294.477,410 300,410 C305.523,410 310,405.523 310,400 C310,394.477 305.523,390 300,390" id="Fill-58" fill="#262626"></path>
        <path d="M400,390 C394.477,390 390,394.477 390,400 C390,405.523 394.477,410 400,410 C405.523,410 410,405.523 410,400 C410,394.477 405.523,390 400,390" id="Fill-59" fill="#262626"></path>
        <path d="M500,390 C494.477,390 490,394.477 490,400 C490,405.523 494.477,410 500,410 C505.523,410 510,405.523 510,400 C510,394.477 505.523,390 500,390" id="Fill-60" fill="#262626"></path>
        <path d="M600,390 C594.477,390 590,394.477 590,400 C590,405.523 594.477,410 600,410 C605.523,410 610,405.523 610,400 C610,394.477 605.523,390 600,390" id="Fill-61" fill="#262626"></path>
        <path d="M700,390 C694.477,390 690,394.477 690,400 C690,405.523 694.477,410 700,410 C705.523,410 710,405.523 710,400 C710,394.477 705.523,390 700,390" id="Fill-62" fill="#262626"></path>
        <path d="M800,390 C794.477,390 790,394.477 790,400 C790,405.523 794.477,410 800,410 C805.523,410 810,405.523 810,400 C810,394.477 805.523,390 800,390" id="Fill-63" fill="#262626"></path>
        <path d="M900,390 C894.477,390 890,394.477 890,400 C890,405.523 894.477,410 900,410 C905.523,410 910,405.523 910,400 C910,394.477 905.523,390 900,390" id="Fill-64" fill="#262626"></path>
        <path d="M1000,390 C994.477,390 990,394.477 990,400 C990,405.523 994.477,410 1000,410 C1005.52,410 1010,405.523 1010,400 C1010,394.477 1005.52,390 1000,390" id="Fill-65" fill="#262626"></path>
        <path d="M1100,390 C1094.48,390 1090,394.477 1090,400 C1090,405.523 1094.48,410 1100,410 C1105.52,410 1110,405.523 1110,400 C1110,394.477 1105.52,390 1100,390" id="Fill-66" fill="#262626"></path>
        <path d="M1190,400 C1190,405.523 1194.48,410 1200,410 L1200,390 C1194.48,390 1190,394.477 1190,400" id="Fill-67" fill="#262626"></path>
        <path d="M10,500 C10,494.477 5.523,490 0,490 L0,510 C5.523,510 10,505.523 10,500" id="Fill-68" fill="#262626"></path>
        <path d="M100,490 C94.477,490 90,494.477 90,500 C90,505.523 94.477,510 100,510 C105.523,510 110,505.523 110,500 C110,494.477 105.523,490 100,490" id="Fill-69" fill="#262626"></path>
        <path d="M200,490 C194.477,490 190,494.477 190,500 C190,505.523 194.477,510 200,510 C205.523,510 210,505.523 210,500 C210,494.477 205.523,490 200,490" id="Fill-70" fill="#262626"></path>
        <path d="M300,490 C294.477,490 290,494.477 290,500 C290,505.523 294.477,510 300,510 C305.523,510 310,505.523 310,500 C310,494.477 305.523,490 300,490" id="Fill-71" fill="#262626"></path>
        <path d="M400,490 C394.477,490 390,494.477 390,500 C390,505.523 394.477,510 400,510 C405.523,510 410,505.523 410,500 C410,494.477 405.523,490 400,490" id="Fill-72" fill="#262626"></path>
        <path d="M500,490 C494.477,490 490,494.477 490,500 C490,505.523 494.477,510 500,510 C505.523,510 510,505.523 510,500 C510,494.477 505.523,490 500,490" id="Fill-73" fill="#262626"></path>
        <path d="M600,490 C594.477,490 590,494.477 590,500 C590,505.523 594.477,510 600,510 C605.523,510 610,505.523 610,500 C610,494.477 605.523,490 600,490" id="Fill-74" fill="#262626"></path>
        <path d="M700,490 C694.477,490 690,494.477 690,500 C690,505.523 694.477,510 700,510 C705.523,510 710,505.523 710,500 C710,494.477 705.523,490 700,490" id="Fill-75" fill="#262626"></path>
        <path d="M800,490 C794.477,490 790,494.477 790,500 C790,505.523 794.477,510 800,510 C805.523,510 810,505.523 810,500 C810,494.477 805.523,490 800,490" id="Fill-76" fill="#262626"></path>
        <path d="M900,490 C894.477,490 890,494.477 890,500 C890,505.523 894.477,510 900,510 C905.523,510 910,505.523 910,500 C910,494.477 905.523,490 900,490" id="Fill-77" fill="#262626"></path>
        <path d="M1000,490 C994.477,490 990,494.477 990,500 C990,505.523 994.477,510 1000,510 C1005.52,510 1010,505.523 1010,500 C1010,494.477 1005.52,490 1000,490" id="Fill-78" fill="#262626"></path>
        <path d="M1100,490 C1094.48,490 1090,494.477 1090,500 C1090,505.523 1094.48,510 1100,510 C1105.52,510 1110,505.523 1110,500 C1110,494.477 1105.52,490 1100,490" id="Fill-79" fill="#262626"></path>
        <path d="M1190,500 C1190,505.523 1194.48,510 1200,510 L1200,490 C1194.48,490 1190,494.477 1190,500" id="Fill-80" fill="#262626"></path>
        <path d="M10,600 C10,594.477 5.523,590 0,590 L0,610 C5.523,610 10,605.523 10,600" id="Fill-81" fill="#262626"></path>
        <path d="M100,590 C94.477,590 90,594.477 90,600 C90,605.523 94.477,610 100,610 C105.523,610 110,605.523 110,600 C110,594.477 105.523,590 100,590" id="Fill-82" fill="#262626"></path>
        <path d="M200,590 C194.477,590 190,594.477 190,600 C190,605.523 194.477,610 200,610 C205.523,610 210,605.523 210,600 C210,594.477 205.523,590 200,590" id="Fill-83" fill="#262626"></path>
        <path d="M300,590 C294.477,590 290,594.477 290,600 C290,605.523 294.477,610 300,610 C305.523,610 310,605.523 310,600 C310,594.477 305.523,590 300,590" id="Fill-84" fill="#262626"></path>
        <path d="M400,590 C394.477,590 390,594.477 390,600 C390,605.523 394.477,610 400,610 C405.523,610 410,605.523 410,600 C410,594.477 405.523,590 400,590" id="Fill-85" fill="#262626"></path>
        <path d="M500,590 C494.477,590 490,594.477 490,600 C490,605.523 494.477,610 500,610 C505.523,610 510,605.523 510,600 C510,594.477 505.523,590 500,590" id="Fill-86" fill="#262626"></path>
        <path d="M600,590 C594.477,590 590,594.477 590,600 C590,605.523 594.477,610 600,610 C605.523,610 610,605.523 610,600 C610,594.477 605.523,590 600,590" id="Fill-87" fill="#262626"></path>
        <path d="M700,590 C694.477,590 690,594.477 690,600 C690,605.523 694.477,610 700,610 C705.523,610 710,605.523 710,600 C710,594.477 705.523,590 700,590" id="Fill-88" fill="#262626"></path>
        <path d="M800,590 C794.477,590 790,594.477 790,600 C790,605.523 794.477,610 800,610 C805.523,610 810,605.523 810,600 C810,594.477 805.523,590 800,590" id="Fill-89" fill="#262626"></path>
        <path d="M900,590 C894.477,590 890,594.477 890,600 C890,605.523 894.477,610 900,610 C905.523,610 910,605.523 910,600 C910,594.477 905.523,590 900,590" id="Fill-90" fill="#262626"></path>
        <path d="M1000,590 C994.477,590 990,594.477 990,600 C990,605.523 994.477,610 1000,610 C1005.52,610 1010,605.523 1010,600 C1010,594.477 1005.52,590 1000,590" id="Fill-91" fill="#262626"></path>
        <path d="M1100,590 C1094.48,590 1090,594.477 1090,600 C1090,605.523 1094.48,610 1100,610 C1105.52,610 1110,605.523 1110,600 C1110,594.477 1105.52,590 1100,590" id="Fill-92" fill="#262626"></path>
        <path d="M1190,600 C1190,605.523 1194.48,610 1200,610 L1200,590 C1194.48,590 1190,594.477 1190,600" id="Fill-93" fill="#262626"></path>
        <path d="M10,700 C10,694.477 5.523,690 0,690 L0,710 C5.523,710 10,705.523 10,700" id="Fill-94" fill="#262626"></path>
        <path d="M100,690 C94.477,690 90,694.477 90,700 C90,705.523 94.477,710 100,710 C105.523,710 110,705.523 110,700 C110,694.477 105.523,690 100,690" id="Fill-95" fill="#262626"></path>
        <path d="M200,690 C194.477,690 190,694.477 190,700 C190,705.523 194.477,710 200,710 C205.523,710 210,705.523 210,700 C210,694.477 205.523,690 200,690" id="Fill-96" fill="#262626"></path>
        <path d="M300,690 C294.477,690 290,694.477 290,700 C290,705.523 294.477,710 300,710 C305.523,710 310,705.523 310,700 C310,694.477 305.523,690 300,690" id="Fill-97" fill="#262626"></path>
        <path d="M400,690 C394.477,690 390,694.477 390,700 C390,705.523 394.477,710 400,710 C405.523,710 410,705.523 410,700 C410,694.477 405.523,690 400,690" id="Fill-98" fill="#262626"></path>
        <path d="M500,690 C494.477,690 490,694.477 490,700 C490,705.523 494.477,710 500,710 C505.523,710 510,705.523 510,700 C510,694.477 505.523,690 500,690" id="Fill-99" fill="#262626"></path>
        <path d="M600,690 C594.477,690 590,694.477 590,700 C590,705.523 594.477,710 600,710 C605.523,710 610,705.523 610,700 C610,694.477 605.523,690 600,690" id="Fill-100" fill="#262626"></path>
        <path d="M700,690 C694.477,690 690,694.477 690,700 C690,705.523 694.477,710 700,710 C705.523,710 710,705.523 710,700 C710,694.477 705.523,690 700,690" id="Fill-101" fill="#262626"></path>
        <path d="M800,690 C794.477,690 790,694.477 790,700 C790,705.523 794.477,710 800,710 C805.523,710 810,705.523 810,700 C810,694.477 805.523,690 800,690" id="Fill-102" fill="#262626"></path>
        <path d="M900,690 C894.477,690 890,694.477 890,700 C890,705.523 894.477,710 900,710 C905.523,710 910,705.523 910,700 C910,694.477 905.523,690 900,690" id="Fill-103" fill="#262626"></path>
        <path d="M1000,690 C994.477,690 990,694.477 990,700 C990,705.523 994.477,710 1000,710 C1005.52,710 1010,705.523 1010,700 C1010,694.477 1005.52,690 1000,690" id="Fill-104" fill="#262626"></path>
        <path d="M1100,690 C1094.48,690 1090,694.477 1090,700 C1090,705.523 1094.48,710 1100,710 C1105.52,710 1110,705.523 1110,700 C1110,694.477 1105.52,690 1100,690" id="Fill-105" fill="#262626"></path>
        <path d="M1190,700 C1190,705.523 1194.48,710 1200,710 L1200,690 C1194.48,690 1190,694.477 1190,700" id="Fill-106" fill="#262626"></path>
        <path d="M10,800 C10,794.477 5.523,790 0,790 L0,810 C5.523,810 10,805.523 10,800" id="Fill-107" fill="#262626"></path>
        <path d="M100,790 C94.477,790 90,794.477 90,800 C90,805.523 94.477,810 100,810 C105.523,810 110,805.523 110,800 C110,794.477 105.523,790 100,790" id="Fill-108" fill="#262626"></path>
        <path d="M200,790 C194.477,790 190,794.477 190,800 C190,805.523 194.477,810 200,810 C205.523,810 210,805.523 210,800 C210,794.477 205.523,790 200,790" id="Fill-109" fill="#262626"></path>
        <path d="M300,790 C294.477,790 290,794.477 290,800 C290,805.523 294.477,810 300,810 C305.523,810 310,805.523 310,800 C310,794.477 305.523,790 300,790" id="Fill-110" fill="#262626"></path>
        <path d="M400,790 C394.477,790 390,794.477 390,800 C390,805.523 394.477,810 400,810 C405.523,810 410,805.523 410,800 C410,794.477 405.523,790 400,790" id="Fill-111" fill="#262626"></path>
        <path d="M500,790 C494.477,790 490,794.477 490,800 C490,805.523 494.477,810 500,810 C505.523,810 510,805.523 510,800 C510,794.477 505.523,790 500,790" id="Fill-112" fill="#262626"></path>
        <path d="M600,790 C594.477,790 590,794.477 590,800 C590,805.523 594.477,810 600,810 C605.523,810 610,805.523 610,800 C610,794.477 605.523,790 600,790" id="Fill-113" fill="#262626"></path>
        <path d="M700,790 C694.477,790 690,794.477 690,800 C690,805.523 694.477,810 700,810 C705.523,810 710,805.523 710,800 C710,794.477 705.523,790 700,790" id="Fill-114" fill="#262626"></path>
        <path d="M800,790 C794.477,790 790,794.477 790,800 C790,805.523 794.477,810 800,810 C805.523,810 810,805.523 810,800 C810,794.477 805.523,790 800,790" id="Fill-115" fill="#262626"></path>
        <path d="M900,790 C894.477,790 890,794.477 890,800 C890,805.523 894.477,810 900,810 C905.523,810 910,805.523 910,800 C910,794.477 905.523,790 900,790" id="Fill-116" fill="#262626"></path>
        <path d="M1000,790 C994.477,790 990,794.477 990,800 C990,805.523 994.477,810 1000,810 C1005.52,810 1010,805.523 1010,800 C1010,794.477 1005.52,790 1000,790" id="Fill-117" fill="#262626"></path>
        <path d="M1100,790 C1094.48,790 1090,794.477 1090,800 C1090,805.523 1094.48,810 1100,810 C1105.52,810 1110,805.523 1110,800 C1110,794.477 1105.52,790 1100,790" id="Fill-118" fill="#262626"></path>
        <path d="M1190,800 C1190,805.523 1194.48,810 1200,810 L1200,790 C1194.48,790 1190,794.477 1190,800" id="Fill-119" fill="#262626"></path>
        <path d="M10,900 C10,894.477 5.523,890 0,890 L0,910 C5.523,910 10,905.523 10,900" id="Fill-120" fill="#262626"></path>
        <path d="M100,890 C94.477,890 90,894.477 90,900 C90,905.523 94.477,910 100,910 C105.523,910 110,905.523 110,900 C110,894.477 105.523,890 100,890" id="Fill-121" fill="#262626"></path>
        <path d="M200,890 C194.477,890 190,894.477 190,900 C190,905.523 194.477,910 200,910 C205.523,910 210,905.523 210,900 C210,894.477 205.523,890 200,890" id="Fill-122" fill="#262626"></path>
        <path d="M300,890 C294.477,890 290,894.477 290,900 C290,905.523 294.477,910 300,910 C305.523,910 310,905.523 310,900 C310,894.477 305.523,890 300,890" id="Fill-123" fill="#262626"></path>
        <path d="M400,890 C394.477,890 390,894.477 390,900 C390,905.523 394.477,910 400,910 C405.523,910 410,905.523 410,900 C410,894.477 405.523,890 400,890" id="Fill-124" fill="#262626"></path>
        <path d="M500,890 C494.477,890 490,894.477 490,900 C490,905.523 494.477,910 500,910 C505.523,910 510,905.523 510,900 C510,894.477 505.523,890 500,890" id="Fill-125" fill="#262626"></path>
        <path d="M600,890 C594.477,890 590,894.477 590,900 C590,905.523 594.477,910 600,910 C605.523,910 610,905.523 610,900 C610,894.477 605.523,890 600,890" id="Fill-126" fill="#262626"></path>
        <path d="M700,890 C694.477,890 690,894.477 690,900 C690,905.523 694.477,910 700,910 C705.523,910 710,905.523 710,900 C710,894.477 705.523,890 700,890" id="Fill-127" fill="#262626"></path>
        <path d="M800,890 C794.477,890 790,894.477 790,900 C790,905.523 794.477,910 800,910 C805.523,910 810,905.523 810,900 C810,894.477 805.523,890 800,890" id="Fill-128" fill="#262626"></path>
        <path d="M900,890 C894.477,890 890,894.477 890,900 C890,905.523 894.477,910 900,910 C905.523,910 910,905.523 910,900 C910,894.477 905.523,890 900,890" id="Fill-129" fill="#262626"></path>
        <path d="M1000,890 C994.477,890 990,894.477 990,900 C990,905.523 994.477,910 1000,910 C1005.52,910 1010,905.523 1010,900 C1010,894.477 1005.52,890 1000,890" id="Fill-130" fill="#262626"></path>
        <path d="M1100,890 C1094.48,890 1090,894.477 1090,900 C1090,905.523 1094.48,910 1100,910 C1105.52,910 1110,905.523 1110,900 C1110,894.477 1105.52,890 1100,890" id="Fill-131" fill="#262626"></path>
        <path d="M1190,900 C1190,905.523 1194.48,910 1200,910 L1200,890 C1194.48,890 1190,894.477 1190,900" id="Fill-132" fill="#262626"></path>
        <path d="M10,1000 C10,994.477 5.523,990 0,990 L0,1010 C5.523,1010 10,1005.52 10,1000" id="Fill-133" fill="#262626"></path>
        <path d="M100,990 C94.477,990 90,994.477 90,1000 C90,1005.52 94.477,1010 100,1010 C105.523,1010 110,1005.52 110,1000 C110,994.477 105.523,990 100,990" id="Fill-134" fill="#262626"></path>
        <path d="M200,990 C194.477,990 190,994.477 190,1000 C190,1005.52 194.477,1010 200,1010 C205.523,1010 210,1005.52 210,1000 C210,994.477 205.523,990 200,990" id="Fill-135" fill="#262626"></path>
        <path d="M300,990 C294.477,990 290,994.477 290,1000 C290,1005.52 294.477,1010 300,1010 C305.523,1010 310,1005.52 310,1000 C310,994.477 305.523,990 300,990" id="Fill-136" fill="#262626"></path>
        <path d="M400,990 C394.477,990 390,994.477 390,1000 C390,1005.52 394.477,1010 400,1010 C405.523,1010 410,1005.52 410,1000 C410,994.477 405.523,990 400,990" id="Fill-137" fill="#262626"></path>
        <path d="M500,990 C494.477,990 490,994.477 490,1000 C490,1005.52 494.477,1010 500,1010 C505.523,1010 510,1005.52 510,1000 C510,994.477 505.523,990 500,990" id="Fill-138" fill="#262626"></path>
        <path d="M600,990 C594.477,990 590,994.477 590,1000 C590,1005.52 594.477,1010 600,1010 C605.523,1010 610,1005.52 610,1000 C610,994.477 605.523,990 600,990" id="Fill-139" fill="#262626"></path>
        <path d="M700,990 C694.477,990 690,994.477 690,1000 C690,1005.52 694.477,1010 700,1010 C705.523,1010 710,1005.52 710,1000 C710,994.477 705.523,990 700,990" id="Fill-140" fill="#262626"></path>
        <path d="M800,990 C794.477,990 790,994.477 790,1000 C790,1005.52 794.477,1010 800,1010 C805.523,1010 810,1005.52 810,1000 C810,994.477 805.523,990 800,990" id="Fill-141" fill="#262626"></path>
        <path d="M900,990 C894.477,990 890,994.477 890,1000 C890,1005.52 894.477,1010 900,1010 C905.523,1010 910,1005.52 910,1000 C910,994.477 905.523,990 900,990" id="Fill-142" fill="#262626"></path>
        <path d="M1000,990 C994.477,990 990,994.477 990,1000 C990,1005.52 994.477,1010 1000,1010 C1005.52,1010 1010,1005.52 1010,1000 C1010,994.477 1005.52,990 1000,990" id="Fill-143" fill="#262626"></path>
        <path d="M1100,990 C1094.48,990 1090,994.477 1090,1000 C1090,1005.52 1094.48,1010 1100,1010 C1105.52,1010 1110,1005.52 1110,1000 C1110,994.477 1105.52,990 1100,990" id="Fill-144" fill="#262626"></path>
        <path d="M1190,1000 C1190,1005.52 1194.48,1010 1200,1010 L1200,990 C1194.48,990 1190,994.477 1190,1000" id="Fill-145" fill="#262626"></path>
        <path d="M10,1100 C10,1094.48 5.523,1090 0,1090 L0,1110 C5.523,1110 10,1105.52 10,1100" id="Fill-146" fill="#262626"></path>
        <path d="M100,1090 C94.477,1090 90,1094.48 90,1100 C90,1105.52 94.477,1110 100,1110 C105.523,1110 110,1105.52 110,1100 C110,1094.48 105.523,1090 100,1090" id="Fill-147" fill="#262626"></path>
        <path d="M200,1090 C194.477,1090 190,1094.48 190,1100 C190,1105.52 194.477,1110 200,1110 C205.523,1110 210,1105.52 210,1100 C210,1094.48 205.523,1090 200,1090" id="Fill-148" fill="#262626"></path>
        <path d="M300,1090 C294.477,1090 290,1094.48 290,1100 C290,1105.52 294.477,1110 300,1110 C305.523,1110 310,1105.52 310,1100 C310,1094.48 305.523,1090 300,1090" id="Fill-149" fill="#262626"></path>
        <path d="M400,1090 C394.477,1090 390,1094.48 390,1100 C390,1105.52 394.477,1110 400,1110 C405.523,1110 410,1105.52 410,1100 C410,1094.48 405.523,1090 400,1090" id="Fill-150" fill="#262626"></path>
        <path d="M500,1090 C494.477,1090 490,1094.48 490,1100 C490,1105.52 494.477,1110 500,1110 C505.523,1110 510,1105.52 510,1100 C510,1094.48 505.523,1090 500,1090" id="Fill-151" fill="#262626"></path>
        <path d="M600,1090 C594.477,1090 590,1094.48 590,1100 C590,1105.52 594.477,1110 600,1110 C605.523,1110 610,1105.52 610,1100 C610,1094.48 605.523,1090 600,1090" id="Fill-152" fill="#262626"></path>
        <path d="M700,1090 C694.477,1090 690,1094.48 690,1100 C690,1105.52 694.477,1110 700,1110 C705.523,1110 710,1105.52 710,1100 C710,1094.48 705.523,1090 700,1090" id="Fill-153" fill="#262626"></path>
        <path d="M800,1090 C794.477,1090 790,1094.48 790,1100 C790,1105.52 794.477,1110 800,1110 C805.523,1110 810,1105.52 810,1100 C810,1094.48 805.523,1090 800,1090" id="Fill-154" fill="#262626"></path>
        <path d="M900,1090 C894.477,1090 890,1094.48 890,1100 C890,1105.52 894.477,1110 900,1110 C905.523,1110 910,1105.52 910,1100 C910,1094.48 905.523,1090 900,1090" id="Fill-155" fill="#262626"></path>
        <path d="M1000,1090 C994.477,1090 990,1094.48 990,1100 C990,1105.52 994.477,1110 1000,1110 C1005.52,1110 1010,1105.52 1010,1100 C1010,1094.48 1005.52,1090 1000,1090" id="Fill-156" fill="#262626"></path>
        <path d="M1100,1090 C1094.48,1090 1090,1094.48 1090,1100 C1090,1105.52 1094.48,1110 1100,1110 C1105.52,1110 1110,1105.52 1110,1100 C1110,1094.48 1105.52,1090 1100,1090" id="Fill-157" fill="#262626"></path>
        <g id="Group-173" transform="translate(0.000000, 1090.000000)">
            <mask id="mask-2" fill="white">
                <use xlink:href="#path-1"></use>
            </mask>
            <g id="Clip-159"></g>
            <path d="M1190,10 C1190,15.52 1194.48,20 1200,20 L1200,0 C1194.48,0 1190,4.48 1190,10" id="Fill-158" fill="#262626" mask="url(#mask-2)"></path>
            <path d="M0,100 L0,110 L10,110 C10,104.48 5.523,100 0,100" id="Fill-160" fill="#262626" mask="url(#mask-2)"></path>
            <path d="M100,100 C94.477,100 90,104.48 90,110 L110,110 C110,104.48 105.523,100 100,100" id="Fill-161" fill="#262626" mask="url(#mask-2)"></path>
            <path d="M200,100 C194.477,100 190,104.48 190,110 L210,110 C210,104.48 205.523,100 200,100" id="Fill-162" fill="#262626" mask="url(#mask-2)"></path>
            <path d="M300,100 C294.477,100 290,104.48 290,110 L310,110 C310,104.48 305.523,100 300,100" id="Fill-163" fill="#262626" mask="url(#mask-2)"></path>
            <path d="M400,100 C394.477,100 390,104.48 390,110 L410,110 C410,104.48 405.523,100 400,100" id="Fill-164" fill="#262626" mask="url(#mask-2)"></path>
            <path d="M500,100 C494.477,100 490,104.48 490,110 L510,110 C510,104.48 505.523,100 500,100" id="Fill-165" fill="#262626" mask="url(#mask-2)"></path>
            <path d="M600,100 C594.477,100 590,104.48 590,110 L610,110 C610,104.48 605.523,100 600,100" id="Fill-166" fill="#262626" mask="url(#mask-2)"></path>
            <path d="M700,100 C694.477,100 690,104.48 690,110 L710,110 C710,104.48 705.523,100 700,100" id="Fill-167" fill="#262626" mask="url(#mask-2)"></path>
            <path d="M800,100 C794.477,100 790,104.48 790,110 L810,110 C810,104.48 805.523,100 800,100" id="Fill-168" fill="#262626" mask="url(#mask-2)"></path>
            <path d="M900,100 C894.477,100 890,104.48 890,110 L910,110 C910,104.48 905.523,100 900,100" id="Fill-169" fill="#262626" mask="url(#mask-2)"></path>
            <path d="M1000,100 C994.477,100 990,104.48 990,110 L1010,110 C1010,104.48 1005.52,100 1000,100" id="Fill-170" fill="#262626" mask="url(#mask-2)"></path>
            <path d="M1100,100 C1094.48,100 1090,104.48 1090,110 L1110,110 C1110,104.48 1105.52,100 1100,100" id="Fill-171" fill="#262626" mask="url(#mask-2)"></path>
            <path d="M1200,100 C1194.48,100 1190,104.48 1190,110 L1200,110 L1200,100" id="Fill-172" fill="#262626" mask="url(#mask-2)"></path>
        </g>
        <path d="M909.281,503.731 L909.281,496.269 C909.745,497.422 910,498.681 910,500 C910,501.319 909.745,502.578 909.281,503.731" id="Fill-187" fill="#262626"></path>
        <path d="M909.281,603.731 L909.281,596.269 C909.745,597.422 910,598.681 910,600 C910,601.319 909.745,602.578 909.281,603.731" id="Fill-188" fill="#262626"></path>
        <path d="M909.281,703.731 L909.281,696.269 C909.745,697.422 910,698.681 910,700 C910,701.319 909.745,702.578 909.281,703.731" id="Fill-189" fill="#262626"></path>
        <path d="M906.187,507.857 L906.187,492.143 C907.548,493.217 908.624,494.636 909.281,496.269 L909.281,503.731 C908.624,505.364 907.548,506.783 906.187,507.857" id="Fill-191" fill="#262626"></path>
        <path d="M906.187,607.857 L906.187,592.143 C907.548,593.217 908.624,594.636 909.281,596.269 L909.281,603.731 C908.624,605.364 907.548,606.783 906.187,607.857" id="Fill-192" fill="#262626"></path>
        <path d="M906.187,707.857 L906.187,692.143 C907.548,693.217 908.624,694.636 909.281,696.269 L909.281,703.731 C908.624,705.364 907.548,706.783 906.187,707.857" id="Fill-193" fill="#262626"></path>
        <path d="M903.094,509.512 L903.094,490.488 C904.227,490.856 905.272,491.421 906.187,492.143 L906.187,507.857 C905.272,508.579 904.227,509.144 903.094,509.512" id="Fill-195" fill="#262626"></path>
        <path d="M903.094,609.512 L903.094,590.488 C904.227,590.856 905.272,591.421 906.187,592.143 L906.187,607.857 C905.272,608.578 904.227,609.144 903.094,609.512" id="Fill-196" fill="#262626"></path>
        <path d="M903.094,709.512 L903.094,690.488 C904.227,690.856 905.272,691.421 906.187,692.143 L906.187,707.857 C905.272,708.579 904.227,709.144 903.094,709.512" id="Fill-197" fill="#262626"></path>
        <path d="M900,510 L900,490 C901.08,490 902.12,490.171 903.094,490.488 L903.094,509.512 C902.12,509.829 901.08,510 900,510" id="Fill-199" fill="#262626"></path>
        <path d="M900,610 L900,590 C901.08,590 902.12,590.171 903.094,590.488 L903.094,609.512 C902.12,609.829 901.08,610 900,610" id="Fill-200" fill="#262626"></path>
        <path d="M900,710 L900,690 C901.08,690 902.12,690.171 903.094,690.488 L903.094,709.512 C902.12,709.829 901.08,710 900,710" id="Fill-201" fill="#262626"></path>
        <path d="M300,510 L300,490 C305.523,490 310,494.477 310,500 C310,505.523 305.523,510 300,510" id="Fill-203" fill="#262626"></path>
        <path d="M400,510 C394.477,510 390,505.523 390,500 C390,494.477 394.477,490 400,490 C405.523,490 410,494.477 410,500 C410,505.523 405.523,510 400,510" id="Fill-204" fill="#262626"></path>
        <path d="M500,510 C494.477,510 490,505.523 490,500 C490,494.477 494.477,490 500,490 C505.523,490 510,494.477 510,500 C510,505.523 505.523,510 500,510" id="Fill-205" fill="#262626"></path>
        <path d="M600,510 C594.477,510 590,505.523 590,500 C590,494.477 594.477,490 600,490 C605.523,490 610,494.477 610,500 C610,505.523 605.523,510 600,510" id="Fill-206" fill="#262626"></path>
        <path d="M700,510 C694.477,510 690,505.523 690,500 C690,494.477 694.477,490 700,490 C705.523,490 710,494.477 710,500 C710,505.523 705.523,510 700,510" id="Fill-207" fill="#262626"></path>
        <path d="M800,510 C794.477,510 790,505.523 790,500 C790,494.477 794.477,490 800,490 C805.523,490 810,494.477 810,500 C810,505.523 805.523,510 800,510" id="Fill-208" fill="#262626"></path>
        <path d="M900,510 C894.477,510 890,505.523 890,500 C890,494.477 894.477,490 900,490 L900,510" id="Fill-209" fill="#262626"></path>
        <path d="M300,610 L300,590 C305.523,590 310,594.477 310,600 C310,605.523 305.523,610 300,610" id="Fill-210" fill="#262626"></path>
        <path d="M400,610 C394.477,610 390,605.523 390,600 C390,594.477 394.477,590 400,590 C405.523,590 410,594.477 410,600 C410,605.523 405.523,610 400,610" id="Fill-211" fill="#262626"></path>
        <path d="M500,610 C494.477,610 490,605.523 490,600 C490,594.477 494.477,590 500,590 C505.523,590 510,594.477 510,600 C510,605.523 505.523,610 500,610" id="Fill-212" fill="#262626"></path>
        <path d="M600,610 C594.477,610 590,605.523 590,600 C590,594.477 594.477,590 600,590 C605.523,590 610,594.477 610,600 C610,605.523 605.523,610 600,610" id="Fill-213" fill="#262626"></path>
        <path d="M700,610 C694.477,610 690,605.523 690,600 C690,594.477 694.477,590 700,590 C705.523,590 710,594.477 710,600 C710,605.523 705.523,610 700,610" id="Fill-214" fill="#262626"></path>
        <path d="M800,610 C794.477,610 790,605.523 790,600 C790,594.477 794.477,590 800,590 C805.523,590 810,594.477 810,600 C810,605.523 805.523,610 800,610" id="Fill-215" fill="#262626"></path>
        <path d="M900,610 C894.477,610 890,605.523 890,600 C890,594.477 894.477,590 900,590 L900,610" id="Fill-216" fill="#262626"></path>
        <path d="M300,710 L300,690 C305.523,690 310,694.477 310,700 C310,705.523 305.523,710 300,710" id="Fill-217" fill="#262626"></path>
        <path d="M400,710 C394.477,710 390,705.523 390,700 C390,694.477 394.477,690 400,690 C405.523,690 410,694.477 410,700 C410,705.523 405.523,710 400,710" id="Fill-218" fill="#262626"></path>
        <path d="M500,710 C494.477,710 490,705.523 490,700 C490,694.477 494.477,690 500,690 C505.523,690 510,694.477 510,700 C510,705.523 505.523,710 500,710" id="Fill-219" fill="#262626"></path>
        <path d="M600,710 C594.477,710 590,705.523 590,700 C590,694.477 594.477,690 600,690 C605.523,690 610,694.477 610,700 C610,705.523 605.523,710 600,710" id="Fill-220" fill="#262626"></path>
        <path d="M700,710 C694.477,710 690,705.523 690,700 C690,694.477 694.477,690 700,690 C705.523,690 710,694.477 710,700 C710,705.523 705.523,710 700,710" id="Fill-221" fill="#262626"></path>
        <path d="M800,710 C794.477,710 790,705.523 790,700 C790,694.477 794.477,690 800,690 C805.523,690 810,694.477 810,700 C810,705.523 805.523,710 800,710" id="Fill-222" fill="#262626"></path>
        <path d="M900,710 C894.477,710 890,705.523 890,700 C890,694.477 894.477,690 900,690 L900,710" id="Fill-223" fill="#262626"></path>
    </g>
</svg>