<?xml version="1.0" encoding="UTF-8"?>
<svg width="115px" height="124px" viewBox="0 0 115 124" version="1.1" xmlns="http://www.w3.org/2000/svg" xmlns:xlink="http://www.w3.org/1999/xlink">
    <!-- Generator: Sketch 51.3 (57544) - http://www.bohemiancoding.com/sketch -->
    <title>Desktop</title>
    <desc>Created with Sketch.</desc>
    <defs></defs>
    <g id="Desktop" stroke="none" stroke-width="1" fill="none" fill-rule="evenodd">
        <g id="Group-301" transform="translate(-5.000000, -8.000000)" fill="#262626">
            <path d="M12,14 C12.552321,14 13,13.5529319 13,12.9996065 C13,12.4478552 12.552321,12 12,12 C11.447679,12 11,12.4478552 11,12.9996065 C11,13.5529319 11.447679,14 12,14" id="Fill-29"></path>
            <path d="M24,14 C24.552321,14 25,13.5529319 25,12.9996065 C25,12.4478552 24.552321,12 24,12 C23.447679,12 23,12.4478552 23,12.9996065 C23,13.5529319 23.447679,14 24,14" id="Fill-31"></path>
            <path d="M35,14 C35.552321,14 36,13.5529319 36,12.9996065 C36,12.4478552 35.552321,12 35,12 C34.447679,12 34,12.4478552 34,12.9996065 C34,13.5529319 34.447679,14 35,14" id="Fill-33"></path>
            <path d="M46,14 C46.552321,14 47,13.5529319 47,12.9996065 C47,12.4478552 46.552321,12 46,12 C45.447679,12 45,12.4478552 45,12.9996065 C45,13.5529319 45.447679,14 46,14" id="Fill-35"></path>
            <path d="M58,14 C58.552321,14 59,13.5529319 59,12.9996065 C59,12.4478552 58.552321,12 58,12 C57.447679,12 57,12.4478552 57,12.9996065 C57,13.5529319 57.447679,14 58,14" id="Fill-37"></path>
            <path d="M69,14 C69.552321,14 70,13.5529319 70,12.9996065 C70,12.4478552 69.552321,12 69,12 C68.447679,12 68,12.4478552 68,12.9996065 C68,13.5529319 68.447679,14 69,14" id="Fill-39"></path>
            <path d="M80,14 C80.552321,14 81,13.5529319 81,12.9996065 C81,12.4478552 80.552321,12 80,12 C79.447679,12 79,12.4478552 79,12.9996065 C79,13.5529319 79.447679,14 80,14" id="Fill-41"></path>
            <path d="M92,14 C92.552321,14 93,13.5529319 93,12.9996065 C93,12.4478552 92.552321,12 92,12 C91.447679,12 91,12.4478552 91,12.9996065 C91,13.5529319 91.447679,14 92,14" id="Fill-43"></path>
            <path d="M103,14 C103.552321,14 104,13.5529319 104,12.9996065 C104,12.4478552 103.552321,12 103,12 C102.447679,12 102,12.4478552 102,12.9996065 C102,13.5529319 102.447679,14 103,14" id="Fill-45"></path>
            <path d="M115,14 C115.552321,14 116,13.5529319 116,12.9996065 C116,12.4478552 115.552321,12 115,12 C114.447679,12 114,12.4478552 114,12.9996065 C114,13.5529319 114.447679,14 115,14" id="Fill-47"></path>
            <path d="M12,25 C12.552321,25 13,24.5529319 13,23.9996065 C13,23.4470681 12.552321,23 12,23 C11.447679,23 11,23.4470681 11,23.9996065 C11,24.5529319 11.447679,25 12,25" id="Fill-54"></path>
            <path d="M24,25 C24.552321,25 25,24.5529319 25,23.9996065 C25,23.4470681 24.552321,23 24,23 C23.447679,23 23,23.4470681 23,23.9996065 C23,24.5529319 23.447679,25 24,25" id="Fill-56"></path>
            <path d="M35,25 C35.552321,25 36,24.5529319 36,23.9996065 C36,23.4470681 35.552321,23 35,23 C34.447679,23 34,23.4470681 34,23.9996065 C34,24.5529319 34.447679,25 35,25" id="Fill-58"></path>
            <path d="M46,25 C46.552321,25 47,24.5529319 47,23.9996065 C47,23.4470681 46.552321,23 46,23 C45.447679,23 45,23.4470681 45,23.9996065 C45,24.5529319 45.447679,25 46,25" id="Fill-60"></path>
            <path d="M58,25 C58.552321,25 59,24.5529319 59,23.9996065 C59,23.4470681 58.552321,23 58,23 C57.447679,23 57,23.4470681 57,23.9996065 C57,24.5529319 57.447679,25 58,25" id="Fill-62"></path>
            <path d="M69,25 C69.552321,25 70,24.5529319 70,23.9996065 C70,23.4470681 69.552321,23 69,23 C68.447679,23 68,23.4470681 68,23.9996065 C68,24.5529319 68.447679,25 69,25" id="Fill-64"></path>
            <path d="M80,25 C80.552321,25 81,24.5529319 81,23.9996065 C81,23.4470681 80.552321,23 80,23 C79.447679,23 79,23.4470681 79,23.9996065 C79,24.5529319 79.447679,25 80,25" id="Fill-66"></path>
            <path d="M92,25 C92.552321,25 93,24.5529319 93,23.9996065 C93,23.4470681 92.552321,23 92,23 C91.447679,23 91,23.4470681 91,23.9996065 C91,24.5529319 91.447679,25 92,25" id="Fill-68"></path>
            <path d="M103,25 C103.552321,25 104,24.5529319 104,23.9996065 C104,23.4470681 103.552321,23 103,23 C102.447679,23 102,23.4470681 102,23.9996065 C102,24.5529319 102.447679,25 103,25" id="Fill-70"></path>
            <path d="M115,25 C115.552321,25 116,24.5529319 116,23.9996065 C116,23.4470681 115.552321,23 115,23 C114.447679,23 114,23.4470681 114,23.9996065 C114,24.5529319 114.447679,25 115,25" id="Fill-72"></path>
            <path d="M12,37 C12.552321,37 13,36.5521448 13,35.9996065 C13,35.4470681 12.552321,35 12,35 C11.447679,35 11,35.4470681 11,35.9996065 C11,36.5521448 11.447679,37 12,37" id="Fill-79"></path>
            <path d="M24,37 C24.552321,37 25,36.5521448 25,35.9996065 C25,35.4470681 24.552321,35 24,35 C23.447679,35 23,35.4470681 23,35.9996065 C23,36.5521448 23.447679,37 24,37" id="Fill-81"></path>
            <path d="M35,37 C35.552321,37 36,36.5521448 36,35.9996065 C36,35.4470681 35.552321,35 35,35 C34.447679,35 34,35.4470681 34,35.9996065 C34,36.5521448 34.447679,37 35,37" id="Fill-83"></path>
            <path d="M46,37 C46.552321,37 47,36.5521448 47,35.9996065 C47,35.4470681 46.552321,35 46,35 C45.447679,35 45,35.4470681 45,35.9996065 C45,36.5521448 45.447679,37 46,37" id="Fill-85"></path>
            <path d="M58,37 C58.552321,37 59,36.5521448 59,35.9996065 C59,35.4470681 58.552321,35 58,35 C57.447679,35 57,35.4470681 57,35.9996065 C57,36.5521448 57.447679,37 58,37" id="Fill-87"></path>
            <path d="M69,37 C69.552321,37 70,36.5521448 70,35.9996065 C70,35.4470681 69.552321,35 69,35 C68.447679,35 68,35.4470681 68,35.9996065 C68,36.5521448 68.447679,37 69,37" id="Fill-89"></path>
            <path d="M80,37 C80.552321,37 81,36.5521448 81,35.9996065 C81,35.4470681 80.552321,35 80,35 C79.447679,35 79,35.4470681 79,35.9996065 C79,36.5521448 79.447679,37 80,37" id="Fill-91"></path>
            <path d="M92,37 C92.552321,37 93,36.5521448 93,35.9996065 C93,35.4470681 92.552321,35 92,35 C91.447679,35 91,35.4470681 91,35.9996065 C91,36.5521448 91.447679,37 92,37" id="Fill-93"></path>
            <path d="M103,37 C103.552321,37 104,36.5521448 104,35.9996065 C104,35.4470681 103.552321,35 103,35 C102.447679,35 102,35.4470681 102,35.9996065 C102,36.5521448 102.447679,37 103,37" id="Fill-95"></path>
            <path d="M115,37 C115.552321,37 116,36.5521448 116,35.9996065 C116,35.4470681 115.552321,35 115,35 C114.447679,35 114,35.4470681 114,35.9996065 C114,36.5521448 114.447679,37 115,37" id="Fill-97"></path>
            <path d="M12,48 C12.552321,48 13,47.552321 13,47 C13,46.447679 12.552321,46 12,46 C11.447679,46 11,46.447679 11,47 C11,47.552321 11.447679,48 12,48" id="Fill-104"></path>
            <path d="M24,48 C24.552321,48 25,47.552321 25,47 C25,46.447679 24.552321,46 24,46 C23.447679,46 23,46.447679 23,47 C23,47.552321 23.447679,48 24,48" id="Fill-106"></path>
            <path d="M35,48 C35.552321,48 36,47.552321 36,47 C36,46.447679 35.552321,46 35,46 C34.447679,46 34,46.447679 34,47 C34,47.552321 34.447679,48 35,48" id="Fill-108"></path>
            <path d="M46,48 C46.552321,48 47,47.552321 47,47 C47,46.447679 46.552321,46 46,46 C45.447679,46 45,46.447679 45,47 C45,47.552321 45.447679,48 46,48" id="Fill-110"></path>
            <path d="M58,48 C58.552321,48 59,47.552321 59,47 C59,46.447679 58.552321,46 58,46 C57.447679,46 57,46.447679 57,47 C57,47.552321 57.447679,48 58,48" id="Fill-112"></path>
            <path d="M69,48 C69.552321,48 70,47.552321 70,47 C70,46.447679 69.552321,46 69,46 C68.447679,46 68,46.447679 68,47 C68,47.552321 68.447679,48 69,48" id="Fill-114"></path>
            <path d="M80,48 C80.552321,48 81,47.552321 81,47 C81,46.447679 80.552321,46 80,46 C79.447679,46 79,46.447679 79,47 C79,47.552321 79.447679,48 80,48" id="Fill-116"></path>
            <path d="M92,48 C92.552321,48 93,47.552321 93,47 C93,46.447679 92.552321,46 92,46 C91.447679,46 91,46.447679 91,47 C91,47.552321 91.447679,48 92,48" id="Fill-118"></path>
            <path d="M103,48 C103.552321,48 104,47.552321 104,47 C104,46.447679 103.552321,46 103,46 C102.447679,46 102,46.447679 102,47 C102,47.552321 102.447679,48 103,48" id="Fill-120"></path>
            <path d="M115,48 C115.552321,48 116,47.552321 116,47 C116,46.447679 115.552321,46 115,46 C114.447679,46 114,46.447679 114,47 C114,47.552321 114.447679,48 115,48" id="Fill-122"></path>
            <path d="M12,60 C12.552321,60 13,59.552321 13,59 C13,58.447679 12.552321,58 12,58 C11.447679,58 11,58.447679 11,59 C11,59.552321 11.447679,60 12,60" id="Fill-129"></path>
            <path d="M24,60 C24.552321,60 25,59.552321 25,59 C25,58.447679 24.552321,58 24,58 C23.447679,58 23,58.447679 23,59 C23,59.552321 23.447679,60 24,60" id="Fill-131"></path>
            <path d="M35,60 C35.552321,60 36,59.552321 36,59 C36,58.447679 35.552321,58 35,58 C34.447679,58 34,58.447679 34,59 C34,59.552321 34.447679,60 35,60" id="Fill-133"></path>
            <path d="M46,60 C46.552321,60 47,59.552321 47,59 C47,58.447679 46.552321,58 46,58 C45.447679,58 45,58.447679 45,59 C45,59.552321 45.447679,60 46,60" id="Fill-135"></path>
            <path d="M58,60 C58.552321,60 59,59.552321 59,59 C59,58.447679 58.552321,58 58,58 C57.447679,58 57,58.447679 57,59 C57,59.552321 57.447679,60 58,60" id="Fill-137"></path>
            <path d="M69,60 C69.552321,60 70,59.552321 70,59 C70,58.447679 69.552321,58 69,58 C68.447679,58 68,58.447679 68,59 C68,59.552321 68.447679,60 69,60" id="Fill-139"></path>
            <path d="M80,60 C80.552321,60 81,59.552321 81,59 C81,58.447679 80.552321,58 80,58 C79.447679,58 79,58.447679 79,59 C79,59.552321 79.447679,60 80,60" id="Fill-141"></path>
            <path d="M92,60 C92.552321,60 93,59.552321 93,59 C93,58.447679 92.552321,58 92,58 C91.447679,58 91,58.447679 91,59 C91,59.552321 91.447679,60 92,60" id="Fill-143"></path>
            <path d="M103,60 C103.552321,60 104,59.552321 104,59 C104,58.447679 103.552321,58 103,58 C102.447679,58 102,58.447679 102,59 C102,59.552321 102.447679,60 103,60" id="Fill-145"></path>
            <path d="M115,60 C115.552321,60 116,59.552321 116,59 C116,58.447679 115.552321,58 115,58 C114.447679,58 114,58.447679 114,59 C114,59.552321 114.447679,60 115,60" id="Fill-147"></path>
            <path d="M12,71 C12.552321,71 13,70.5529319 13,69.9996065 C13,69.4478552 12.552321,69 12,69 C11.447679,69 11,69.4478552 11,69.9996065 C11,70.5529319 11.447679,71 12,71" id="Fill-154"></path>
            <path d="M24,71 C24.552321,71 25,70.5529319 25,69.9996065 C25,69.4478552 24.552321,69 24,69 C23.447679,69 23,69.4478552 23,69.9996065 C23,70.5529319 23.447679,71 24,71" id="Fill-156"></path>
            <path d="M35,71 C35.552321,71 36,70.5529319 36,69.9996065 C36,69.4478552 35.552321,69 35,69 C34.447679,69 34,69.4478552 34,69.9996065 C34,70.5529319 34.447679,71 35,71" id="Fill-158"></path>
            <path d="M46,71 C46.552321,71 47,70.5529319 47,69.9996065 C47,69.4478552 46.552321,69 46,69 C45.447679,69 45,69.4478552 45,69.9996065 C45,70.5529319 45.447679,71 46,71" id="Fill-160"></path>
            <path d="M58,71 C58.552321,71 59,70.5529319 59,69.9996065 C59,69.4478552 58.552321,69 58,69 C57.447679,69 57,69.4478552 57,69.9996065 C57,70.5529319 57.447679,71 58,71" id="Fill-162"></path>
            <path d="M69,71 C69.552321,71 70,70.5529319 70,69.9996065 C70,69.4478552 69.552321,69 69,69 C68.447679,69 68,69.4478552 68,69.9996065 C68,70.5529319 68.447679,71 69,71" id="Fill-164"></path>
            <path d="M80,71 C80.552321,71 81,70.5529319 81,69.9996065 C81,69.4478552 80.552321,69 80,69 C79.447679,69 79,69.4478552 79,69.9996065 C79,70.5529319 79.447679,71 80,71" id="Fill-166"></path>
            <path d="M92,71 C92.552321,71 93,70.5529319 93,69.9996065 C93,69.4478552 92.552321,69 92,69 C91.447679,69 91,69.4478552 91,69.9996065 C91,70.5529319 91.447679,71 92,71" id="Fill-168"></path>
            <path d="M103,71 C103.552321,71 104,70.5529319 104,69.9996065 C104,69.4478552 103.552321,69 103,69 C102.447679,69 102,69.4478552 102,69.9996065 C102,70.5529319 102.447679,71 103,71" id="Fill-170"></path>
            <path d="M115,71 C115.552321,71 116,70.5529319 116,69.9996065 C116,69.4478552 115.552321,69 115,69 C114.447679,69 114,69.4478552 114,69.9996065 C114,70.5529319 114.447679,71 115,71" id="Fill-172"></path>
            <path d="M12,82 C12.552321,82 13,81.5529319 13,80.9996065 C13,80.4470681 12.552321,80 12,80 C11.447679,80 11,80.4470681 11,80.9996065 C11,81.5529319 11.447679,82 12,82" id="Fill-179"></path>
            <path d="M24,82 C24.552321,82 25,81.5529319 25,80.9996065 C25,80.4470681 24.552321,80 24,80 C23.447679,80 23,80.4470681 23,80.9996065 C23,81.5529319 23.447679,82 24,82" id="Fill-181"></path>
            <path d="M35,82 C35.552321,82 36,81.5529319 36,80.9996065 C36,80.4470681 35.552321,80 35,80 C34.447679,80 34,80.4470681 34,80.9996065 C34,81.5529319 34.447679,82 35,82" id="Fill-183"></path>
            <path d="M46,82 C46.552321,82 47,81.5529319 47,80.9996065 C47,80.4470681 46.552321,80 46,80 C45.447679,80 45,80.4470681 45,80.9996065 C45,81.5529319 45.447679,82 46,82" id="Fill-185"></path>
            <path d="M58,82 C58.552321,82 59,81.5529319 59,80.9996065 C59,80.4470681 58.552321,80 58,80 C57.447679,80 57,80.4470681 57,80.9996065 C57,81.5529319 57.447679,82 58,82" id="Fill-187"></path>
            <path d="M69,82 C69.552321,82 70,81.5529319 70,80.9996065 C70,80.4470681 69.552321,80 69,80 C68.447679,80 68,80.4470681 68,80.9996065 C68,81.5529319 68.447679,82 69,82" id="Fill-189"></path>
            <path d="M80,82 C80.552321,82 81,81.5529319 81,80.9996065 C81,80.4470681 80.552321,80 80,80 C79.447679,80 79,80.4470681 79,80.9996065 C79,81.5529319 79.447679,82 80,82" id="Fill-191"></path>
            <path d="M92,82 C92.552321,82 93,81.5529319 93,80.9996065 C93,80.4470681 92.552321,80 92,80 C91.447679,80 91,80.4470681 91,80.9996065 C91,81.5529319 91.447679,82 92,82" id="Fill-193"></path>
            <path d="M103,82 C103.552321,82 104,81.5529319 104,80.9996065 C104,80.4470681 103.552321,80 103,80 C102.447679,80 102,80.4470681 102,80.9996065 C102,81.5529319 102.447679,82 103,82" id="Fill-195"></path>
            <path d="M115,82 C115.552321,82 116,81.5529319 116,80.9996065 C116,80.4470681 115.552321,80 115,80 C114.447679,80 114,80.4470681 114,80.9996065 C114,81.5529319 114.447679,82 115,82" id="Fill-197"></path>
            <path d="M12,94 C12.552321,94 13,93.5521448 13,92.9996065 C13,92.4470681 12.552321,92 12,92 C11.447679,92 11,92.4470681 11,92.9996065 C11,93.5521448 11.447679,94 12,94" id="Fill-204"></path>
            <path d="M24,94 C24.552321,94 25,93.5521448 25,92.9996065 C25,92.4470681 24.552321,92 24,92 C23.447679,92 23,92.4470681 23,92.9996065 C23,93.5521448 23.447679,94 24,94" id="Fill-206"></path>
            <path d="M35,94 C35.552321,94 36,93.5521448 36,92.9996065 C36,92.4470681 35.552321,92 35,92 C34.447679,92 34,92.4470681 34,92.9996065 C34,93.5521448 34.447679,94 35,94" id="Fill-208"></path>
            <path d="M46,94 C46.552321,94 47,93.5521448 47,92.9996065 C47,92.4470681 46.552321,92 46,92 C45.447679,92 45,92.4470681 45,92.9996065 C45,93.5521448 45.447679,94 46,94" id="Fill-210"></path>
            <path d="M58,94 C58.552321,94 59,93.5521448 59,92.9996065 C59,92.4470681 58.552321,92 58,92 C57.447679,92 57,92.4470681 57,92.9996065 C57,93.5521448 57.447679,94 58,94" id="Fill-212"></path>
            <path d="M69,94 C69.552321,94 70,93.5521448 70,92.9996065 C70,92.4470681 69.552321,92 69,92 C68.447679,92 68,92.4470681 68,92.9996065 C68,93.5521448 68.447679,94 69,94" id="Fill-214"></path>
            <path d="M80,94 C80.552321,94 81,93.5521448 81,92.9996065 C81,92.4470681 80.552321,92 80,92 C79.447679,92 79,92.4470681 79,92.9996065 C79,93.5521448 79.447679,94 80,94" id="Fill-216"></path>
            <path d="M92,94 C92.552321,94 93,93.5521448 93,92.9996065 C93,92.4470681 92.552321,92 92,92 C91.447679,92 91,92.4470681 91,92.9996065 C91,93.5521448 91.447679,94 92,94" id="Fill-218"></path>
            <path d="M103,94 C103.552321,94 104,93.5521448 104,92.9996065 C104,92.4470681 103.552321,92 103,92 C102.447679,92 102,92.4470681 102,92.9996065 C102,93.5521448 102.447679,94 103,94" id="Fill-220"></path>
            <path d="M115,94 C115.552321,94 116,93.5521448 116,92.9996065 C116,92.4470681 115.552321,92 115,92 C114.447679,92 114,92.4470681 114,92.9996065 C114,93.5521448 114.447679,94 115,94" id="Fill-222"></path>
            <path d="M12,105 C12.552321,105 13,104.552321 13,104 C13,103.447679 12.552321,103 12,103 C11.447679,103 11,103.447679 11,104 C11,104.552321 11.447679,105 12,105" id="Fill-229"></path>
            <path d="M24,105 C24.552321,105 25,104.552321 25,104 C25,103.447679 24.552321,103 24,103 C23.447679,103 23,103.447679 23,104 C23,104.552321 23.447679,105 24,105" id="Fill-231"></path>
            <path d="M35,105 C35.552321,105 36,104.552321 36,104 C36,103.447679 35.552321,103 35,103 C34.447679,103 34,103.447679 34,104 C34,104.552321 34.447679,105 35,105" id="Fill-233"></path>
            <path d="M46,105 C46.552321,105 47,104.552321 47,104 C47,103.447679 46.552321,103 46,103 C45.447679,103 45,103.447679 45,104 C45,104.552321 45.447679,105 46,105" id="Fill-235"></path>
            <path d="M58,105 C58.552321,105 59,104.552321 59,104 C59,103.447679 58.552321,103 58,103 C57.447679,103 57,103.447679 57,104 C57,104.552321 57.447679,105 58,105" id="Fill-237"></path>
            <path d="M69,105 C69.552321,105 70,104.552321 70,104 C70,103.447679 69.552321,103 69,103 C68.447679,103 68,103.447679 68,104 C68,104.552321 68.447679,105 69,105" id="Fill-239"></path>
            <path d="M80,105 C80.552321,105 81,104.552321 81,104 C81,103.447679 80.552321,103 80,103 C79.447679,103 79,103.447679 79,104 C79,104.552321 79.447679,105 80,105" id="Fill-241"></path>
            <path d="M92,105 C92.552321,105 93,104.552321 93,104 C93,103.447679 92.552321,103 92,103 C91.447679,103 91,103.447679 91,104 C91,104.552321 91.447679,105 92,105" id="Fill-243"></path>
            <path d="M103,105 C103.552321,105 104,104.552321 104,104 C104,103.447679 103.552321,103 103,103 C102.447679,103 102,103.447679 102,104 C102,104.552321 102.447679,105 103,105" id="Fill-245"></path>
            <path d="M115,105 C115.552321,105 116,104.552321 116,104 C116,103.447679 115.552321,103 115,103 C114.447679,103 114,103.447679 114,104 C114,104.552321 114.447679,105 115,105" id="Fill-247"></path>
            <path d="M12,117 C12.552321,117 13,116.552932 13,115.999606 C13,115.447855 12.552321,115 12,115 C11.447679,115 11,115.447855 11,115.999606 C11,116.552932 11.447679,117 12,117" id="Fill-254"></path>
            <path d="M24,117 C24.552321,117 25,116.552932 25,115.999606 C25,115.447855 24.552321,115 24,115 C23.447679,115 23,115.447855 23,115.999606 C23,116.552932 23.447679,117 24,117" id="Fill-256"></path>
            <path d="M35,117 C35.552321,117 36,116.552932 36,115.999606 C36,115.447855 35.552321,115 35,115 C34.447679,115 34,115.447855 34,115.999606 C34,116.552932 34.447679,117 35,117" id="Fill-258"></path>
            <path d="M46,117 C46.552321,117 47,116.552932 47,115.999606 C47,115.447855 46.552321,115 46,115 C45.447679,115 45,115.447855 45,115.999606 C45,116.552932 45.447679,117 46,117" id="Fill-260"></path>
            <path d="M58,117 C58.552321,117 59,116.552932 59,115.999606 C59,115.447855 58.552321,115 58,115 C57.447679,115 57,115.447855 57,115.999606 C57,116.552932 57.447679,117 58,117" id="Fill-262"></path>
            <path d="M69,117 C69.552321,117 70,116.552932 70,115.999606 C70,115.447855 69.552321,115 69,115 C68.447679,115 68,115.447855 68,115.999606 C68,116.552932 68.447679,117 69,117" id="Fill-264"></path>
            <path d="M80,117 C80.552321,117 81,116.552932 81,115.999606 C81,115.447855 80.552321,115 80,115 C79.447679,115 79,115.447855 79,115.999606 C79,116.552932 79.447679,117 80,117" id="Fill-266"></path>
            <path d="M92,117 C92.552321,117 93,116.552932 93,115.999606 C93,115.447855 92.552321,115 92,115 C91.447679,115 91,115.447855 91,115.999606 C91,116.552932 91.447679,117 92,117" id="Fill-268"></path>
            <path d="M103,117 C103.552321,117 104,116.552932 104,115.999606 C104,115.447855 103.552321,115 103,115 C102.447679,115 102,115.447855 102,115.999606 C102,116.552932 102.447679,117 103,117" id="Fill-270"></path>
            <path d="M115,117 C115.552321,117 116,116.552932 116,115.999606 C116,115.447855 115.552321,115 115,115 C114.447679,115 114,115.447855 114,115.999606 C114,116.552932 114.447679,117 115,117" id="Fill-272"></path>
            <path d="M12,128 C12.552321,128 13,127.552932 13,126.999606 C13,126.447855 12.552321,126 12,126 C11.447679,126 11,126.447855 11,126.999606 C11,127.552932 11.447679,128 12,128" id="Fill-279"></path>
            <path d="M24,128 C24.552321,128 25,127.552932 25,126.999606 C25,126.447855 24.552321,126 24,126 C23.447679,126 23,126.447855 23,126.999606 C23,127.552932 23.447679,128 24,128" id="Fill-281"></path>
            <path d="M35,128 C35.552321,128 36,127.552932 36,126.999606 C36,126.447855 35.552321,126 35,126 C34.447679,126 34,126.447855 34,126.999606 C34,127.552932 34.447679,128 35,128" id="Fill-283"></path>
            <path d="M46,128 C46.552321,128 47,127.552932 47,126.999606 C47,126.447855 46.552321,126 46,126 C45.447679,126 45,126.447855 45,126.999606 C45,127.552932 45.447679,128 46,128" id="Fill-285"></path>
            <path d="M58,128 C58.552321,128 59,127.552932 59,126.999606 C59,126.447855 58.552321,126 58,126 C57.447679,126 57,126.447855 57,126.999606 C57,127.552932 57.447679,128 58,128" id="Fill-287"></path>
            <path d="M69,128 C69.552321,128 70,127.552932 70,126.999606 C70,126.447855 69.552321,126 69,126 C68.447679,126 68,126.447855 68,126.999606 C68,127.552932 68.447679,128 69,128" id="Fill-289"></path>
            <path d="M80,128 C80.552321,128 81,127.552932 81,126.999606 C81,126.447855 80.552321,126 80,126 C79.447679,126 79,126.447855 79,126.999606 C79,127.552932 79.447679,128 80,128" id="Fill-291"></path>
            <path d="M92,128 C92.552321,128 93,127.552932 93,126.999606 C93,126.447855 92.552321,126 92,126 C91.447679,126 91,126.447855 91,126.999606 C91,127.552932 91.447679,128 92,128" id="Fill-293"></path>
            <path d="M103,128 C103.552321,128 104,127.552932 104,126.999606 C104,126.447855 103.552321,126 103,126 C102.447679,126 102,126.447855 102,126.999606 C102,127.552932 102.447679,128 103,128" id="Fill-295"></path>
            <path d="M115,128 C115.552321,128 116,127.552932 116,126.999606 C116,126.447855 115.552321,126 115,126 C114.447679,126 114,126.447855 114,126.999606 C114,127.552932 114.447679,128 115,128" id="Fill-297"></path>
        </g>
    </g>
</svg>