<?xml version="1.0" encoding="UTF-8"?>
<svg width="120px" height="18px" viewBox="0 0 120 18" version="1.1" xmlns="http://www.w3.org/2000/svg" xmlns:xlink="http://www.w3.org/1999/xlink">
    <!-- Generator: Sketch 51.3 (57544) - http://www.bohemiancoding.com/sketch -->
    <title>Fill 1</title>
    <desc>Created with Sketch.</desc>
    <defs></defs>
    <g id="Page-1" stroke="none" stroke-width="1" fill="none" fill-rule="evenodd">
        <g id="Group-3" transform="translate(60.000000, 9.000000) rotate(-270.000000) translate(-60.000000, -9.000000) translate(51.000000, -51.000000)" fill="#262626">
            <path d="M14.9767579,120 C14.2846628,120 13.5897657,119.752935 13.0489788,119.257454 L0.872868787,108.117915 C0.313868912,107.606233 -0.0027575839,106.894739 4.44204903e-05,106.150843 C0.00284642488,105.406947 0.323675927,104.698153 0.886878809,104.189172 L11.0315357,95.0356052 L0.844848743,85.4540622 C0.302660894,84.9423806 -0.0027575839,84.2430373 4.44204903e-05,83.5126421 C0.00284642488,82.7822469 0.31246791,82.0829036 0.858858765,81.5766223 L11.0609567,72.1125366 L0.844848743,62.502642 C0.302660894,61.9909603 -0.0027575839,61.291617 4.44204903e-05,60.5612218 C0.00284642488,59.8308266 0.31246791,59.1314833 0.858858765,58.625202 L11.0609567,49.1611164 L0.844848743,39.5512217 C0.302660894,39.03954 -0.0027575839,38.3401967 4.44204903e-05,37.6098015 C0.00284642488,36.8794063 0.31246791,36.1800631 0.858858765,35.6737817 L11.0875758,26.1853946 L0.818229701,16.2609304 C0.290051874,15.7505989 -0.00415858609,15.058006 4.44204903e-05,14.3357113 C0.00564842926,13.6147667 0.309665905,12.924874 0.846249745,12.4212928 L13.2409161,0.767371668 C14.3491089,-0.272192662 16.1213767,-0.254641576 17.2029503,0.814624592 C18.283123,1.88119059 18.262108,3.59039636 17.1539153,4.63266086 L6.78649904,14.3816141 L16.4197901,23.6904402 C17.0334291,23.978008 17.5307849,24.4761888 17.7969753,25.1107281 C18.2242809,26.1327413 17.9636945,27.3019137 17.1413063,28.066061 L6.82852911,37.6314029 L16.3917701,46.6283596 C17.0180181,46.9132273 17.5265819,47.4168084 17.7969753,48.0621484 C18.2242809,49.0841616 17.9636945,50.2533339 17.1413063,51.0174812 L6.82852911,60.5828232 L16.3917701,69.5797799 C17.0180181,69.8646475 17.5265819,70.3682287 17.7969753,71.0135686 C18.2242809,72.0355819 17.9636945,73.2047542 17.1413063,73.9689015 L6.82852911,83.5342434 L16.3917701,92.5312002 C17.0236221,92.818768 17.5363889,93.3304496 17.8039803,93.98254 C18.225682,95.0126537 17.9524865,96.1872264 17.1132862,96.9459734 L6.8873712,106.173794 L16.9059379,115.342212 C18.0295416,116.369625 18.0743737,118.077481 17.009612,119.158898 C16.4590182,119.717833 15.717888,120 14.9767579,120" id="Fill-1"></path>
        </g>
    </g>
</svg>