<?xml version="1.0" encoding="UTF-8"?>
<svg width="94px" height="48px" viewBox="0 0 94 48" version="1.1" xmlns="http://www.w3.org/2000/svg" xmlns:xlink="http://www.w3.org/1999/xlink">
    <!-- Generator: Sketch 51.3 (57544) - http://www.bohemiancoding.com/sketch -->
    <title>Group 2</title>
    <desc>Created with Sketch.</desc>
    <defs></defs>
    <g id="Page-1" stroke="none" stroke-width="1" fill="none" fill-rule="evenodd">
        <g id="Artboard" transform="translate(-457.000000, -318.000000)" fill="#29FF9C">
            <g id="Group-2" transform="translate(504.000000, 342.000000) rotate(-270.000000) translate(-504.000000, -342.000000) translate(480.000000, 295.000000)">
                <path d="M3.79673882,93.2176974 C3.24173882,93.2176974 2.68973882,92.9886974 2.29373882,92.5376974 C-0.798261176,89.0196974 -0.759261176,83.5006974 2.38073882,79.9746974 C4.09873882,78.0466974 4.05873882,74.7206974 2.29373882,72.7106974 C-0.798261176,69.1916974 -0.759261176,63.6726974 2.38173882,60.1486974 C4.09873882,58.2196974 4.05873882,54.8946974 2.29373882,52.8856974 C-0.798261176,49.3646974 -0.759261176,43.8466974 2.38173882,40.3226974 C4.09873882,38.3946974 4.05873882,35.0676974 2.29373882,33.0576974 C-0.798261176,29.5396974 -0.759261176,24.0216974 2.38073882,20.4946974 C4.09873882,18.5676974 4.05873882,15.2406974 2.29373882,13.2316974 C-0.797261176,9.71269736 -0.759261176,4.19469736 2.38073882,0.668697363 C3.11673882,-0.155302637 4.38173882,-0.227302637 5.20473882,0.505697363 C6.02973882,1.23969736 6.10273882,2.50469736 5.36873882,3.32869736 C3.60773882,5.30569736 3.57673882,8.63069736 5.29873882,10.5916974 C8.43473882,14.1616974 8.46473882,19.6806974 5.36773882,23.1556974 C3.60773882,25.1316974 3.57573882,28.4576974 5.29873882,30.4176974 C8.43373882,33.9886974 8.46373882,39.5066974 5.36873882,42.9826974 C3.60773882,44.9576974 3.57573882,48.2836974 5.29873882,50.2456974 C8.43373882,53.8136974 8.46473882,59.3316974 5.36873882,62.8086974 C3.60773882,64.7836974 3.57573882,68.1106974 5.29873882,70.0726974 C8.43373882,73.6406974 8.46373882,79.1586974 5.36873882,82.6346974 C3.60773882,84.6116974 3.57573882,87.9376974 5.29873882,89.8976974 C6.02773882,90.7276974 5.94573882,91.9906974 5.11673882,92.7206974 C4.73673882,93.0536974 4.26573882,93.2176974 3.79673882,93.2176974" id="Fill-7411"></path>
                <path d="M11.7967388,93.2176974 C11.2417388,93.2176974 10.6897388,92.9886974 10.2937388,92.5376974 C7.20173882,89.0196974 7.24073882,83.5006974 10.3807388,79.9746974 C12.0987388,78.0466974 12.0587388,74.7206974 10.2937388,72.7106974 C7.20173882,69.1916974 7.24073882,63.6726974 10.3817388,60.1486974 C12.0987388,58.2196974 12.0587388,54.8946974 10.2937388,52.8856974 C7.20173882,49.3646974 7.24073882,43.8466974 10.3817388,40.3226974 C12.0987388,38.3946974 12.0587388,35.0676974 10.2937388,33.0576974 C7.20173882,29.5396974 7.24073882,24.0216974 10.3807388,20.4946974 C12.0987388,18.5676974 12.0587388,15.2406974 10.2937388,13.2316974 C7.20273882,9.71269736 7.24073882,4.19469736 10.3807388,0.668697363 C11.1177388,-0.155302637 12.3827388,-0.227302637 13.2047388,0.505697363 C14.0297388,1.23969736 14.1027388,2.50469736 13.3687388,3.32869736 C11.6077388,5.30569736 11.5767388,8.63069736 13.2987388,10.5916974 C16.4347388,14.1616974 16.4647388,19.6806974 13.3677388,23.1556974 C11.6077388,25.1316974 11.5757388,28.4576974 13.2987388,30.4176974 C16.4337388,33.9886974 16.4637388,39.5066974 13.3687388,42.9826974 C11.6077388,44.9576974 11.5757388,48.2836974 13.2987388,50.2456974 C16.4337388,53.8136974 16.4647388,59.3316974 13.3687388,62.8086974 C11.6077388,64.7836974 11.5757388,68.1106974 13.2987388,70.0726974 C16.4337388,73.6406974 16.4637388,79.1586974 13.3687388,82.6346974 C11.6077388,84.6116974 11.5757388,87.9376974 13.2987388,89.8976974 C14.0277388,90.7276974 13.9457388,91.9906974 13.1167388,92.7206974 C12.7367388,93.0536974 12.2657388,93.2176974 11.7967388,93.2176974" id="Fill-7412"></path>
                <path d="M19.7967388,93.2176974 C19.2417388,93.2176974 18.6897388,92.9886974 18.2937388,92.5376974 C15.2017388,89.0196974 15.2407388,83.5006974 18.3807388,79.9746974 C20.0987388,78.0466974 20.0587388,74.7206974 18.2937388,72.7106974 C15.2017388,69.1916974 15.2407388,63.6726974 18.3817388,60.1486974 C20.0987388,58.2196974 20.0587388,54.8946974 18.2937388,52.8856974 C15.2017388,49.3646974 15.2407388,43.8466974 18.3817388,40.3226974 C20.0987388,38.3946974 20.0587388,35.0676974 18.2937388,33.0576974 C15.2017388,29.5396974 15.2407388,24.0216974 18.3807388,20.4946974 C20.0987388,18.5676974 20.0587388,15.2406974 18.2937388,13.2316974 C15.2027388,9.71269736 15.2407388,4.19469736 18.3807388,0.668697363 C19.1177388,-0.155302637 20.3817388,-0.227302637 21.2047388,0.505697363 C22.0297388,1.23969736 22.1027388,2.50469736 21.3687388,3.32869736 C19.6077388,5.30569736 19.5767388,8.63069736 21.2987388,10.5916974 C24.4347388,14.1616974 24.4647388,19.6806974 21.3677388,23.1556974 C19.6077388,25.1316974 19.5757388,28.4576974 21.2987388,30.4176974 C24.4337388,33.9886974 24.4637388,39.5066974 21.3687388,42.9826974 C19.6077388,44.9576974 19.5757388,48.2836974 21.2987388,50.2456974 C24.4337388,53.8136974 24.4647388,59.3316974 21.3687388,62.8086974 C19.6077388,64.7836974 19.5757388,68.1106974 21.2987388,70.0726974 C24.4337388,73.6406974 24.4637388,79.1586974 21.3687388,82.6346974 C19.6077388,84.6116974 19.5757388,87.9376974 21.2987388,89.8976974 C22.0277388,90.7276974 21.9457388,91.9906974 21.1167388,92.7206974 C20.7367388,93.0536974 20.2657388,93.2176974 19.7967388,93.2176974" id="Fill-7413"></path>
                <path d="M27.7967388,93.2176974 C27.2417388,93.2176974 26.6897388,92.9886974 26.2937388,92.5376974 C23.2017388,89.0196974 23.2407388,83.5006974 26.3807388,79.9746974 C28.0987388,78.0466974 28.0587388,74.7206974 26.2937388,72.7106974 C23.2017388,69.1916974 23.2407388,63.6726974 26.3817388,60.1486974 C28.0987388,58.2196974 28.0587388,54.8946974 26.2937388,52.8856974 C23.2017388,49.3646974 23.2407388,43.8466974 26.3817388,40.3226974 C28.0987388,38.3946974 28.0587388,35.0676974 26.2937388,33.0576974 C23.2017388,29.5396974 23.2407388,24.0216974 26.3807388,20.4946974 C28.0987388,18.5676974 28.0587388,15.2406974 26.2937388,13.2316974 C23.2027388,9.71269736 23.2407388,4.19469736 26.3807388,0.668697363 C27.1167388,-0.155302637 28.3817388,-0.227302637 29.2047388,0.505697363 C30.0297388,1.23969736 30.1027388,2.50469736 29.3687388,3.32869736 C27.6077388,5.30569736 27.5767388,8.63069736 29.2987388,10.5916974 C32.4347388,14.1616974 32.4647388,19.6806974 29.3677388,23.1556974 C27.6077388,25.1316974 27.5757388,28.4576974 29.2987388,30.4176974 C32.4337388,33.9886974 32.4637388,39.5066974 29.3687388,42.9826974 C27.6077388,44.9576974 27.5757388,48.2836974 29.2987388,50.2456974 C32.4337388,53.8136974 32.4647388,59.3316974 29.3687388,62.8086974 C27.6077388,64.7836974 27.5757388,68.1106974 29.2987388,70.0726974 C32.4337388,73.6406974 32.4637388,79.1586974 29.3687388,82.6346974 C27.6077388,84.6116974 27.5757388,87.9376974 29.2987388,89.8976974 C30.0277388,90.7276974 29.9457388,91.9906974 29.1167388,92.7206974 C28.7367388,93.0536974 28.2657388,93.2176974 27.7967388,93.2176974" id="Fill-7414"></path>
                <path d="M35.7967388,93.2176974 C35.2417388,93.2176974 34.6897388,92.9886974 34.2937388,92.5376974 C31.2017388,89.0196974 31.2407388,83.5006974 34.3807388,79.9746974 C36.0987388,78.0466974 36.0587388,74.7206974 34.2937388,72.7106974 C31.2017388,69.1916974 31.2407388,63.6726974 34.3817388,60.1486974 C36.0987388,58.2196974 36.0587388,54.8946974 34.2937388,52.8856974 C31.2017388,49.3646974 31.2407388,43.8466974 34.3817388,40.3226974 C36.0987388,38.3946974 36.0587388,35.0676974 34.2937388,33.0576974 C31.2017388,29.5396974 31.2407388,24.0216974 34.3807388,20.4946974 C36.0987388,18.5676974 36.0587388,15.2406974 34.2937388,13.2316974 C31.2027388,9.71269736 31.2407388,4.19469736 34.3807388,0.668697363 C35.1177388,-0.155302637 36.3827388,-0.227302637 37.2047388,0.505697363 C38.0297388,1.23969736 38.1027388,2.50469736 37.3687388,3.32869736 C35.6077388,5.30569736 35.5767388,8.63069736 37.2987388,10.5916974 C40.4347388,14.1616974 40.4647388,19.6806974 37.3677388,23.1556974 C35.6077388,25.1316974 35.5757388,28.4576974 37.2987388,30.4176974 C40.4337388,33.9886974 40.4637388,39.5066974 37.3687388,42.9826974 C35.6077388,44.9576974 35.5757388,48.2836974 37.2987388,50.2456974 C40.4337388,53.8136974 40.4647388,59.3316974 37.3687388,62.8086974 C35.6077388,64.7836974 35.5757388,68.1106974 37.2987388,70.0726974 C40.4337388,73.6406974 40.4637388,79.1586974 37.3687388,82.6346974 C35.6077388,84.6116974 35.5757388,87.9376974 37.2987388,89.8976974 C38.0277388,90.7276974 37.9457388,91.9906974 37.1167388,92.7206974 C36.7367388,93.0536974 36.2657388,93.2176974 35.7967388,93.2176974" id="Fill-7415"></path>
                <path d="M43.7967388,93.2176974 C43.2417388,93.2176974 42.6897388,92.9886974 42.2937388,92.5376974 C39.2017388,89.0196974 39.2407388,83.5006974 42.3807388,79.9746974 C44.0987388,78.0466974 44.0587388,74.7206974 42.2937388,72.7106974 C39.2017388,69.1916974 39.2407388,63.6726974 42.3817388,60.1486974 C44.0987388,58.2196974 44.0587388,54.8946974 42.2937388,52.8856974 C39.2017388,49.3646974 39.2407388,43.8466974 42.3817388,40.3226974 C44.0987388,38.3946974 44.0587388,35.0676974 42.2937388,33.0576974 C39.2017388,29.5396974 39.2407388,24.0216974 42.3807388,20.4946974 C44.0987388,18.5676974 44.0587388,15.2406974 42.2937388,13.2316974 C39.2027388,9.71269736 39.2407388,4.19469736 42.3807388,0.668697363 C43.1177388,-0.155302637 44.3817388,-0.227302637 45.2047388,0.505697363 C46.0297388,1.23969736 46.1027388,2.50469736 45.3687388,3.32869736 C43.6077388,5.30569736 43.5767388,8.63069736 45.2987388,10.5916974 C48.4347388,14.1616974 48.4647388,19.6806974 45.3677388,23.1556974 C43.6077388,25.1316974 43.5757388,28.4576974 45.2987388,30.4176974 C48.4337388,33.9886974 48.4637388,39.5066974 45.3687388,42.9826974 C43.6077388,44.9576974 43.5757388,48.2836974 45.2987388,50.2456974 C48.4337388,53.8136974 48.4647388,59.3316974 45.3687388,62.8086974 C43.6077388,64.7836974 43.5757388,68.1106974 45.2987388,70.0726974 C48.4337388,73.6406974 48.4637388,79.1586974 45.3687388,82.6346974 C43.6077388,84.6116974 43.5757388,87.9376974 45.2987388,89.8976974 C46.0277388,90.7276974 45.9457388,91.9906974 45.1167388,92.7206974 C44.7367388,93.0536974 44.2657388,93.2176974 43.7967388,93.2176974" id="Fill-7416"></path>
            </g>
        </g>
    </g>
</svg>