<?xml version="1.0" encoding="UTF-8"?>
<svg width="91px" height="82px" viewBox="0 0 91 82" version="1.1" xmlns="http://www.w3.org/2000/svg" xmlns:xlink="http://www.w3.org/1999/xlink">
    <!-- Generator: Sketch 51.3 (57544) - http://www.bohemiancoding.com/sketch -->
    <title>Group 271</title>
    <desc>Created with Sketch.</desc>
    <defs>
        <polygon id="path-1" points="0 0.945 1.5107 0.945 1.5107 2.456 0 2.456"></polygon>
        <polygon id="path-3" points="0 0.4319 1.5107 0.4319 1.5107 1.9429 0 1.9429"></polygon>
        <polygon id="path-5" points="0 0.9182 1.5107 0.9182 1.5107 2.4292 0 2.4292"></polygon>
        <polygon id="path-7" points="0 0.405 1.5107 0.405 1.5107 1.916 0 1.916"></polygon>
        <polygon id="path-9" points="0 0.8918 1.5107 0.8918 1.5107 2.4028 0 2.4028"></polygon>
        <polygon id="path-11" points="0 0.3781 1.5107 0.3781 1.5107 1.8891 0 1.8891"></polygon>
        <polygon id="path-13" points="0 0.865 1.5107 0.865 1.5107 2.376 0 2.376"></polygon>
        <polygon id="path-15" points="0 0.3518 1.5107 0.3518 1.5107 1.8628 0 1.8628"></polygon>
        <polygon id="path-17" points="0 0.8381 1.5107 0.8381 1.5107 2.3491 0 2.3491"></polygon>
        <polygon id="path-19" points="0.5321 0.471425988 41.532 0.471425988 41.532 69 0.5321 69"></polygon>
    </defs>
    <g id="Page-1" stroke="none" stroke-width="1" fill="none" fill-rule="evenodd">
        <g id="Group-271">
            <path d="M20.2157,10.4756 C20.6327,10.4756 20.9707,10.1376 20.9707,9.7206 C20.9707,9.3026 20.6327,8.9646 20.2157,8.9646 C19.7987,8.9646 19.4597,9.3026 19.4597,9.7206 C19.4597,10.1376 19.7987,10.4756 20.2157,10.4756" id="Fill-1" fill="#262626"></path>
            <path d="M26.702,10.4756 C27.119,10.4756 27.457,10.1376 27.457,9.7206 C27.457,9.3026 27.119,8.9646 26.702,8.9646 C26.285,8.9646 25.947,9.3026 25.947,9.7206 C25.947,10.1376 26.285,10.4756 26.702,10.4756" id="Fill-3" fill="#262626"></path>
            <path d="M33.1888,10.4756 C33.6058,10.4756 33.9438,10.1376 33.9438,9.7206 C33.9438,9.3026 33.6058,8.9646 33.1888,8.9646 C32.7718,8.9646 32.4338,9.3026 32.4338,9.7206 C32.4338,10.1376 32.7718,10.4756 33.1888,10.4756" id="Fill-5" fill="#262626"></path>
            <path d="M39.6752,10.4756 C40.0922,10.4756 40.4312,10.1376 40.4312,9.7206 C40.4312,9.3026 40.0922,8.9646 39.6752,8.9646 C39.2582,8.9646 38.9202,9.3026 38.9202,9.7206 C38.9202,10.1376 39.2582,10.4756 39.6752,10.4756" id="Fill-7" fill="#262626"></path>
            <path d="M46.162,10.4756 C46.579,10.4756 46.917,10.1376 46.917,9.7206 C46.917,9.3026 46.579,8.9646 46.162,8.9646 C45.745,8.9646 45.407,9.3026 45.407,9.7206 C45.407,10.1376 45.745,10.4756 46.162,10.4756" id="Fill-9" fill="#262626"></path>
            <path d="M52.6488,10.4756 C53.0658,10.4756 53.4038,10.1376 53.4038,9.7206 C53.4038,9.3026 53.0658,8.9646 52.6488,8.9646 C52.2318,8.9646 51.8938,9.3026 51.8938,9.7206 C51.8938,10.1376 52.2318,10.4756 52.6488,10.4756" id="Fill-11" fill="#262626"></path>
            <path d="M20.2157,16.9619 C20.6327,16.9619 20.9707,16.6239 20.9707,16.2069 C20.9707,15.7899 20.6327,15.4509 20.2157,15.4509 C19.7987,15.4509 19.4597,15.7899 19.4597,16.2069 C19.4597,16.6239 19.7987,16.9619 20.2157,16.9619" id="Fill-13" fill="#262626"></path>
            <path d="M26.702,16.9619 C27.119,16.9619 27.457,16.6239 27.457,16.2069 C27.457,15.7899 27.119,15.4509 26.702,15.4509 C26.285,15.4509 25.947,15.7899 25.947,16.2069 C25.947,16.6239 26.285,16.9619 26.702,16.9619" id="Fill-15" fill="#262626"></path>
            <path d="M33.1888,16.9619 C33.6058,16.9619 33.9438,16.6239 33.9438,16.2069 C33.9438,15.7899 33.6058,15.4509 33.1888,15.4509 C32.7718,15.4509 32.4338,15.7899 32.4338,16.2069 C32.4338,16.6239 32.7718,16.9619 33.1888,16.9619" id="Fill-17" fill="#262626"></path>
            <path d="M39.6752,16.9619 C40.0922,16.9619 40.4312,16.6239 40.4312,16.2069 C40.4312,15.7899 40.0922,15.4509 39.6752,15.4509 C39.2582,15.4509 38.9202,15.7899 38.9202,16.2069 C38.9202,16.6239 39.2582,16.9619 39.6752,16.9619" id="Fill-19" fill="#262626"></path>
            <path d="M46.162,16.9619 C46.579,16.9619 46.917,16.6239 46.917,16.2069 C46.917,15.7899 46.579,15.4509 46.162,15.4509 C45.745,15.4509 45.407,15.7899 45.407,16.2069 C45.407,16.6239 45.745,16.9619 46.162,16.9619" id="Fill-21" fill="#262626"></path>
            <path d="M52.6488,16.9619 C53.0658,16.9619 53.4038,16.6239 53.4038,16.2069 C53.4038,15.7899 53.0658,15.4509 52.6488,15.4509 C52.2318,15.4509 51.8938,15.7899 51.8938,16.2069 C51.8938,16.6239 52.2318,16.9619 52.6488,16.9619" id="Fill-23" fill="#262626"></path>
            <g id="Group-27" transform="translate(0.000000, 20.992700)">
                <mask id="mask-2" fill="white">
                    <use xlink:href="#path-1"></use>
                </mask>
                <g id="Clip-26"></g>
                <path d="M0.7557,2.456 C1.1727,2.456 1.5107,2.118 1.5107,1.701 C1.5107,1.283 1.1727,0.945 0.7557,0.945 C0.3387,0.945 -0.0003,1.283 -0.0003,1.701 C-0.0003,2.118 0.3387,2.456 0.7557,2.456" id="Fill-25" fill="#262626" mask="url(#mask-2)"></path>
            </g>
            <path d="M7.2421,23.4487 C7.6591,23.4487 7.9971,23.1107 7.9971,22.6937 C7.9971,22.2757 7.6591,21.9377 7.2421,21.9377 C6.8251,21.9377 6.4871,22.2757 6.4871,22.6937 C6.4871,23.1107 6.8251,23.4487 7.2421,23.4487" id="Fill-28" fill="#262626"></path>
            <path d="M13.7289,23.4487 C14.1459,23.4487 14.4839,23.1107 14.4839,22.6937 C14.4839,22.2757 14.1459,21.9377 13.7289,21.9377 C13.3119,21.9377 12.9739,22.2757 12.9739,22.6937 C12.9739,23.1107 13.3119,23.4487 13.7289,23.4487" id="Fill-30" fill="#262626"></path>
            <path d="M20.2157,23.4487 C20.6327,23.4487 20.9707,23.1107 20.9707,22.6937 C20.9707,22.2757 20.6327,21.9377 20.2157,21.9377 C19.7987,21.9377 19.4597,22.2757 19.4597,22.6937 C19.4597,23.1107 19.7987,23.4487 20.2157,23.4487" id="Fill-32" fill="#262626"></path>
            <path d="M26.702,23.4487 C27.119,23.4487 27.457,23.1107 27.457,22.6937 C27.457,22.2757 27.119,21.9377 26.702,21.9377 C26.285,21.9377 25.947,22.2757 25.947,22.6937 C25.947,23.1107 26.285,23.4487 26.702,23.4487" id="Fill-34" fill="#262626"></path>
            <path d="M33.1888,23.4487 C33.6058,23.4487 33.9438,23.1107 33.9438,22.6937 C33.9438,22.2757 33.6058,21.9377 33.1888,21.9377 C32.7718,21.9377 32.4338,22.2757 32.4338,22.6937 C32.4338,23.1107 32.7718,23.4487 33.1888,23.4487" id="Fill-36" fill="#262626"></path>
            <path d="M39.6752,23.4487 C40.0922,23.4487 40.4312,23.1107 40.4312,22.6937 C40.4312,22.2757 40.0922,21.9377 39.6752,21.9377 C39.2582,21.9377 38.9202,22.2757 38.9202,22.6937 C38.9202,23.1107 39.2582,23.4487 39.6752,23.4487" id="Fill-38" fill="#262626"></path>
            <path d="M46.162,23.4487 C46.579,23.4487 46.917,23.1107 46.917,22.6937 C46.917,22.2757 46.579,21.9377 46.162,21.9377 C45.745,21.9377 45.407,22.2757 45.407,22.6937 C45.407,23.1107 45.745,23.4487 46.162,23.4487" id="Fill-40" fill="#262626"></path>
            <path d="M52.6488,23.4487 C53.0658,23.4487 53.4038,23.1107 53.4038,22.6937 C53.4038,22.2757 53.0658,21.9377 52.6488,21.9377 C52.2318,21.9377 51.8938,22.2757 51.8938,22.6937 C51.8938,23.1107 52.2318,23.4487 52.6488,23.4487" id="Fill-42" fill="#262626"></path>
            <path d="M59.1356,23.4487 C59.5526,23.4487 59.8906,23.1107 59.8906,22.6937 C59.8906,22.2757 59.5526,21.9377 59.1356,21.9377 C58.7186,21.9377 58.3796,22.2757 58.3796,22.6937 C58.3796,23.1107 58.7186,23.4487 59.1356,23.4487" id="Fill-44" fill="#262626"></path>
            <path d="M65.6219,23.4487 C66.0389,23.4487 66.3769,23.1107 66.3769,22.6937 C66.3769,22.2757 66.0389,21.9377 65.6219,21.9377 C65.2049,21.9377 64.8669,22.2757 64.8669,22.6937 C64.8669,23.1107 65.2049,23.4487 65.6219,23.4487" id="Fill-46" fill="#262626"></path>
            <path d="M72.1088,23.4487 C72.5258,23.4487 72.8638,23.1107 72.8638,22.6937 C72.8638,22.2757 72.5258,21.9377 72.1088,21.9377 C71.6918,21.9377 71.3538,22.2757 71.3538,22.6937 C71.3538,23.1107 71.6918,23.4487 72.1088,23.4487" id="Fill-48" fill="#262626"></path>
            <g id="Group-52" transform="translate(0.000000, 27.992700)">
                <mask id="mask-4" fill="white">
                    <use xlink:href="#path-3"></use>
                </mask>
                <g id="Clip-51"></g>
                <path d="M0.7557,1.9429 C1.1727,1.9429 1.5107,1.6049 1.5107,1.1869 C1.5107,0.7699 1.1727,0.4319 0.7557,0.4319 C0.3387,0.4319 -0.0003,0.7699 -0.0003,1.1869 C-0.0003,1.6049 0.3387,1.9429 0.7557,1.9429" id="Fill-50" fill="#262626" mask="url(#mask-4)"></path>
            </g>
            <path d="M7.2421,29.9356 C7.6591,29.9356 7.9971,29.5976 7.9971,29.1796 C7.9971,28.7626 7.6591,28.4246 7.2421,28.4246 C6.8251,28.4246 6.4871,28.7626 6.4871,29.1796 C6.4871,29.5976 6.8251,29.9356 7.2421,29.9356" id="Fill-53" fill="#262626"></path>
            <path d="M13.7289,29.9356 C14.1459,29.9356 14.4839,29.5976 14.4839,29.1796 C14.4839,28.7626 14.1459,28.4246 13.7289,28.4246 C13.3119,28.4246 12.9739,28.7626 12.9739,29.1796 C12.9739,29.5976 13.3119,29.9356 13.7289,29.9356" id="Fill-55" fill="#262626"></path>
            <path d="M20.2157,29.9356 C20.6327,29.9356 20.9707,29.5976 20.9707,29.1796 C20.9707,28.7626 20.6327,28.4246 20.2157,28.4246 C19.7987,28.4246 19.4597,28.7626 19.4597,29.1796 C19.4597,29.5976 19.7987,29.9356 20.2157,29.9356" id="Fill-57" fill="#262626"></path>
            <path d="M26.702,29.9356 C27.119,29.9356 27.457,29.5976 27.457,29.1796 C27.457,28.7626 27.119,28.4246 26.702,28.4246 C26.285,28.4246 25.947,28.7626 25.947,29.1796 C25.947,29.5976 26.285,29.9356 26.702,29.9356" id="Fill-59" fill="#262626"></path>
            <path d="M33.1888,29.9356 C33.6058,29.9356 33.9438,29.5976 33.9438,29.1796 C33.9438,28.7626 33.6058,28.4246 33.1888,28.4246 C32.7718,28.4246 32.4338,28.7626 32.4338,29.1796 C32.4338,29.5976 32.7718,29.9356 33.1888,29.9356" id="Fill-61" fill="#262626"></path>
            <path d="M39.6752,29.9356 C40.0922,29.9356 40.4312,29.5976 40.4312,29.1796 C40.4312,28.7626 40.0922,28.4246 39.6752,28.4246 C39.2582,28.4246 38.9202,28.7626 38.9202,29.1796 C38.9202,29.5976 39.2582,29.9356 39.6752,29.9356" id="Fill-63" fill="#262626"></path>
            <path d="M46.162,29.9356 C46.579,29.9356 46.917,29.5976 46.917,29.1796 C46.917,28.7626 46.579,28.4246 46.162,28.4246 C45.745,28.4246 45.407,28.7626 45.407,29.1796 C45.407,29.5976 45.745,29.9356 46.162,29.9356" id="Fill-65" fill="#262626"></path>
            <path d="M52.6488,29.9356 C53.0658,29.9356 53.4038,29.5976 53.4038,29.1796 C53.4038,28.7626 53.0658,28.4246 52.6488,28.4246 C52.2318,28.4246 51.8938,28.7626 51.8938,29.1796 C51.8938,29.5976 52.2318,29.9356 52.6488,29.9356" id="Fill-67" fill="#262626"></path>
            <path d="M59.1356,29.9356 C59.5526,29.9356 59.8906,29.5976 59.8906,29.1796 C59.8906,28.7626 59.5526,28.4246 59.1356,28.4246 C58.7186,28.4246 58.3796,28.7626 58.3796,29.1796 C58.3796,29.5976 58.7186,29.9356 59.1356,29.9356" id="Fill-69" fill="#262626"></path>
            <path d="M65.6219,29.9356 C66.0389,29.9356 66.3769,29.5976 66.3769,29.1796 C66.3769,28.7626 66.0389,28.4246 65.6219,28.4246 C65.2049,28.4246 64.8669,28.7626 64.8669,29.1796 C64.8669,29.5976 65.2049,29.9356 65.6219,29.9356" id="Fill-71" fill="#262626"></path>
            <path d="M72.1088,29.9356 C72.5258,29.9356 72.8638,29.5976 72.8638,29.1796 C72.8638,28.7626 72.5258,28.4246 72.1088,28.4246 C71.6918,28.4246 71.3538,28.7626 71.3538,29.1796 C71.3538,29.5976 71.6918,29.9356 72.1088,29.9356" id="Fill-73" fill="#262626"></path>
            <g id="Group-77" transform="translate(0.000000, 33.992700)">
                <mask id="mask-6" fill="white">
                    <use xlink:href="#path-5"></use>
                </mask>
                <g id="Clip-76"></g>
                <path d="M0.7557,2.4292 C1.1727,2.4292 1.5107,2.0912 1.5107,1.6742 C1.5107,1.2572 1.1727,0.9182 0.7557,0.9182 C0.3387,0.9182 -0.0003,1.2572 -0.0003,1.6742 C-0.0003,2.0912 0.3387,2.4292 0.7557,2.4292" id="Fill-75" fill="#262626" mask="url(#mask-6)"></path>
            </g>
            <path d="M7.2421,36.4219 C7.6591,36.4219 7.9971,36.0839 7.9971,35.6669 C7.9971,35.2499 7.6591,34.9109 7.2421,34.9109 C6.8251,34.9109 6.4871,35.2499 6.4871,35.6669 C6.4871,36.0839 6.8251,36.4219 7.2421,36.4219" id="Fill-78" fill="#262626"></path>
            <path d="M13.7289,36.4219 C14.1459,36.4219 14.4839,36.0839 14.4839,35.6669 C14.4839,35.2499 14.1459,34.9109 13.7289,34.9109 C13.3119,34.9109 12.9739,35.2499 12.9739,35.6669 C12.9739,36.0839 13.3119,36.4219 13.7289,36.4219" id="Fill-80" fill="#262626"></path>
            <path d="M20.2157,36.4219 C20.6327,36.4219 20.9707,36.0839 20.9707,35.6669 C20.9707,35.2499 20.6327,34.9109 20.2157,34.9109 C19.7987,34.9109 19.4597,35.2499 19.4597,35.6669 C19.4597,36.0839 19.7987,36.4219 20.2157,36.4219" id="Fill-82" fill="#262626"></path>
            <path d="M26.702,36.4219 C27.119,36.4219 27.457,36.0839 27.457,35.6669 C27.457,35.2499 27.119,34.9109 26.702,34.9109 C26.285,34.9109 25.947,35.2499 25.947,35.6669 C25.947,36.0839 26.285,36.4219 26.702,36.4219" id="Fill-84" fill="#262626"></path>
            <path d="M33.1888,36.4219 C33.6058,36.4219 33.9438,36.0839 33.9438,35.6669 C33.9438,35.2499 33.6058,34.9109 33.1888,34.9109 C32.7718,34.9109 32.4338,35.2499 32.4338,35.6669 C32.4338,36.0839 32.7718,36.4219 33.1888,36.4219" id="Fill-86" fill="#262626"></path>
            <path d="M39.6752,36.4219 C40.0922,36.4219 40.4312,36.0839 40.4312,35.6669 C40.4312,35.2499 40.0922,34.9109 39.6752,34.9109 C39.2582,34.9109 38.9202,35.2499 38.9202,35.6669 C38.9202,36.0839 39.2582,36.4219 39.6752,36.4219" id="Fill-88" fill="#262626"></path>
            <path d="M46.162,36.4219 C46.579,36.4219 46.917,36.0839 46.917,35.6669 C46.917,35.2499 46.579,34.9109 46.162,34.9109 C45.745,34.9109 45.407,35.2499 45.407,35.6669 C45.407,36.0839 45.745,36.4219 46.162,36.4219" id="Fill-90" fill="#262626"></path>
            <path d="M52.6488,36.4219 C53.0658,36.4219 53.4038,36.0839 53.4038,35.6669 C53.4038,35.2499 53.0658,34.9109 52.6488,34.9109 C52.2318,34.9109 51.8938,35.2499 51.8938,35.6669 C51.8938,36.0839 52.2318,36.4219 52.6488,36.4219" id="Fill-92" fill="#262626"></path>
            <path d="M59.1356,36.4219 C59.5526,36.4219 59.8906,36.0839 59.8906,35.6669 C59.8906,35.2499 59.5526,34.9109 59.1356,34.9109 C58.7186,34.9109 58.3796,35.2499 58.3796,35.6669 C58.3796,36.0839 58.7186,36.4219 59.1356,36.4219" id="Fill-94" fill="#262626"></path>
            <path d="M65.6219,36.4219 C66.0389,36.4219 66.3769,36.0839 66.3769,35.6669 C66.3769,35.2499 66.0389,34.9109 65.6219,34.9109 C65.2049,34.9109 64.8669,35.2499 64.8669,35.6669 C64.8669,36.0839 65.2049,36.4219 65.6219,36.4219" id="Fill-96" fill="#262626"></path>
            <path d="M72.1088,36.4219 C72.5258,36.4219 72.8638,36.0839 72.8638,35.6669 C72.8638,35.2499 72.5258,34.9109 72.1088,34.9109 C71.6918,34.9109 71.3538,35.2499 71.3538,35.6669 C71.3538,36.0839 71.6918,36.4219 72.1088,36.4219" id="Fill-98" fill="#262626"></path>
            <g id="Group-102" transform="translate(0.000000, 40.992700)">
                <mask id="mask-8" fill="white">
                    <use xlink:href="#path-7"></use>
                </mask>
                <g id="Clip-101"></g>
                <path d="M0.7557,1.916 C1.1727,1.916 1.5107,1.578 1.5107,1.161 C1.5107,0.743 1.1727,0.405 0.7557,0.405 C0.3387,0.405 -0.0003,0.743 -0.0003,1.161 C-0.0003,1.578 0.3387,1.916 0.7557,1.916" id="Fill-100" fill="#262626" mask="url(#mask-8)"></path>
            </g>
            <path d="M7.2421,42.9087 C7.6591,42.9087 7.9971,42.5707 7.9971,42.1537 C7.9971,41.7357 7.6591,41.3977 7.2421,41.3977 C6.8251,41.3977 6.4871,41.7357 6.4871,42.1537 C6.4871,42.5707 6.8251,42.9087 7.2421,42.9087" id="Fill-103" fill="#262626"></path>
            <path d="M13.7289,42.9087 C14.1459,42.9087 14.4839,42.5707 14.4839,42.1537 C14.4839,41.7357 14.1459,41.3977 13.7289,41.3977 C13.3119,41.3977 12.9739,41.7357 12.9739,42.1537 C12.9739,42.5707 13.3119,42.9087 13.7289,42.9087" id="Fill-105" fill="#262626"></path>
            <path d="M20.2157,42.9087 C20.6327,42.9087 20.9707,42.5707 20.9707,42.1537 C20.9707,41.7357 20.6327,41.3977 20.2157,41.3977 C19.7987,41.3977 19.4597,41.7357 19.4597,42.1537 C19.4597,42.5707 19.7987,42.9087 20.2157,42.9087" id="Fill-107" fill="#262626"></path>
            <path d="M26.702,42.9087 C27.119,42.9087 27.457,42.5707 27.457,42.1537 C27.457,41.7357 27.119,41.3977 26.702,41.3977 C26.285,41.3977 25.947,41.7357 25.947,42.1537 C25.947,42.5707 26.285,42.9087 26.702,42.9087" id="Fill-109" fill="#262626"></path>
            <path d="M33.1888,42.9087 C33.6058,42.9087 33.9438,42.5707 33.9438,42.1537 C33.9438,41.7357 33.6058,41.3977 33.1888,41.3977 C32.7718,41.3977 32.4338,41.7357 32.4338,42.1537 C32.4338,42.5707 32.7718,42.9087 33.1888,42.9087" id="Fill-111" fill="#262626"></path>
            <path d="M39.6752,42.9087 C40.0922,42.9087 40.4312,42.5707 40.4312,42.1537 C40.4312,41.7357 40.0922,41.3977 39.6752,41.3977 C39.2582,41.3977 38.9202,41.7357 38.9202,42.1537 C38.9202,42.5707 39.2582,42.9087 39.6752,42.9087" id="Fill-113" fill="#262626"></path>
            <path d="M46.162,42.9087 C46.579,42.9087 46.917,42.5707 46.917,42.1537 C46.917,41.7357 46.579,41.3977 46.162,41.3977 C45.745,41.3977 45.407,41.7357 45.407,42.1537 C45.407,42.5707 45.745,42.9087 46.162,42.9087" id="Fill-115" fill="#262626"></path>
            <path d="M52.6488,42.9087 C53.0658,42.9087 53.4038,42.5707 53.4038,42.1537 C53.4038,41.7357 53.0658,41.3977 52.6488,41.3977 C52.2318,41.3977 51.8938,41.7357 51.8938,42.1537 C51.8938,42.5707 52.2318,42.9087 52.6488,42.9087" id="Fill-117" fill="#262626"></path>
            <path d="M59.1356,42.9087 C59.5526,42.9087 59.8906,42.5707 59.8906,42.1537 C59.8906,41.7357 59.5526,41.3977 59.1356,41.3977 C58.7186,41.3977 58.3796,41.7357 58.3796,42.1537 C58.3796,42.5707 58.7186,42.9087 59.1356,42.9087" id="Fill-119" fill="#262626"></path>
            <path d="M65.6219,42.9087 C66.0389,42.9087 66.3769,42.5707 66.3769,42.1537 C66.3769,41.7357 66.0389,41.3977 65.6219,41.3977 C65.2049,41.3977 64.8669,41.7357 64.8669,42.1537 C64.8669,42.5707 65.2049,42.9087 65.6219,42.9087" id="Fill-121" fill="#262626"></path>
            <path d="M72.1088,42.9087 C72.5258,42.9087 72.8638,42.5707 72.8638,42.1537 C72.8638,41.7357 72.5258,41.3977 72.1088,41.3977 C71.6918,41.3977 71.3538,41.7357 71.3538,42.1537 C71.3538,42.5707 71.6918,42.9087 72.1088,42.9087" id="Fill-123" fill="#262626"></path>
            <g id="Group-127" transform="translate(0.000000, 46.992700)">
                <mask id="mask-10" fill="white">
                    <use xlink:href="#path-9"></use>
                </mask>
                <g id="Clip-126"></g>
                <path d="M0.7557,2.4028 C1.1727,2.4028 1.5107,2.0648 1.5107,1.6478 C1.5107,1.2298 1.1727,0.8918 0.7557,0.8918 C0.3387,0.8918 -0.0003,1.2298 -0.0003,1.6478 C-0.0003,2.0648 0.3387,2.4028 0.7557,2.4028" id="Fill-125" fill="#262626" mask="url(#mask-10)"></path>
            </g>
            <path d="M7.2421,49.3955 C7.6591,49.3955 7.9971,49.0575 7.9971,48.6405 C7.9971,48.2225 7.6591,47.8845 7.2421,47.8845 C6.8251,47.8845 6.4871,48.2225 6.4871,48.6405 C6.4871,49.0575 6.8251,49.3955 7.2421,49.3955" id="Fill-128" fill="#262626"></path>
            <path d="M13.7289,49.3955 C14.1459,49.3955 14.4839,49.0575 14.4839,48.6405 C14.4839,48.2225 14.1459,47.8845 13.7289,47.8845 C13.3119,47.8845 12.9739,48.2225 12.9739,48.6405 C12.9739,49.0575 13.3119,49.3955 13.7289,49.3955" id="Fill-130" fill="#262626"></path>
            <path d="M20.2157,49.3955 C20.6327,49.3955 20.9707,49.0575 20.9707,48.6405 C20.9707,48.2225 20.6327,47.8845 20.2157,47.8845 C19.7987,47.8845 19.4597,48.2225 19.4597,48.6405 C19.4597,49.0575 19.7987,49.3955 20.2157,49.3955" id="Fill-132" fill="#262626"></path>
            <path d="M26.702,49.3955 C27.119,49.3955 27.457,49.0575 27.457,48.6405 C27.457,48.2225 27.119,47.8845 26.702,47.8845 C26.285,47.8845 25.947,48.2225 25.947,48.6405 C25.947,49.0575 26.285,49.3955 26.702,49.3955" id="Fill-134" fill="#262626"></path>
            <path d="M33.1888,49.3955 C33.6058,49.3955 33.9438,49.0575 33.9438,48.6405 C33.9438,48.2225 33.6058,47.8845 33.1888,47.8845 C32.7718,47.8845 32.4338,48.2225 32.4338,48.6405 C32.4338,49.0575 32.7718,49.3955 33.1888,49.3955" id="Fill-136" fill="#262626"></path>
            <path d="M39.6752,49.3955 C40.0922,49.3955 40.4312,49.0575 40.4312,48.6405 C40.4312,48.2225 40.0922,47.8845 39.6752,47.8845 C39.2582,47.8845 38.9202,48.2225 38.9202,48.6405 C38.9202,49.0575 39.2582,49.3955 39.6752,49.3955" id="Fill-138" fill="#262626"></path>
            <path d="M46.162,49.3955 C46.579,49.3955 46.917,49.0575 46.917,48.6405 C46.917,48.2225 46.579,47.8845 46.162,47.8845 C45.745,47.8845 45.407,48.2225 45.407,48.6405 C45.407,49.0575 45.745,49.3955 46.162,49.3955" id="Fill-140" fill="#262626"></path>
            <path d="M52.6488,49.3955 C53.0658,49.3955 53.4038,49.0575 53.4038,48.6405 C53.4038,48.2225 53.0658,47.8845 52.6488,47.8845 C52.2318,47.8845 51.8938,48.2225 51.8938,48.6405 C51.8938,49.0575 52.2318,49.3955 52.6488,49.3955" id="Fill-142" fill="#262626"></path>
            <path d="M59.1356,49.3955 C59.5526,49.3955 59.8906,49.0575 59.8906,48.6405 C59.8906,48.2225 59.5526,47.8845 59.1356,47.8845 C58.7186,47.8845 58.3796,48.2225 58.3796,48.6405 C58.3796,49.0575 58.7186,49.3955 59.1356,49.3955" id="Fill-144" fill="#262626"></path>
            <path d="M65.6219,49.3955 C66.0389,49.3955 66.3769,49.0575 66.3769,48.6405 C66.3769,48.2225 66.0389,47.8845 65.6219,47.8845 C65.2049,47.8845 64.8669,48.2225 64.8669,48.6405 C64.8669,49.0575 65.2049,49.3955 65.6219,49.3955" id="Fill-146" fill="#262626"></path>
            <path d="M72.1088,49.3955 C72.5258,49.3955 72.8638,49.0575 72.8638,48.6405 C72.8638,48.2225 72.5258,47.8845 72.1088,47.8845 C71.6918,47.8845 71.3538,48.2225 71.3538,48.6405 C71.3538,49.0575 71.6918,49.3955 72.1088,49.3955" id="Fill-148" fill="#262626"></path>
            <g id="Group-152" transform="translate(0.000000, 53.992700)">
                <mask id="mask-12" fill="white">
                    <use xlink:href="#path-11"></use>
                </mask>
                <g id="Clip-151"></g>
                <path d="M0.7557,1.8891 C1.1727,1.8891 1.5107,1.5511 1.5107,1.1341 C1.5107,0.7171 1.1727,0.3781 0.7557,0.3781 C0.3387,0.3781 -0.0003,0.7171 -0.0003,1.1341 C-0.0003,1.5511 0.3387,1.8891 0.7557,1.8891" id="Fill-150" fill="#262626" mask="url(#mask-12)"></path>
            </g>
            <path d="M7.2421,55.8818 C7.6591,55.8818 7.9971,55.5438 7.9971,55.1268 C7.9971,54.7098 7.6591,54.3708 7.2421,54.3708 C6.8251,54.3708 6.4871,54.7098 6.4871,55.1268 C6.4871,55.5438 6.8251,55.8818 7.2421,55.8818" id="Fill-153" fill="#262626"></path>
            <path d="M13.7289,55.8818 C14.1459,55.8818 14.4839,55.5438 14.4839,55.1268 C14.4839,54.7098 14.1459,54.3708 13.7289,54.3708 C13.3119,54.3708 12.9739,54.7098 12.9739,55.1268 C12.9739,55.5438 13.3119,55.8818 13.7289,55.8818" id="Fill-155" fill="#262626"></path>
            <path d="M20.2157,55.8818 C20.6327,55.8818 20.9707,55.5438 20.9707,55.1268 C20.9707,54.7098 20.6327,54.3708 20.2157,54.3708 C19.7987,54.3708 19.4597,54.7098 19.4597,55.1268 C19.4597,55.5438 19.7987,55.8818 20.2157,55.8818" id="Fill-157" fill="#262626"></path>
            <path d="M26.702,55.8818 C27.119,55.8818 27.457,55.5438 27.457,55.1268 C27.457,54.7098 27.119,54.3708 26.702,54.3708 C26.285,54.3708 25.947,54.7098 25.947,55.1268 C25.947,55.5438 26.285,55.8818 26.702,55.8818" id="Fill-159" fill="#262626"></path>
            <path d="M33.1888,55.8818 C33.6058,55.8818 33.9438,55.5438 33.9438,55.1268 C33.9438,54.7098 33.6058,54.3708 33.1888,54.3708 C32.7718,54.3708 32.4338,54.7098 32.4338,55.1268 C32.4338,55.5438 32.7718,55.8818 33.1888,55.8818" id="Fill-161" fill="#262626"></path>
            <path d="M39.6752,55.8818 C40.0922,55.8818 40.4312,55.5438 40.4312,55.1268 C40.4312,54.7098 40.0922,54.3708 39.6752,54.3708 C39.2582,54.3708 38.9202,54.7098 38.9202,55.1268 C38.9202,55.5438 39.2582,55.8818 39.6752,55.8818" id="Fill-163" fill="#262626"></path>
            <path d="M46.162,55.8818 C46.579,55.8818 46.917,55.5438 46.917,55.1268 C46.917,54.7098 46.579,54.3708 46.162,54.3708 C45.745,54.3708 45.407,54.7098 45.407,55.1268 C45.407,55.5438 45.745,55.8818 46.162,55.8818" id="Fill-165" fill="#262626"></path>
            <path d="M52.6488,55.8818 C53.0658,55.8818 53.4038,55.5438 53.4038,55.1268 C53.4038,54.7098 53.0658,54.3708 52.6488,54.3708 C52.2318,54.3708 51.8938,54.7098 51.8938,55.1268 C51.8938,55.5438 52.2318,55.8818 52.6488,55.8818" id="Fill-167" fill="#262626"></path>
            <path d="M59.1356,55.8818 C59.5526,55.8818 59.8906,55.5438 59.8906,55.1268 C59.8906,54.7098 59.5526,54.3708 59.1356,54.3708 C58.7186,54.3708 58.3796,54.7098 58.3796,55.1268 C58.3796,55.5438 58.7186,55.8818 59.1356,55.8818" id="Fill-169" fill="#262626"></path>
            <path d="M65.6219,55.8818 C66.0389,55.8818 66.3769,55.5438 66.3769,55.1268 C66.3769,54.7098 66.0389,54.3708 65.6219,54.3708 C65.2049,54.3708 64.8669,54.7098 64.8669,55.1268 C64.8669,55.5438 65.2049,55.8818 65.6219,55.8818" id="Fill-171" fill="#262626"></path>
            <path d="M72.1088,55.8818 C72.5258,55.8818 72.8638,55.5438 72.8638,55.1268 C72.8638,54.7098 72.5258,54.3708 72.1088,54.3708 C71.6918,54.3708 71.3538,54.7098 71.3538,55.1268 C71.3538,55.5438 71.6918,55.8818 72.1088,55.8818" id="Fill-173" fill="#262626"></path>
            <g id="Group-177" transform="translate(0.000000, 59.992700)">
                <mask id="mask-14" fill="white">
                    <use xlink:href="#path-13"></use>
                </mask>
                <g id="Clip-176"></g>
                <path d="M0.7557,2.376 C1.1727,2.376 1.5107,2.038 1.5107,1.621 C1.5107,1.203 1.1727,0.865 0.7557,0.865 C0.3387,0.865 -0.0003,1.203 -0.0003,1.621 C-0.0003,2.038 0.3387,2.376 0.7557,2.376" id="Fill-175" fill="#262626" mask="url(#mask-14)"></path>
            </g>
            <path d="M7.2421,62.3687 C7.6591,62.3687 7.9971,62.0307 7.9971,61.6137 C7.9971,61.1957 7.6591,60.8577 7.2421,60.8577 C6.8251,60.8577 6.4871,61.1957 6.4871,61.6137 C6.4871,62.0307 6.8251,62.3687 7.2421,62.3687" id="Fill-178" fill="#262626"></path>
            <path d="M13.7289,62.3687 C14.1459,62.3687 14.4839,62.0307 14.4839,61.6137 C14.4839,61.1957 14.1459,60.8577 13.7289,60.8577 C13.3119,60.8577 12.9739,61.1957 12.9739,61.6137 C12.9739,62.0307 13.3119,62.3687 13.7289,62.3687" id="Fill-180" fill="#262626"></path>
            <path d="M20.2157,62.3687 C20.6327,62.3687 20.9707,62.0307 20.9707,61.6137 C20.9707,61.1957 20.6327,60.8577 20.2157,60.8577 C19.7987,60.8577 19.4597,61.1957 19.4597,61.6137 C19.4597,62.0307 19.7987,62.3687 20.2157,62.3687" id="Fill-182" fill="#262626"></path>
            <path d="M26.702,62.3687 C27.119,62.3687 27.457,62.0307 27.457,61.6137 C27.457,61.1957 27.119,60.8577 26.702,60.8577 C26.285,60.8577 25.947,61.1957 25.947,61.6137 C25.947,62.0307 26.285,62.3687 26.702,62.3687" id="Fill-184" fill="#262626"></path>
            <path d="M33.1888,62.3687 C33.6058,62.3687 33.9438,62.0307 33.9438,61.6137 C33.9438,61.1957 33.6058,60.8577 33.1888,60.8577 C32.7718,60.8577 32.4338,61.1957 32.4338,61.6137 C32.4338,62.0307 32.7718,62.3687 33.1888,62.3687" id="Fill-186" fill="#262626"></path>
            <path d="M39.6752,62.3687 C40.0922,62.3687 40.4312,62.0307 40.4312,61.6137 C40.4312,61.1957 40.0922,60.8577 39.6752,60.8577 C39.2582,60.8577 38.9202,61.1957 38.9202,61.6137 C38.9202,62.0307 39.2582,62.3687 39.6752,62.3687" id="Fill-188" fill="#262626"></path>
            <path d="M46.162,62.3687 C46.579,62.3687 46.917,62.0307 46.917,61.6137 C46.917,61.1957 46.579,60.8577 46.162,60.8577 C45.745,60.8577 45.407,61.1957 45.407,61.6137 C45.407,62.0307 45.745,62.3687 46.162,62.3687" id="Fill-190" fill="#262626"></path>
            <path d="M52.6488,62.3687 C53.0658,62.3687 53.4038,62.0307 53.4038,61.6137 C53.4038,61.1957 53.0658,60.8577 52.6488,60.8577 C52.2318,60.8577 51.8938,61.1957 51.8938,61.6137 C51.8938,62.0307 52.2318,62.3687 52.6488,62.3687" id="Fill-192" fill="#262626"></path>
            <path d="M59.1356,62.3687 C59.5526,62.3687 59.8906,62.0307 59.8906,61.6137 C59.8906,61.1957 59.5526,60.8577 59.1356,60.8577 C58.7186,60.8577 58.3796,61.1957 58.3796,61.6137 C58.3796,62.0307 58.7186,62.3687 59.1356,62.3687" id="Fill-194" fill="#262626"></path>
            <path d="M65.6219,62.3687 C66.0389,62.3687 66.3769,62.0307 66.3769,61.6137 C66.3769,61.1957 66.0389,60.8577 65.6219,60.8577 C65.2049,60.8577 64.8669,61.1957 64.8669,61.6137 C64.8669,62.0307 65.2049,62.3687 65.6219,62.3687" id="Fill-196" fill="#262626"></path>
            <path d="M72.1088,62.3687 C72.5258,62.3687 72.8638,62.0307 72.8638,61.6137 C72.8638,61.1957 72.5258,60.8577 72.1088,60.8577 C71.6918,60.8577 71.3538,61.1957 71.3538,61.6137 C71.3538,62.0307 71.6918,62.3687 72.1088,62.3687" id="Fill-198" fill="#262626"></path>
            <g id="Group-202" transform="translate(0.000000, 66.992700)">
                <mask id="mask-16" fill="white">
                    <use xlink:href="#path-15"></use>
                </mask>
                <g id="Clip-201"></g>
                <path d="M0.7557,1.8628 C1.1727,1.8628 1.5107,1.5248 1.5107,1.1078 C1.5107,0.6898 1.1727,0.3518 0.7557,0.3518 C0.3387,0.3518 -0.0003,0.6898 -0.0003,1.1078 C-0.0003,1.5248 0.3387,1.8628 0.7557,1.8628" id="Fill-200" fill="#262626" mask="url(#mask-16)"></path>
            </g>
            <path d="M7.2421,68.8555 C7.6591,68.8555 7.9971,68.5175 7.9971,68.1005 C7.9971,67.6825 7.6591,67.3445 7.2421,67.3445 C6.8251,67.3445 6.4871,67.6825 6.4871,68.1005 C6.4871,68.5175 6.8251,68.8555 7.2421,68.8555" id="Fill-203" fill="#262626"></path>
            <path d="M13.7289,68.8555 C14.1459,68.8555 14.4839,68.5175 14.4839,68.1005 C14.4839,67.6825 14.1459,67.3445 13.7289,67.3445 C13.3119,67.3445 12.9739,67.6825 12.9739,68.1005 C12.9739,68.5175 13.3119,68.8555 13.7289,68.8555" id="Fill-205" fill="#262626"></path>
            <path d="M20.2157,68.8555 C20.6327,68.8555 20.9707,68.5175 20.9707,68.1005 C20.9707,67.6825 20.6327,67.3445 20.2157,67.3445 C19.7987,67.3445 19.4597,67.6825 19.4597,68.1005 C19.4597,68.5175 19.7987,68.8555 20.2157,68.8555" id="Fill-207" fill="#262626"></path>
            <path d="M26.702,68.8555 C27.119,68.8555 27.457,68.5175 27.457,68.1005 C27.457,67.6825 27.119,67.3445 26.702,67.3445 C26.285,67.3445 25.947,67.6825 25.947,68.1005 C25.947,68.5175 26.285,68.8555 26.702,68.8555" id="Fill-209" fill="#262626"></path>
            <path d="M33.1888,68.8555 C33.6058,68.8555 33.9438,68.5175 33.9438,68.1005 C33.9438,67.6825 33.6058,67.3445 33.1888,67.3445 C32.7718,67.3445 32.4338,67.6825 32.4338,68.1005 C32.4338,68.5175 32.7718,68.8555 33.1888,68.8555" id="Fill-211" fill="#262626"></path>
            <path d="M39.6752,68.8555 C40.0922,68.8555 40.4312,68.5175 40.4312,68.1005 C40.4312,67.6825 40.0922,67.3445 39.6752,67.3445 C39.2582,67.3445 38.9202,67.6825 38.9202,68.1005 C38.9202,68.5175 39.2582,68.8555 39.6752,68.8555" id="Fill-213" fill="#262626"></path>
            <path d="M46.162,68.8555 C46.579,68.8555 46.917,68.5175 46.917,68.1005 C46.917,67.6825 46.579,67.3445 46.162,67.3445 C45.745,67.3445 45.407,67.6825 45.407,68.1005 C45.407,68.5175 45.745,68.8555 46.162,68.8555" id="Fill-215" fill="#262626"></path>
            <path d="M52.6488,68.8555 C53.0658,68.8555 53.4038,68.5175 53.4038,68.1005 C53.4038,67.6825 53.0658,67.3445 52.6488,67.3445 C52.2318,67.3445 51.8938,67.6825 51.8938,68.1005 C51.8938,68.5175 52.2318,68.8555 52.6488,68.8555" id="Fill-217" fill="#262626"></path>
            <path d="M59.1356,68.8555 C59.5526,68.8555 59.8906,68.5175 59.8906,68.1005 C59.8906,67.6825 59.5526,67.3445 59.1356,67.3445 C58.7186,67.3445 58.3796,67.6825 58.3796,68.1005 C58.3796,68.5175 58.7186,68.8555 59.1356,68.8555" id="Fill-219" fill="#262626"></path>
            <path d="M65.6219,68.8555 C66.0389,68.8555 66.3769,68.5175 66.3769,68.1005 C66.3769,67.6825 66.0389,67.3445 65.6219,67.3445 C65.2049,67.3445 64.8669,67.6825 64.8669,68.1005 C64.8669,68.5175 65.2049,68.8555 65.6219,68.8555" id="Fill-221" fill="#262626"></path>
            <path d="M72.1088,68.8555 C72.5258,68.8555 72.8638,68.5175 72.8638,68.1005 C72.8638,67.6825 72.5258,67.3445 72.1088,67.3445 C71.6918,67.3445 71.3538,67.6825 71.3538,68.1005 C71.3538,68.5175 71.6918,68.8555 72.1088,68.8555" id="Fill-223" fill="#262626"></path>
            <g id="Group-227" transform="translate(0.000000, 72.992700)">
                <mask id="mask-18" fill="white">
                    <use xlink:href="#path-17"></use>
                </mask>
                <g id="Clip-226"></g>
                <path d="M0.7557,2.3491 C1.1727,2.3491 1.5107,2.0111 1.5107,1.5941 C1.5107,1.1771 1.1727,0.8381 0.7557,0.8381 C0.3387,0.8381 -0.0003,1.1771 -0.0003,1.5941 C-0.0003,2.0111 0.3387,2.3491 0.7557,2.3491" id="Fill-225" fill="#262626" mask="url(#mask-18)"></path>
            </g>
            <path d="M7.2421,75.3418 C7.6591,75.3418 7.9971,75.0038 7.9971,74.5868 C7.9971,74.1698 7.6591,73.8308 7.2421,73.8308 C6.8251,73.8308 6.4871,74.1698 6.4871,74.5868 C6.4871,75.0038 6.8251,75.3418 7.2421,75.3418" id="Fill-228" fill="#262626"></path>
            <path d="M13.7289,75.3418 C14.1459,75.3418 14.4839,75.0038 14.4839,74.5868 C14.4839,74.1698 14.1459,73.8308 13.7289,73.8308 C13.3119,73.8308 12.9739,74.1698 12.9739,74.5868 C12.9739,75.0038 13.3119,75.3418 13.7289,75.3418" id="Fill-230" fill="#262626"></path>
            <path d="M20.2157,75.3418 C20.6327,75.3418 20.9707,75.0038 20.9707,74.5868 C20.9707,74.1698 20.6327,73.8308 20.2157,73.8308 C19.7987,73.8308 19.4597,74.1698 19.4597,74.5868 C19.4597,75.0038 19.7987,75.3418 20.2157,75.3418" id="Fill-232" fill="#262626"></path>
            <path d="M26.702,75.3418 C27.119,75.3418 27.457,75.0038 27.457,74.5868 C27.457,74.1698 27.119,73.8308 26.702,73.8308 C26.285,73.8308 25.947,74.1698 25.947,74.5868 C25.947,75.0038 26.285,75.3418 26.702,75.3418" id="Fill-234" fill="#262626"></path>
            <path d="M33.1888,75.3418 C33.6058,75.3418 33.9438,75.0038 33.9438,74.5868 C33.9438,74.1698 33.6058,73.8308 33.1888,73.8308 C32.7718,73.8308 32.4338,74.1698 32.4338,74.5868 C32.4338,75.0038 32.7718,75.3418 33.1888,75.3418" id="Fill-236" fill="#262626"></path>
            <path d="M39.6752,75.3418 C40.0922,75.3418 40.4312,75.0038 40.4312,74.5868 C40.4312,74.1698 40.0922,73.8308 39.6752,73.8308 C39.2582,73.8308 38.9202,74.1698 38.9202,74.5868 C38.9202,75.0038 39.2582,75.3418 39.6752,75.3418" id="Fill-238" fill="#262626"></path>
            <path d="M46.162,75.3418 C46.579,75.3418 46.917,75.0038 46.917,74.5868 C46.917,74.1698 46.579,73.8308 46.162,73.8308 C45.745,73.8308 45.407,74.1698 45.407,74.5868 C45.407,75.0038 45.745,75.3418 46.162,75.3418" id="Fill-240" fill="#262626"></path>
            <path d="M52.6488,75.3418 C53.0658,75.3418 53.4038,75.0038 53.4038,74.5868 C53.4038,74.1698 53.0658,73.8308 52.6488,73.8308 C52.2318,73.8308 51.8938,74.1698 51.8938,74.5868 C51.8938,75.0038 52.2318,75.3418 52.6488,75.3418" id="Fill-242" fill="#262626"></path>
            <path d="M59.1356,75.3418 C59.5526,75.3418 59.8906,75.0038 59.8906,74.5868 C59.8906,74.1698 59.5526,73.8308 59.1356,73.8308 C58.7186,73.8308 58.3796,74.1698 58.3796,74.5868 C58.3796,75.0038 58.7186,75.3418 59.1356,75.3418" id="Fill-244" fill="#262626"></path>
            <path d="M65.6219,75.3418 C66.0389,75.3418 66.3769,75.0038 66.3769,74.5868 C66.3769,74.1698 66.0389,73.8308 65.6219,73.8308 C65.2049,73.8308 64.8669,74.1698 64.8669,74.5868 C64.8669,75.0038 65.2049,75.3418 65.6219,75.3418" id="Fill-246" fill="#262626"></path>
            <path d="M72.1088,75.3418 C72.5258,75.3418 72.8638,75.0038 72.8638,74.5868 C72.8638,74.1698 72.5258,73.8308 72.1088,73.8308 C71.6918,73.8308 71.3538,74.1698 71.3538,74.5868 C71.3538,75.0038 71.6918,75.3418 72.1088,75.3418" id="Fill-248" fill="#262626"></path>
            <path d="M20.2157,81.8286 C20.6327,81.8286 20.9707,81.4906 20.9707,81.0736 C20.9707,80.6556 20.6327,80.3176 20.2157,80.3176 C19.7987,80.3176 19.4597,80.6556 19.4597,81.0736 C19.4597,81.4906 19.7987,81.8286 20.2157,81.8286" id="Fill-250" fill="#262626"></path>
            <path d="M26.702,81.8286 C27.119,81.8286 27.457,81.4906 27.457,81.0736 C27.457,80.6556 27.119,80.3176 26.702,80.3176 C26.285,80.3176 25.947,80.6556 25.947,81.0736 C25.947,81.4906 26.285,81.8286 26.702,81.8286" id="Fill-252" fill="#262626"></path>
            <path d="M33.1888,81.8286 C33.6058,81.8286 33.9438,81.4906 33.9438,81.0736 C33.9438,80.6556 33.6058,80.3176 33.1888,80.3176 C32.7718,80.3176 32.4338,80.6556 32.4338,81.0736 C32.4338,81.4906 32.7718,81.8286 33.1888,81.8286" id="Fill-254" fill="#262626"></path>
            <path d="M39.6752,81.8286 C40.0922,81.8286 40.4312,81.4906 40.4312,81.0736 C40.4312,80.6556 40.0922,80.3176 39.6752,80.3176 C39.2582,80.3176 38.9202,80.6556 38.9202,81.0736 C38.9202,81.4906 39.2582,81.8286 39.6752,81.8286" id="Fill-256" fill="#262626"></path>
            <path d="M46.162,81.8286 C46.579,81.8286 46.917,81.4906 46.917,81.0736 C46.917,80.6556 46.579,80.3176 46.162,80.3176 C45.745,80.3176 45.407,80.6556 45.407,81.0736 C45.407,81.4906 45.745,81.8286 46.162,81.8286" id="Fill-258" fill="#262626"></path>
            <path d="M52.6488,81.8286 C53.0658,81.8286 53.4038,81.4906 53.4038,81.0736 C53.4038,80.6556 53.0658,80.3176 52.6488,80.3176 C52.2318,80.3176 51.8938,80.6556 51.8938,81.0736 C51.8938,81.4906 52.2318,81.8286 52.6488,81.8286" id="Fill-260" fill="#262626"></path>
            <path d="M59.1356,81.8286 C59.5526,81.8286 59.8906,81.4906 59.8906,81.0736 C59.8906,80.6556 59.5526,80.3176 59.1356,80.3176 C58.7186,80.3176 58.3796,80.6556 58.3796,81.0736 C58.3796,81.4906 58.7186,81.8286 59.1356,81.8286" id="Fill-262" fill="#262626"></path>
            <path d="M15.5321,66.5733 L49.5321,78.3843 L49.5321,28.8843 L15.5321,17.0733 L15.5321,66.5733 Z M51.0321,81.9923 C50.8661,81.9923 50.7001,81.9653 50.5401,81.9093 L13.5401,69.0573 C12.9361,68.8473 12.5321,68.2793 12.5321,67.6403 L12.5321,14.9643 C12.5321,14.4793 12.7671,14.0233 13.1621,13.7423 C13.5581,13.4603 14.0651,13.3873 14.5241,13.5473 L51.5241,26.4003 C52.1281,26.6093 52.5321,27.1783 52.5321,27.8173 L52.5321,80.4923 C52.5321,80.9783 52.2971,81.4333 51.9021,81.7153 C51.6441,81.8983 51.3401,81.9923 51.0321,81.9923 Z" id="Fill-264" fill="#262626"></path>
            <g id="Group-268" transform="translate(49.000000, 12.992700)">
                <mask id="mask-20" fill="white">
                    <use xlink:href="#path-19"></use>
                </mask>
                <g id="Clip-267"></g>
                <path d="M3.5321,15.9004 L3.5321,65.4094 L38.5321,53.5714 L38.5321,4.0624 L3.5321,15.9004 Z M2.0321,69.0004 C1.7221,69.0004 1.4161,68.9034 1.1571,68.7184 C0.7651,68.4374 0.5321,67.9834 0.5321,67.5004 L0.5321,14.8244 C0.5321,14.1814 0.9421,13.6094 1.5521,13.4034 L39.5521,0.5504 C40.0081,0.3954 40.5131,0.4714 40.9071,0.7534 C41.2991,1.0344 41.5321,1.4884 41.5321,1.9714 L41.5321,54.6474 C41.5321,55.2904 41.1221,55.8624 40.5121,56.0684 L2.5121,68.9214 C2.3561,68.9744 2.1941,69.0004 2.0321,69.0004 Z" id="Fill-266" fill="#262626" mask="url(#mask-20)"></path>
            </g>
            <path d="M18.7181,14.8975 L51.4711,26.2295 L84.0321,14.9635 L49.7461,3.0965 L18.7181,14.8975 Z M51.4711,29.3165 C51.3051,29.3165 51.1391,29.2895 50.9811,29.2345 L13.8331,16.3815 C13.2361,16.1755 12.8331,15.6185 12.8231,14.9875 C12.8141,14.3555 13.2001,13.7865 13.7901,13.5625 L49.1891,0.0985 C49.5181,-0.0275 49.8811,-0.0325 50.2131,0.0835 L89.1101,13.5465 C89.7141,13.7555 90.1191,14.3255 90.1191,14.9645 C90.1191,15.6045 89.7141,16.1725 89.1091,16.3815 L51.9611,29.2345 C51.8021,29.2895 51.6371,29.3165 51.4711,29.3165 Z" id="Fill-269" fill="#262626"></path>
        </g>
    </g>
</svg>