<?xml version="1.0" encoding="UTF-8"?>
<svg width="116px" height="124px" viewBox="0 0 116 124" version="1.1" xmlns="http://www.w3.org/2000/svg" xmlns:xlink="http://www.w3.org/1999/xlink">
    <!-- Generator: Sketch 51.3 (57544) - http://www.bohemiancoding.com/sketch -->
    <title>Group 396</title>
    <desc>Created with Sketch.</desc>
    <defs>
        <polygon id="path-1" points="0.0001 0.407 1.0001 0.407 1.0001 1.9064 0.0001 1.9064"></polygon>
        <polygon id="path-3" points="0.0001 0.407 1.0001 0.407 1.0001 1.9064 0.0001 1.9064"></polygon>
        <polygon id="path-5" points="0.101828571 0.199050017 60.015381 0.199050017 60.015381 102.999257 0.101828571 102.999257"></polygon>
    </defs>
    <g id="Page-1" stroke="none" stroke-width="1" fill="none" fill-rule="evenodd">
        <g id="Group-396">
            <g id="Group-3" transform="translate(53.000000, 0.000000)">
                <mask id="mask-2" fill="white">
                    <use xlink:href="#path-1"></use>
                </mask>
                <g id="Clip-2"></g>
                <path d="M0.4661,1.8044 C0.7231,1.8044 0.9311,1.4924 0.9311,1.1054 C0.9311,0.7199 0.7231,0.4064 0.4661,0.4064 C0.2091,0.4064 0.0001,0.7199 0.0001,1.1054 C0.0001,1.4924 0.2091,1.8044 0.4661,1.8044" id="Fill-1" fill="#29FF9C" mask="url(#mask-2)"></path>
            </g>
            <g id="Group-6" transform="translate(59.000000, 0.000000)">
                <mask id="mask-4" fill="white">
                    <use xlink:href="#path-3"></use>
                </mask>
                <g id="Clip-5"></g>
                <path d="M0.4661,1.8044 C0.7231,1.8044 0.9311,1.4924 0.9311,1.1054 C0.9311,0.7199 0.7231,0.4064 0.4661,0.4064 C0.2091,0.4064 0.0001,0.7199 0.0001,1.1054 C0.0001,1.4924 0.2091,1.8044 0.4661,1.8044" id="Fill-4" fill="#29FF9C" mask="url(#mask-4)"></path>
            </g>
            <path d="M53.466,6.932 C53.723,6.932 53.931,6.724 53.931,6.466 C53.931,6.209 53.723,6 53.466,6 C53.209,6 53,6.209 53,6.466 C53,6.724 53.209,6.932 53.466,6.932" id="Fill-7" fill="#29FF9C"></path>
            <path d="M59.466,6.932 C59.723,6.932 59.931,6.724 59.931,6.466 C59.931,6.209 59.723,6 59.466,6 C59.209,6 59,6.209 59,6.466 C59,6.724 59.209,6.932 59.466,6.932" id="Fill-9" fill="#29FF9C"></path>
            <path d="M47.466,12.932 C47.723,12.932 47.931,12.724 47.931,12.466 C47.931,12.209 47.723,12 47.466,12 C47.209,12 47,12.209 47,12.466 C47,12.724 47.209,12.932 47.466,12.932" id="Fill-11" fill="#29FF9C"></path>
            <path d="M53.466,12.932 C53.723,12.932 53.931,12.724 53.931,12.466 C53.931,12.209 53.723,12 53.466,12 C53.209,12 53,12.209 53,12.466 C53,12.724 53.209,12.932 53.466,12.932" id="Fill-13" fill="#29FF9C"></path>
            <path d="M59.466,12.932 C59.723,12.932 59.931,12.724 59.931,12.466 C59.931,12.209 59.723,12 59.466,12 C59.209,12 59,12.209 59,12.466 C59,12.724 59.209,12.932 59.466,12.932" id="Fill-15" fill="#29FF9C"></path>
            <path d="M65.466,12.932 C65.723,12.932 65.931,12.724 65.931,12.466 C65.931,12.209 65.723,12 65.466,12 C65.209,12 65,12.209 65,12.466 C65,12.724 65.209,12.932 65.466,12.932" id="Fill-17" fill="#29FF9C"></path>
            <path d="M47.466,18.932 C47.723,18.932 47.931,18.724 47.931,18.466 C47.931,18.209 47.723,18 47.466,18 C47.209,18 47,18.209 47,18.466 C47,18.724 47.209,18.932 47.466,18.932" id="Fill-19" fill="#29FF9C"></path>
            <path d="M53.466,18.932 C53.723,18.932 53.931,18.724 53.931,18.466 C53.931,18.209 53.723,18 53.466,18 C53.209,18 53,18.209 53,18.466 C53,18.724 53.209,18.932 53.466,18.932" id="Fill-21" fill="#29FF9C"></path>
            <path d="M59.466,18.932 C59.723,18.932 59.931,18.724 59.931,18.466 C59.931,18.209 59.723,18 59.466,18 C59.209,18 59,18.209 59,18.466 C59,18.724 59.209,18.932 59.466,18.932" id="Fill-23" fill="#29FF9C"></path>
            <path d="M65.466,18.932 C65.723,18.932 65.931,18.724 65.931,18.466 C65.931,18.209 65.723,18 65.466,18 C65.209,18 65,18.209 65,18.466 C65,18.724 65.209,18.932 65.466,18.932" id="Fill-25" fill="#29FF9C"></path>
            <path d="M71.466,18.932 C71.723,18.932 71.931,18.724 71.931,18.466 C71.931,18.209 71.723,18 71.466,18 C71.209,18 71,18.209 71,18.466 C71,18.724 71.209,18.932 71.466,18.932" id="Fill-27" fill="#29FF9C"></path>
            <path d="M41.466,24.932 C41.723,24.932 41.931,24.724 41.931,24.466 C41.931,24.209 41.723,24 41.466,24 C41.209,24 41,24.209 41,24.466 C41,24.724 41.209,24.932 41.466,24.932" id="Fill-29" fill="#29FF9C"></path>
            <path d="M47.466,24.932 C47.723,24.932 47.931,24.724 47.931,24.466 C47.931,24.209 47.723,24 47.466,24 C47.209,24 47,24.209 47,24.466 C47,24.724 47.209,24.932 47.466,24.932" id="Fill-31" fill="#29FF9C"></path>
            <path d="M53.466,24.932 C53.723,24.932 53.931,24.724 53.931,24.466 C53.931,24.209 53.723,24 53.466,24 C53.209,24 53,24.209 53,24.466 C53,24.724 53.209,24.932 53.466,24.932" id="Fill-33" fill="#29FF9C"></path>
            <path d="M59.466,24.932 C59.723,24.932 59.931,24.724 59.931,24.466 C59.931,24.209 59.723,24 59.466,24 C59.209,24 59,24.209 59,24.466 C59,24.724 59.209,24.932 59.466,24.932" id="Fill-35" fill="#29FF9C"></path>
            <path d="M65.466,24.932 C65.723,24.932 65.931,24.724 65.931,24.466 C65.931,24.209 65.723,24 65.466,24 C65.209,24 65,24.209 65,24.466 C65,24.724 65.209,24.932 65.466,24.932" id="Fill-37" fill="#29FF9C"></path>
            <path d="M71.466,24.932 C71.723,24.932 71.931,24.724 71.931,24.466 C71.931,24.209 71.723,24 71.466,24 C71.209,24 71,24.209 71,24.466 C71,24.724 71.209,24.932 71.466,24.932" id="Fill-39" fill="#29FF9C"></path>
            <path d="M77.466,24.932 C77.723,24.932 77.931,24.724 77.931,24.466 C77.931,24.209 77.723,24 77.466,24 C77.209,24 77,24.209 77,24.466 C77,24.724 77.209,24.932 77.466,24.932" id="Fill-41" fill="#29FF9C"></path>
            <path d="M36.466,30.932 C36.723,30.932 36.931,30.724 36.931,30.466 C36.931,30.209 36.723,30 36.466,30 C36.209,30 36,30.209 36,30.466 C36,30.724 36.209,30.932 36.466,30.932" id="Fill-43" fill="#29FF9C"></path>
            <path d="M41.466,30.932 C41.723,30.932 41.931,30.724 41.931,30.466 C41.931,30.209 41.723,30 41.466,30 C41.209,30 41,30.209 41,30.466 C41,30.724 41.209,30.932 41.466,30.932" id="Fill-45" fill="#29FF9C"></path>
            <path d="M47.466,30.932 C47.723,30.932 47.931,30.724 47.931,30.466 C47.931,30.209 47.723,30 47.466,30 C47.209,30 47,30.209 47,30.466 C47,30.724 47.209,30.932 47.466,30.932" id="Fill-47" fill="#29FF9C"></path>
            <path d="M53.466,30.932 C53.723,30.932 53.931,30.724 53.931,30.466 C53.931,30.209 53.723,30 53.466,30 C53.209,30 53,30.209 53,30.466 C53,30.724 53.209,30.932 53.466,30.932" id="Fill-49" fill="#29FF9C"></path>
            <path d="M59.466,30.932 C59.723,30.932 59.931,30.724 59.931,30.466 C59.931,30.209 59.723,30 59.466,30 C59.209,30 59,30.209 59,30.466 C59,30.724 59.209,30.932 59.466,30.932" id="Fill-51" fill="#29FF9C"></path>
            <path d="M65.466,30.932 C65.723,30.932 65.931,30.724 65.931,30.466 C65.931,30.209 65.723,30 65.466,30 C65.209,30 65,30.209 65,30.466 C65,30.724 65.209,30.932 65.466,30.932" id="Fill-53" fill="#29FF9C"></path>
            <path d="M71.466,30.932 C71.723,30.932 71.931,30.724 71.931,30.466 C71.931,30.209 71.723,30 71.466,30 C71.209,30 71,30.209 71,30.466 C71,30.724 71.209,30.932 71.466,30.932" id="Fill-55" fill="#29FF9C"></path>
            <path d="M77.466,30.932 C77.723,30.932 77.931,30.724 77.931,30.466 C77.931,30.209 77.723,30 77.466,30 C77.209,30 77,30.209 77,30.466 C77,30.724 77.209,30.932 77.466,30.932" id="Fill-57" fill="#29FF9C"></path>
            <path d="M36.466,36.932 C36.723,36.932 36.931,36.724 36.931,36.466 C36.931,36.209 36.723,36 36.466,36 C36.209,36 36,36.209 36,36.466 C36,36.724 36.209,36.932 36.466,36.932" id="Fill-59" fill="#29FF9C"></path>
            <path d="M41.466,36.932 C41.723,36.932 41.931,36.724 41.931,36.466 C41.931,36.209 41.723,36 41.466,36 C41.209,36 41,36.209 41,36.466 C41,36.724 41.209,36.932 41.466,36.932" id="Fill-61" fill="#29FF9C"></path>
            <path d="M47.466,36.932 C47.723,36.932 47.931,36.724 47.931,36.466 C47.931,36.209 47.723,36 47.466,36 C47.209,36 47,36.209 47,36.466 C47,36.724 47.209,36.932 47.466,36.932" id="Fill-63" fill="#29FF9C"></path>
            <path d="M53.466,36.932 C53.723,36.932 53.931,36.724 53.931,36.466 C53.931,36.209 53.723,36 53.466,36 C53.209,36 53,36.209 53,36.466 C53,36.724 53.209,36.932 53.466,36.932" id="Fill-65" fill="#29FF9C"></path>
            <path d="M59.466,36.932 C59.723,36.932 59.931,36.724 59.931,36.466 C59.931,36.209 59.723,36 59.466,36 C59.209,36 59,36.209 59,36.466 C59,36.724 59.209,36.932 59.466,36.932" id="Fill-67" fill="#29FF9C"></path>
            <path d="M65.466,36.932 C65.723,36.932 65.931,36.724 65.931,36.466 C65.931,36.209 65.723,36 65.466,36 C65.209,36 65,36.209 65,36.466 C65,36.724 65.209,36.932 65.466,36.932" id="Fill-69" fill="#29FF9C"></path>
            <path d="M71.466,36.932 C71.723,36.932 71.931,36.724 71.931,36.466 C71.931,36.209 71.723,36 71.466,36 C71.209,36 71,36.209 71,36.466 C71,36.724 71.209,36.932 71.466,36.932" id="Fill-71" fill="#29FF9C"></path>
            <path d="M77.466,36.932 C77.723,36.932 77.931,36.724 77.931,36.466 C77.931,36.209 77.723,36 77.466,36 C77.209,36 77,36.209 77,36.466 C77,36.724 77.209,36.932 77.466,36.932" id="Fill-73" fill="#29FF9C"></path>
            <path d="M83.466,36.932 C83.723,36.932 83.931,36.724 83.931,36.466 C83.931,36.209 83.723,36 83.466,36 C83.209,36 83,36.209 83,36.466 C83,36.724 83.209,36.932 83.466,36.932" id="Fill-75" fill="#29FF9C"></path>
            <path d="M30.466,42.932 C30.723,42.932 30.931,42.724 30.931,42.466 C30.931,42.209 30.723,42 30.466,42 C30.209,42 30,42.209 30,42.466 C30,42.724 30.209,42.932 30.466,42.932" id="Fill-77" fill="#29FF9C"></path>
            <path d="M36.466,42.932 C36.723,42.932 36.931,42.724 36.931,42.466 C36.931,42.209 36.723,42 36.466,42 C36.209,42 36,42.209 36,42.466 C36,42.724 36.209,42.932 36.466,42.932" id="Fill-79" fill="#29FF9C"></path>
            <path d="M41.466,42.932 C41.723,42.932 41.931,42.724 41.931,42.466 C41.931,42.209 41.723,42 41.466,42 C41.209,42 41,42.209 41,42.466 C41,42.724 41.209,42.932 41.466,42.932" id="Fill-81" fill="#29FF9C"></path>
            <path d="M47.466,42.932 C47.723,42.932 47.931,42.724 47.931,42.466 C47.931,42.209 47.723,42 47.466,42 C47.209,42 47,42.209 47,42.466 C47,42.724 47.209,42.932 47.466,42.932" id="Fill-83" fill="#29FF9C"></path>
            <path d="M53.466,42.932 C53.723,42.932 53.931,42.724 53.931,42.466 C53.931,42.209 53.723,42 53.466,42 C53.209,42 53,42.209 53,42.466 C53,42.724 53.209,42.932 53.466,42.932" id="Fill-85" fill="#29FF9C"></path>
            <path d="M59.466,42.932 C59.723,42.932 59.931,42.724 59.931,42.466 C59.931,42.209 59.723,42 59.466,42 C59.209,42 59,42.209 59,42.466 C59,42.724 59.209,42.932 59.466,42.932" id="Fill-87" fill="#29FF9C"></path>
            <path d="M65.466,42.932 C65.723,42.932 65.931,42.724 65.931,42.466 C65.931,42.209 65.723,42 65.466,42 C65.209,42 65,42.209 65,42.466 C65,42.724 65.209,42.932 65.466,42.932" id="Fill-89" fill="#29FF9C"></path>
            <path d="M71.466,42.932 C71.723,42.932 71.931,42.724 71.931,42.466 C71.931,42.209 71.723,42 71.466,42 C71.209,42 71,42.209 71,42.466 C71,42.724 71.209,42.932 71.466,42.932" id="Fill-91" fill="#29FF9C"></path>
            <path d="M77.466,42.932 C77.723,42.932 77.931,42.724 77.931,42.466 C77.931,42.209 77.723,42 77.466,42 C77.209,42 77,42.209 77,42.466 C77,42.724 77.209,42.932 77.466,42.932" id="Fill-93" fill="#29FF9C"></path>
            <path d="M83.466,42.932 C83.723,42.932 83.931,42.724 83.931,42.466 C83.931,42.209 83.723,42 83.466,42 C83.209,42 83,42.209 83,42.466 C83,42.724 83.209,42.932 83.466,42.932" id="Fill-95" fill="#29FF9C"></path>
            <path d="M89.466,42.932 C89.723,42.932 89.931,42.724 89.931,42.466 C89.931,42.209 89.723,42 89.466,42 C89.209,42 89,42.209 89,42.466 C89,42.724 89.209,42.932 89.466,42.932" id="Fill-97" fill="#29FF9C"></path>
            <path d="M24.466,48.932 C24.723,48.932 24.931,48.724 24.931,48.466 C24.931,48.209 24.723,48 24.466,48 C24.209,48 24,48.209 24,48.466 C24,48.724 24.209,48.932 24.466,48.932" id="Fill-99" fill="#29FF9C"></path>
            <path d="M30.466,48.932 C30.723,48.932 30.931,48.724 30.931,48.466 C30.931,48.209 30.723,48 30.466,48 C30.209,48 30,48.209 30,48.466 C30,48.724 30.209,48.932 30.466,48.932" id="Fill-101" fill="#29FF9C"></path>
            <path d="M36.466,48.932 C36.723,48.932 36.931,48.724 36.931,48.466 C36.931,48.209 36.723,48 36.466,48 C36.209,48 36,48.209 36,48.466 C36,48.724 36.209,48.932 36.466,48.932" id="Fill-103" fill="#29FF9C"></path>
            <path d="M41.466,48.932 C41.723,48.932 41.931,48.724 41.931,48.466 C41.931,48.209 41.723,48 41.466,48 C41.209,48 41,48.209 41,48.466 C41,48.724 41.209,48.932 41.466,48.932" id="Fill-105" fill="#29FF9C"></path>
            <path d="M47.466,48.932 C47.723,48.932 47.931,48.724 47.931,48.466 C47.931,48.209 47.723,48 47.466,48 C47.209,48 47,48.209 47,48.466 C47,48.724 47.209,48.932 47.466,48.932" id="Fill-107" fill="#29FF9C"></path>
            <path d="M53.466,48.932 C53.723,48.932 53.931,48.724 53.931,48.466 C53.931,48.209 53.723,48 53.466,48 C53.209,48 53,48.209 53,48.466 C53,48.724 53.209,48.932 53.466,48.932" id="Fill-109" fill="#29FF9C"></path>
            <path d="M59.466,48.932 C59.723,48.932 59.931,48.724 59.931,48.466 C59.931,48.209 59.723,48 59.466,48 C59.209,48 59,48.209 59,48.466 C59,48.724 59.209,48.932 59.466,48.932" id="Fill-111" fill="#29FF9C"></path>
            <path d="M65.466,48.932 C65.723,48.932 65.931,48.724 65.931,48.466 C65.931,48.209 65.723,48 65.466,48 C65.209,48 65,48.209 65,48.466 C65,48.724 65.209,48.932 65.466,48.932" id="Fill-113" fill="#29FF9C"></path>
            <path d="M71.466,48.932 C71.723,48.932 71.931,48.724 71.931,48.466 C71.931,48.209 71.723,48 71.466,48 C71.209,48 71,48.209 71,48.466 C71,48.724 71.209,48.932 71.466,48.932" id="Fill-115" fill="#29FF9C"></path>
            <path d="M77.466,48.932 C77.723,48.932 77.931,48.724 77.931,48.466 C77.931,48.209 77.723,48 77.466,48 C77.209,48 77,48.209 77,48.466 C77,48.724 77.209,48.932 77.466,48.932" id="Fill-117" fill="#29FF9C"></path>
            <path d="M83.466,48.932 C83.723,48.932 83.931,48.724 83.931,48.466 C83.931,48.209 83.723,48 83.466,48 C83.209,48 83,48.209 83,48.466 C83,48.724 83.209,48.932 83.466,48.932" id="Fill-119" fill="#29FF9C"></path>
            <path d="M89.466,48.932 C89.723,48.932 89.931,48.724 89.931,48.466 C89.931,48.209 89.723,48 89.466,48 C89.209,48 89,48.209 89,48.466 C89,48.724 89.209,48.932 89.466,48.932" id="Fill-121" fill="#29FF9C"></path>
            <path d="M24.466,54.932 C24.723,54.932 24.931,54.724 24.931,54.466 C24.931,54.209 24.723,54 24.466,54 C24.209,54 24,54.209 24,54.466 C24,54.724 24.209,54.932 24.466,54.932" id="Fill-123" fill="#29FF9C"></path>
            <path d="M30.466,54.932 C30.723,54.932 30.931,54.724 30.931,54.466 C30.931,54.209 30.723,54 30.466,54 C30.209,54 30,54.209 30,54.466 C30,54.724 30.209,54.932 30.466,54.932" id="Fill-125" fill="#29FF9C"></path>
            <path d="M36.466,54.932 C36.723,54.932 36.931,54.724 36.931,54.466 C36.931,54.209 36.723,54 36.466,54 C36.209,54 36,54.209 36,54.466 C36,54.724 36.209,54.932 36.466,54.932" id="Fill-127" fill="#29FF9C"></path>
            <path d="M41.466,54.932 C41.723,54.932 41.931,54.724 41.931,54.466 C41.931,54.209 41.723,54 41.466,54 C41.209,54 41,54.209 41,54.466 C41,54.724 41.209,54.932 41.466,54.932" id="Fill-129" fill="#29FF9C"></path>
            <path d="M47.466,54.932 C47.723,54.932 47.931,54.724 47.931,54.466 C47.931,54.209 47.723,54 47.466,54 C47.209,54 47,54.209 47,54.466 C47,54.724 47.209,54.932 47.466,54.932" id="Fill-131" fill="#29FF9C"></path>
            <path d="M53.466,54.932 C53.723,54.932 53.931,54.724 53.931,54.466 C53.931,54.209 53.723,54 53.466,54 C53.209,54 53,54.209 53,54.466 C53,54.724 53.209,54.932 53.466,54.932" id="Fill-133" fill="#29FF9C"></path>
            <path d="M59.466,54.932 C59.723,54.932 59.931,54.724 59.931,54.466 C59.931,54.209 59.723,54 59.466,54 C59.209,54 59,54.209 59,54.466 C59,54.724 59.209,54.932 59.466,54.932" id="Fill-135" fill="#29FF9C"></path>
            <path d="M65.466,54.932 C65.723,54.932 65.931,54.724 65.931,54.466 C65.931,54.209 65.723,54 65.466,54 C65.209,54 65,54.209 65,54.466 C65,54.724 65.209,54.932 65.466,54.932" id="Fill-137" fill="#29FF9C"></path>
            <path d="M71.466,54.932 C71.723,54.932 71.931,54.724 71.931,54.466 C71.931,54.209 71.723,54 71.466,54 C71.209,54 71,54.209 71,54.466 C71,54.724 71.209,54.932 71.466,54.932" id="Fill-139" fill="#29FF9C"></path>
            <path d="M77.466,54.932 C77.723,54.932 77.931,54.724 77.931,54.466 C77.931,54.209 77.723,54 77.466,54 C77.209,54 77,54.209 77,54.466 C77,54.724 77.209,54.932 77.466,54.932" id="Fill-141" fill="#29FF9C"></path>
            <path d="M83.466,54.932 C83.723,54.932 83.931,54.724 83.931,54.466 C83.931,54.209 83.723,54 83.466,54 C83.209,54 83,54.209 83,54.466 C83,54.724 83.209,54.932 83.466,54.932" id="Fill-143" fill="#29FF9C"></path>
            <path d="M89.466,54.932 C89.723,54.932 89.931,54.724 89.931,54.466 C89.931,54.209 89.723,54 89.466,54 C89.209,54 89,54.209 89,54.466 C89,54.724 89.209,54.932 89.466,54.932" id="Fill-145" fill="#29FF9C"></path>
            <path d="M95.466,54.932 C95.723,54.932 95.931,54.724 95.931,54.466 C95.931,54.209 95.723,54 95.466,54 C95.209,54 95,54.209 95,54.466 C95,54.724 95.209,54.932 95.466,54.932" id="Fill-147" fill="#29FF9C"></path>
            <path d="M18.466,60.932 C18.723,60.932 18.931,60.724 18.931,60.466 C18.931,60.209 18.723,60 18.466,60 C18.209,60 18,60.209 18,60.466 C18,60.724 18.209,60.932 18.466,60.932" id="Fill-149" fill="#29FF9C"></path>
            <path d="M24.466,60.932 C24.723,60.932 24.931,60.724 24.931,60.466 C24.931,60.209 24.723,60 24.466,60 C24.209,60 24,60.209 24,60.466 C24,60.724 24.209,60.932 24.466,60.932" id="Fill-151" fill="#29FF9C"></path>
            <path d="M30.466,60.932 C30.723,60.932 30.931,60.724 30.931,60.466 C30.931,60.209 30.723,60 30.466,60 C30.209,60 30,60.209 30,60.466 C30,60.724 30.209,60.932 30.466,60.932" id="Fill-153" fill="#29FF9C"></path>
            <path d="M36.466,60.932 C36.723,60.932 36.931,60.724 36.931,60.466 C36.931,60.209 36.723,60 36.466,60 C36.209,60 36,60.209 36,60.466 C36,60.724 36.209,60.932 36.466,60.932" id="Fill-155" fill="#29FF9C"></path>
            <path d="M41.466,60.932 C41.723,60.932 41.931,60.724 41.931,60.466 C41.931,60.209 41.723,60 41.466,60 C41.209,60 41,60.209 41,60.466 C41,60.724 41.209,60.932 41.466,60.932" id="Fill-157" fill="#29FF9C"></path>
            <path d="M47.466,60.932 C47.723,60.932 47.931,60.724 47.931,60.466 C47.931,60.209 47.723,60 47.466,60 C47.209,60 47,60.209 47,60.466 C47,60.724 47.209,60.932 47.466,60.932" id="Fill-159" fill="#29FF9C"></path>
            <path d="M53.466,60.932 C53.723,60.932 53.931,60.724 53.931,60.466 C53.931,60.209 53.723,60 53.466,60 C53.209,60 53,60.209 53,60.466 C53,60.724 53.209,60.932 53.466,60.932" id="Fill-161" fill="#29FF9C"></path>
            <path d="M59.466,60.932 C59.723,60.932 59.931,60.724 59.931,60.466 C59.931,60.209 59.723,60 59.466,60 C59.209,60 59,60.209 59,60.466 C59,60.724 59.209,60.932 59.466,60.932" id="Fill-163" fill="#29FF9C"></path>
            <path d="M65.466,60.932 C65.723,60.932 65.931,60.724 65.931,60.466 C65.931,60.209 65.723,60 65.466,60 C65.209,60 65,60.209 65,60.466 C65,60.724 65.209,60.932 65.466,60.932" id="Fill-165" fill="#29FF9C"></path>
            <path d="M71.466,60.932 C71.723,60.932 71.931,60.724 71.931,60.466 C71.931,60.209 71.723,60 71.466,60 C71.209,60 71,60.209 71,60.466 C71,60.724 71.209,60.932 71.466,60.932" id="Fill-167" fill="#29FF9C"></path>
            <path d="M77.466,60.932 C77.723,60.932 77.931,60.724 77.931,60.466 C77.931,60.209 77.723,60 77.466,60 C77.209,60 77,60.209 77,60.466 C77,60.724 77.209,60.932 77.466,60.932" id="Fill-169" fill="#29FF9C"></path>
            <path d="M83.466,60.932 C83.723,60.932 83.931,60.724 83.931,60.466 C83.931,60.209 83.723,60 83.466,60 C83.209,60 83,60.209 83,60.466 C83,60.724 83.209,60.932 83.466,60.932" id="Fill-171" fill="#29FF9C"></path>
            <path d="M89.466,60.932 C89.723,60.932 89.931,60.724 89.931,60.466 C89.931,60.209 89.723,60 89.466,60 C89.209,60 89,60.209 89,60.466 C89,60.724 89.209,60.932 89.466,60.932" id="Fill-173" fill="#29FF9C"></path>
            <path d="M95.466,60.932 C95.723,60.932 95.931,60.724 95.931,60.466 C95.931,60.209 95.723,60 95.466,60 C95.209,60 95,60.209 95,60.466 C95,60.724 95.209,60.932 95.466,60.932" id="Fill-175" fill="#29FF9C"></path>
            <path d="M101.466,60.932 C101.723,60.932 101.931,60.724 101.931,60.466 C101.931,60.209 101.723,60 101.466,60 C101.209,60 101,60.209 101,60.466 C101,60.724 101.209,60.932 101.466,60.932" id="Fill-177" fill="#29FF9C"></path>
            <path d="M12.466,66.932 C12.723,66.932 12.931,66.724 12.931,66.466 C12.931,66.209 12.723,66 12.466,66 C12.209,66 12,66.209 12,66.466 C12,66.724 12.209,66.932 12.466,66.932" id="Fill-179" fill="#29FF9C"></path>
            <path d="M18.466,66.932 C18.723,66.932 18.931,66.724 18.931,66.466 C18.931,66.209 18.723,66 18.466,66 C18.209,66 18,66.209 18,66.466 C18,66.724 18.209,66.932 18.466,66.932" id="Fill-181" fill="#29FF9C"></path>
            <path d="M24.466,66.932 C24.723,66.932 24.931,66.724 24.931,66.466 C24.931,66.209 24.723,66 24.466,66 C24.209,66 24,66.209 24,66.466 C24,66.724 24.209,66.932 24.466,66.932" id="Fill-183" fill="#29FF9C"></path>
            <path d="M30.466,66.932 C30.723,66.932 30.931,66.724 30.931,66.466 C30.931,66.209 30.723,66 30.466,66 C30.209,66 30,66.209 30,66.466 C30,66.724 30.209,66.932 30.466,66.932" id="Fill-185" fill="#29FF9C"></path>
            <path d="M36.466,66.932 C36.723,66.932 36.931,66.724 36.931,66.466 C36.931,66.209 36.723,66 36.466,66 C36.209,66 36,66.209 36,66.466 C36,66.724 36.209,66.932 36.466,66.932" id="Fill-187" fill="#29FF9C"></path>
            <path d="M41.466,66.932 C41.723,66.932 41.931,66.724 41.931,66.466 C41.931,66.209 41.723,66 41.466,66 C41.209,66 41,66.209 41,66.466 C41,66.724 41.209,66.932 41.466,66.932" id="Fill-189" fill="#29FF9C"></path>
            <path d="M47.466,66.932 C47.723,66.932 47.931,66.724 47.931,66.466 C47.931,66.209 47.723,66 47.466,66 C47.209,66 47,66.209 47,66.466 C47,66.724 47.209,66.932 47.466,66.932" id="Fill-191" fill="#29FF9C"></path>
            <path d="M53.466,66.932 C53.723,66.932 53.931,66.724 53.931,66.466 C53.931,66.209 53.723,66 53.466,66 C53.209,66 53,66.209 53,66.466 C53,66.724 53.209,66.932 53.466,66.932" id="Fill-193" fill="#29FF9C"></path>
            <path d="M59.466,66.932 C59.723,66.932 59.931,66.724 59.931,66.466 C59.931,66.209 59.723,66 59.466,66 C59.209,66 59,66.209 59,66.466 C59,66.724 59.209,66.932 59.466,66.932" id="Fill-195" fill="#29FF9C"></path>
            <path d="M65.466,66.932 C65.723,66.932 65.931,66.724 65.931,66.466 C65.931,66.209 65.723,66 65.466,66 C65.209,66 65,66.209 65,66.466 C65,66.724 65.209,66.932 65.466,66.932" id="Fill-197" fill="#29FF9C"></path>
            <path d="M71.466,66.932 C71.723,66.932 71.931,66.724 71.931,66.466 C71.931,66.209 71.723,66 71.466,66 C71.209,66 71,66.209 71,66.466 C71,66.724 71.209,66.932 71.466,66.932" id="Fill-199" fill="#29FF9C"></path>
            <path d="M77.466,66.932 C77.723,66.932 77.931,66.724 77.931,66.466 C77.931,66.209 77.723,66 77.466,66 C77.209,66 77,66.209 77,66.466 C77,66.724 77.209,66.932 77.466,66.932" id="Fill-201" fill="#29FF9C"></path>
            <path d="M83.466,66.932 C83.723,66.932 83.931,66.724 83.931,66.466 C83.931,66.209 83.723,66 83.466,66 C83.209,66 83,66.209 83,66.466 C83,66.724 83.209,66.932 83.466,66.932" id="Fill-203" fill="#29FF9C"></path>
            <path d="M89.466,66.932 C89.723,66.932 89.931,66.724 89.931,66.466 C89.931,66.209 89.723,66 89.466,66 C89.209,66 89,66.209 89,66.466 C89,66.724 89.209,66.932 89.466,66.932" id="Fill-205" fill="#29FF9C"></path>
            <path d="M95.466,66.932 C95.723,66.932 95.931,66.724 95.931,66.466 C95.931,66.209 95.723,66 95.466,66 C95.209,66 95,66.209 95,66.466 C95,66.724 95.209,66.932 95.466,66.932" id="Fill-207" fill="#29FF9C"></path>
            <path d="M101.466,66.932 C101.723,66.932 101.931,66.724 101.931,66.466 C101.931,66.209 101.723,66 101.466,66 C101.209,66 101,66.209 101,66.466 C101,66.724 101.209,66.932 101.466,66.932" id="Fill-209" fill="#29FF9C"></path>
            <path d="M107.466,66.932 C107.723,66.932 107.931,66.724 107.931,66.466 C107.931,66.209 107.723,66 107.466,66 C107.209,66 107,66.209 107,66.466 C107,66.724 107.209,66.932 107.466,66.932" id="Fill-211" fill="#29FF9C"></path>
            <path d="M0.466,72.932 C0.723,72.932 0.931,72.724 0.931,72.466 C0.931,72.209 0.723,72 0.466,72 C0.209,72 0,72.209 0,72.466 C0,72.724 0.209,72.932 0.466,72.932" id="Fill-213" fill="#29FF9C"></path>
            <path d="M6.466,72.932 C6.723,72.932 6.931,72.724 6.931,72.466 C6.931,72.209 6.723,72 6.466,72 C6.209,72 6,72.209 6,72.466 C6,72.724 6.209,72.932 6.466,72.932" id="Fill-215" fill="#29FF9C"></path>
            <path d="M12.466,72.932 C12.723,72.932 12.931,72.724 12.931,72.466 C12.931,72.209 12.723,72 12.466,72 C12.209,72 12,72.209 12,72.466 C12,72.724 12.209,72.932 12.466,72.932" id="Fill-217" fill="#29FF9C"></path>
            <path d="M18.466,72.932 C18.723,72.932 18.931,72.724 18.931,72.466 C18.931,72.209 18.723,72 18.466,72 C18.209,72 18,72.209 18,72.466 C18,72.724 18.209,72.932 18.466,72.932" id="Fill-219" fill="#29FF9C"></path>
            <path d="M24.466,72.932 C24.723,72.932 24.931,72.724 24.931,72.466 C24.931,72.209 24.723,72 24.466,72 C24.209,72 24,72.209 24,72.466 C24,72.724 24.209,72.932 24.466,72.932" id="Fill-221" fill="#29FF9C"></path>
            <path d="M30.466,72.932 C30.723,72.932 30.931,72.724 30.931,72.466 C30.931,72.209 30.723,72 30.466,72 C30.209,72 30,72.209 30,72.466 C30,72.724 30.209,72.932 30.466,72.932" id="Fill-223" fill="#29FF9C"></path>
            <path d="M36.466,72.932 C36.723,72.932 36.931,72.724 36.931,72.466 C36.931,72.209 36.723,72 36.466,72 C36.209,72 36,72.209 36,72.466 C36,72.724 36.209,72.932 36.466,72.932" id="Fill-225" fill="#29FF9C"></path>
            <path d="M41.466,72.932 C41.723,72.932 41.931,72.724 41.931,72.466 C41.931,72.209 41.723,72 41.466,72 C41.209,72 41,72.209 41,72.466 C41,72.724 41.209,72.932 41.466,72.932" id="Fill-227" fill="#29FF9C"></path>
            <path d="M47.466,72.932 C47.723,72.932 47.931,72.724 47.931,72.466 C47.931,72.209 47.723,72 47.466,72 C47.209,72 47,72.209 47,72.466 C47,72.724 47.209,72.932 47.466,72.932" id="Fill-229" fill="#29FF9C"></path>
            <path d="M53.466,72.932 C53.723,72.932 53.931,72.724 53.931,72.466 C53.931,72.209 53.723,72 53.466,72 C53.209,72 53,72.209 53,72.466 C53,72.724 53.209,72.932 53.466,72.932" id="Fill-231" fill="#29FF9C"></path>
            <path d="M59.466,72.932 C59.723,72.932 59.931,72.724 59.931,72.466 C59.931,72.209 59.723,72 59.466,72 C59.209,72 59,72.209 59,72.466 C59,72.724 59.209,72.932 59.466,72.932" id="Fill-233" fill="#29FF9C"></path>
            <path d="M65.466,72.932 C65.723,72.932 65.931,72.724 65.931,72.466 C65.931,72.209 65.723,72 65.466,72 C65.209,72 65,72.209 65,72.466 C65,72.724 65.209,72.932 65.466,72.932" id="Fill-235" fill="#29FF9C"></path>
            <path d="M71.466,72.932 C71.723,72.932 71.931,72.724 71.931,72.466 C71.931,72.209 71.723,72 71.466,72 C71.209,72 71,72.209 71,72.466 C71,72.724 71.209,72.932 71.466,72.932" id="Fill-237" fill="#29FF9C"></path>
            <path d="M77.466,72.932 C77.723,72.932 77.931,72.724 77.931,72.466 C77.931,72.209 77.723,72 77.466,72 C77.209,72 77,72.209 77,72.466 C77,72.724 77.209,72.932 77.466,72.932" id="Fill-239" fill="#29FF9C"></path>
            <path d="M83.466,72.932 C83.723,72.932 83.931,72.724 83.931,72.466 C83.931,72.209 83.723,72 83.466,72 C83.209,72 83,72.209 83,72.466 C83,72.724 83.209,72.932 83.466,72.932" id="Fill-241" fill="#29FF9C"></path>
            <path d="M89.466,72.932 C89.723,72.932 89.931,72.724 89.931,72.466 C89.931,72.209 89.723,72 89.466,72 C89.209,72 89,72.209 89,72.466 C89,72.724 89.209,72.932 89.466,72.932" id="Fill-243" fill="#29FF9C"></path>
            <path d="M95.466,72.932 C95.723,72.932 95.931,72.724 95.931,72.466 C95.931,72.209 95.723,72 95.466,72 C95.209,72 95,72.209 95,72.466 C95,72.724 95.209,72.932 95.466,72.932" id="Fill-245" fill="#29FF9C"></path>
            <path d="M101.466,72.932 C101.723,72.932 101.931,72.724 101.931,72.466 C101.931,72.209 101.723,72 101.466,72 C101.209,72 101,72.209 101,72.466 C101,72.724 101.209,72.932 101.466,72.932" id="Fill-247" fill="#29FF9C"></path>
            <path d="M107.466,72.932 C107.723,72.932 107.931,72.724 107.931,72.466 C107.931,72.209 107.723,72 107.466,72 C107.209,72 107,72.209 107,72.466 C107,72.724 107.209,72.932 107.466,72.932" id="Fill-249" fill="#29FF9C"></path>
            <path d="M0.466,78.932 C0.723,78.932 0.931,78.724 0.931,78.466 C0.931,78.209 0.723,78 0.466,78 C0.209,78 0,78.209 0,78.466 C0,78.724 0.209,78.932 0.466,78.932" id="Fill-251" fill="#29FF9C"></path>
            <path d="M6.466,78.932 C6.723,78.932 6.931,78.724 6.931,78.466 C6.931,78.209 6.723,78 6.466,78 C6.209,78 6,78.209 6,78.466 C6,78.724 6.209,78.932 6.466,78.932" id="Fill-253" fill="#29FF9C"></path>
            <path d="M12.466,78.932 C12.723,78.932 12.931,78.724 12.931,78.466 C12.931,78.209 12.723,78 12.466,78 C12.209,78 12,78.209 12,78.466 C12,78.724 12.209,78.932 12.466,78.932" id="Fill-255" fill="#29FF9C"></path>
            <path d="M18.466,78.932 C18.723,78.932 18.931,78.724 18.931,78.466 C18.931,78.209 18.723,78 18.466,78 C18.209,78 18,78.209 18,78.466 C18,78.724 18.209,78.932 18.466,78.932" id="Fill-257" fill="#29FF9C"></path>
            <path d="M24.466,78.932 C24.723,78.932 24.931,78.724 24.931,78.466 C24.931,78.209 24.723,78 24.466,78 C24.209,78 24,78.209 24,78.466 C24,78.724 24.209,78.932 24.466,78.932" id="Fill-259" fill="#29FF9C"></path>
            <path d="M30.466,78.932 C30.723,78.932 30.931,78.724 30.931,78.466 C30.931,78.209 30.723,78 30.466,78 C30.209,78 30,78.209 30,78.466 C30,78.724 30.209,78.932 30.466,78.932" id="Fill-261" fill="#29FF9C"></path>
            <path d="M36.466,78.932 C36.723,78.932 36.931,78.724 36.931,78.466 C36.931,78.209 36.723,78 36.466,78 C36.209,78 36,78.209 36,78.466 C36,78.724 36.209,78.932 36.466,78.932" id="Fill-263" fill="#29FF9C"></path>
            <path d="M41.466,78.932 C41.723,78.932 41.931,78.724 41.931,78.466 C41.931,78.209 41.723,78 41.466,78 C41.209,78 41,78.209 41,78.466 C41,78.724 41.209,78.932 41.466,78.932" id="Fill-265" fill="#29FF9C"></path>
            <path d="M47.466,78.932 C47.723,78.932 47.931,78.724 47.931,78.466 C47.931,78.209 47.723,78 47.466,78 C47.209,78 47,78.209 47,78.466 C47,78.724 47.209,78.932 47.466,78.932" id="Fill-267" fill="#29FF9C"></path>
            <path d="M53.466,78.932 C53.723,78.932 53.931,78.724 53.931,78.466 C53.931,78.209 53.723,78 53.466,78 C53.209,78 53,78.209 53,78.466 C53,78.724 53.209,78.932 53.466,78.932" id="Fill-269" fill="#29FF9C"></path>
            <path d="M59.466,78.932 C59.723,78.932 59.931,78.724 59.931,78.466 C59.931,78.209 59.723,78 59.466,78 C59.209,78 59,78.209 59,78.466 C59,78.724 59.209,78.932 59.466,78.932" id="Fill-271" fill="#29FF9C"></path>
            <path d="M65.466,78.932 C65.723,78.932 65.931,78.724 65.931,78.466 C65.931,78.209 65.723,78 65.466,78 C65.209,78 65,78.209 65,78.466 C65,78.724 65.209,78.932 65.466,78.932" id="Fill-273" fill="#29FF9C"></path>
            <path d="M71.466,78.932 C71.723,78.932 71.931,78.724 71.931,78.466 C71.931,78.209 71.723,78 71.466,78 C71.209,78 71,78.209 71,78.466 C71,78.724 71.209,78.932 71.466,78.932" id="Fill-275" fill="#29FF9C"></path>
            <path d="M77.466,78.932 C77.723,78.932 77.931,78.724 77.931,78.466 C77.931,78.209 77.723,78 77.466,78 C77.209,78 77,78.209 77,78.466 C77,78.724 77.209,78.932 77.466,78.932" id="Fill-277" fill="#29FF9C"></path>
            <path d="M83.466,78.932 C83.723,78.932 83.931,78.724 83.931,78.466 C83.931,78.209 83.723,78 83.466,78 C83.209,78 83,78.209 83,78.466 C83,78.724 83.209,78.932 83.466,78.932" id="Fill-279" fill="#29FF9C"></path>
            <path d="M89.466,78.932 C89.723,78.932 89.931,78.724 89.931,78.466 C89.931,78.209 89.723,78 89.466,78 C89.209,78 89,78.209 89,78.466 C89,78.724 89.209,78.932 89.466,78.932" id="Fill-281" fill="#29FF9C"></path>
            <path d="M95.466,78.932 C95.723,78.932 95.931,78.724 95.931,78.466 C95.931,78.209 95.723,78 95.466,78 C95.209,78 95,78.209 95,78.466 C95,78.724 95.209,78.932 95.466,78.932" id="Fill-283" fill="#29FF9C"></path>
            <path d="M101.466,78.932 C101.723,78.932 101.931,78.724 101.931,78.466 C101.931,78.209 101.723,78 101.466,78 C101.209,78 101,78.209 101,78.466 C101,78.724 101.209,78.932 101.466,78.932" id="Fill-285" fill="#29FF9C"></path>
            <path d="M107.466,78.932 C107.723,78.932 107.931,78.724 107.931,78.466 C107.931,78.209 107.723,78 107.466,78 C107.209,78 107,78.209 107,78.466 C107,78.724 107.209,78.932 107.466,78.932" id="Fill-287" fill="#29FF9C"></path>
            <path d="M113.466,78.932 C113.723,78.932 113.932,78.724 113.932,78.466 C113.932,78.209 113.723,78 113.466,78 C113.209,78 113,78.209 113,78.466 C113,78.724 113.209,78.932 113.466,78.932" id="Fill-289" fill="#29FF9C"></path>
            <path d="M0.466,83.932 C0.723,83.932 0.931,83.724 0.931,83.466 C0.931,83.209 0.723,83 0.466,83 C0.209,83 0,83.209 0,83.466 C0,83.724 0.209,83.932 0.466,83.932" id="Fill-291" fill="#29FF9C"></path>
            <path d="M6.466,83.932 C6.723,83.932 6.931,83.724 6.931,83.466 C6.931,83.209 6.723,83 6.466,83 C6.209,83 6,83.209 6,83.466 C6,83.724 6.209,83.932 6.466,83.932" id="Fill-293" fill="#29FF9C"></path>
            <path d="M12.466,83.932 C12.723,83.932 12.931,83.724 12.931,83.466 C12.931,83.209 12.723,83 12.466,83 C12.209,83 12,83.209 12,83.466 C12,83.724 12.209,83.932 12.466,83.932" id="Fill-295" fill="#29FF9C"></path>
            <path d="M18.466,83.932 C18.723,83.932 18.931,83.724 18.931,83.466 C18.931,83.209 18.723,83 18.466,83 C18.209,83 18,83.209 18,83.466 C18,83.724 18.209,83.932 18.466,83.932" id="Fill-297" fill="#29FF9C"></path>
            <path d="M24.466,83.932 C24.723,83.932 24.931,83.724 24.931,83.466 C24.931,83.209 24.723,83 24.466,83 C24.209,83 24,83.209 24,83.466 C24,83.724 24.209,83.932 24.466,83.932" id="Fill-299" fill="#29FF9C"></path>
            <path d="M30.466,83.932 C30.723,83.932 30.931,83.724 30.931,83.466 C30.931,83.209 30.723,83 30.466,83 C30.209,83 30,83.209 30,83.466 C30,83.724 30.209,83.932 30.466,83.932" id="Fill-301" fill="#29FF9C"></path>
            <path d="M36.466,83.932 C36.723,83.932 36.931,83.724 36.931,83.466 C36.931,83.209 36.723,83 36.466,83 C36.209,83 36,83.209 36,83.466 C36,83.724 36.209,83.932 36.466,83.932" id="Fill-303" fill="#29FF9C"></path>
            <path d="M41.466,83.932 C41.723,83.932 41.931,83.724 41.931,83.466 C41.931,83.209 41.723,83 41.466,83 C41.209,83 41,83.209 41,83.466 C41,83.724 41.209,83.932 41.466,83.932" id="Fill-305" fill="#29FF9C"></path>
            <path d="M47.466,83.932 C47.723,83.932 47.931,83.724 47.931,83.466 C47.931,83.209 47.723,83 47.466,83 C47.209,83 47,83.209 47,83.466 C47,83.724 47.209,83.932 47.466,83.932" id="Fill-307" fill="#29FF9C"></path>
            <path d="M53.466,83.932 C53.723,83.932 53.931,83.724 53.931,83.466 C53.931,83.209 53.723,83 53.466,83 C53.209,83 53,83.209 53,83.466 C53,83.724 53.209,83.932 53.466,83.932" id="Fill-309" fill="#29FF9C"></path>
            <path d="M59.466,83.932 C59.723,83.932 59.931,83.724 59.931,83.466 C59.931,83.209 59.723,83 59.466,83 C59.209,83 59,83.209 59,83.466 C59,83.724 59.209,83.932 59.466,83.932" id="Fill-311" fill="#29FF9C"></path>
            <path d="M65.466,83.932 C65.723,83.932 65.931,83.724 65.931,83.466 C65.931,83.209 65.723,83 65.466,83 C65.209,83 65,83.209 65,83.466 C65,83.724 65.209,83.932 65.466,83.932" id="Fill-313" fill="#29FF9C"></path>
            <path d="M71.466,83.932 C71.723,83.932 71.931,83.724 71.931,83.466 C71.931,83.209 71.723,83 71.466,83 C71.209,83 71,83.209 71,83.466 C71,83.724 71.209,83.932 71.466,83.932" id="Fill-315" fill="#29FF9C"></path>
            <path d="M77.466,83.932 C77.723,83.932 77.931,83.724 77.931,83.466 C77.931,83.209 77.723,83 77.466,83 C77.209,83 77,83.209 77,83.466 C77,83.724 77.209,83.932 77.466,83.932" id="Fill-317" fill="#29FF9C"></path>
            <path d="M83.466,83.932 C83.723,83.932 83.931,83.724 83.931,83.466 C83.931,83.209 83.723,83 83.466,83 C83.209,83 83,83.209 83,83.466 C83,83.724 83.209,83.932 83.466,83.932" id="Fill-319" fill="#29FF9C"></path>
            <path d="M89.466,83.932 C89.723,83.932 89.931,83.724 89.931,83.466 C89.931,83.209 89.723,83 89.466,83 C89.209,83 89,83.209 89,83.466 C89,83.724 89.209,83.932 89.466,83.932" id="Fill-321" fill="#29FF9C"></path>
            <path d="M95.466,83.932 C95.723,83.932 95.931,83.724 95.931,83.466 C95.931,83.209 95.723,83 95.466,83 C95.209,83 95,83.209 95,83.466 C95,83.724 95.209,83.932 95.466,83.932" id="Fill-323" fill="#29FF9C"></path>
            <path d="M101.466,83.932 C101.723,83.932 101.931,83.724 101.931,83.466 C101.931,83.209 101.723,83 101.466,83 C101.209,83 101,83.209 101,83.466 C101,83.724 101.209,83.932 101.466,83.932" id="Fill-325" fill="#29FF9C"></path>
            <path d="M107.466,83.932 C107.723,83.932 107.931,83.724 107.931,83.466 C107.931,83.209 107.723,83 107.466,83 C107.209,83 107,83.209 107,83.466 C107,83.724 107.209,83.932 107.466,83.932" id="Fill-327" fill="#29FF9C"></path>
            <path d="M113.466,83.932 C113.723,83.932 113.932,83.724 113.932,83.466 C113.932,83.209 113.723,83 113.466,83 C113.209,83 113,83.209 113,83.466 C113,83.724 113.209,83.932 113.466,83.932" id="Fill-329" fill="#29FF9C"></path>
            <path d="M12.466,89.932 C12.723,89.932 12.931,89.724 12.931,89.466 C12.931,89.209 12.723,89 12.466,89 C12.209,89 12,89.209 12,89.466 C12,89.724 12.209,89.932 12.466,89.932" id="Fill-331" fill="#29FF9C"></path>
            <path d="M18.466,89.932 C18.723,89.932 18.931,89.724 18.931,89.466 C18.931,89.209 18.723,89 18.466,89 C18.209,89 18,89.209 18,89.466 C18,89.724 18.209,89.932 18.466,89.932" id="Fill-333" fill="#29FF9C"></path>
            <path d="M24.466,89.932 C24.723,89.932 24.931,89.724 24.931,89.466 C24.931,89.209 24.723,89 24.466,89 C24.209,89 24,89.209 24,89.466 C24,89.724 24.209,89.932 24.466,89.932" id="Fill-335" fill="#29FF9C"></path>
            <path d="M30.466,89.932 C30.723,89.932 30.931,89.724 30.931,89.466 C30.931,89.209 30.723,89 30.466,89 C30.209,89 30,89.209 30,89.466 C30,89.724 30.209,89.932 30.466,89.932" id="Fill-337" fill="#29FF9C"></path>
            <path d="M36.466,89.932 C36.723,89.932 36.931,89.724 36.931,89.466 C36.931,89.209 36.723,89 36.466,89 C36.209,89 36,89.209 36,89.466 C36,89.724 36.209,89.932 36.466,89.932" id="Fill-339" fill="#29FF9C"></path>
            <path d="M41.466,89.932 C41.723,89.932 41.931,89.724 41.931,89.466 C41.931,89.209 41.723,89 41.466,89 C41.209,89 41,89.209 41,89.466 C41,89.724 41.209,89.932 41.466,89.932" id="Fill-341" fill="#29FF9C"></path>
            <path d="M47.466,89.932 C47.723,89.932 47.931,89.724 47.931,89.466 C47.931,89.209 47.723,89 47.466,89 C47.209,89 47,89.209 47,89.466 C47,89.724 47.209,89.932 47.466,89.932" id="Fill-343" fill="#29FF9C"></path>
            <path d="M53.466,89.932 C53.723,89.932 53.931,89.724 53.931,89.466 C53.931,89.209 53.723,89 53.466,89 C53.209,89 53,89.209 53,89.466 C53,89.724 53.209,89.932 53.466,89.932" id="Fill-345" fill="#29FF9C"></path>
            <path d="M59.466,89.932 C59.723,89.932 59.931,89.724 59.931,89.466 C59.931,89.209 59.723,89 59.466,89 C59.209,89 59,89.209 59,89.466 C59,89.724 59.209,89.932 59.466,89.932" id="Fill-347" fill="#29FF9C"></path>
            <path d="M65.466,89.932 C65.723,89.932 65.931,89.724 65.931,89.466 C65.931,89.209 65.723,89 65.466,89 C65.209,89 65,89.209 65,89.466 C65,89.724 65.209,89.932 65.466,89.932" id="Fill-349" fill="#29FF9C"></path>
            <path d="M71.466,89.932 C71.723,89.932 71.931,89.724 71.931,89.466 C71.931,89.209 71.723,89 71.466,89 C71.209,89 71,89.209 71,89.466 C71,89.724 71.209,89.932 71.466,89.932" id="Fill-351" fill="#29FF9C"></path>
            <path d="M77.466,89.932 C77.723,89.932 77.931,89.724 77.931,89.466 C77.931,89.209 77.723,89 77.466,89 C77.209,89 77,89.209 77,89.466 C77,89.724 77.209,89.932 77.466,89.932" id="Fill-353" fill="#29FF9C"></path>
            <path d="M83.466,89.932 C83.723,89.932 83.931,89.724 83.931,89.466 C83.931,89.209 83.723,89 83.466,89 C83.209,89 83,89.209 83,89.466 C83,89.724 83.209,89.932 83.466,89.932" id="Fill-355" fill="#29FF9C"></path>
            <path d="M89.466,89.932 C89.723,89.932 89.931,89.724 89.931,89.466 C89.931,89.209 89.723,89 89.466,89 C89.209,89 89,89.209 89,89.466 C89,89.724 89.209,89.932 89.466,89.932" id="Fill-357" fill="#29FF9C"></path>
            <path d="M95.466,89.932 C95.723,89.932 95.931,89.724 95.931,89.466 C95.931,89.209 95.723,89 95.466,89 C95.209,89 95,89.209 95,89.466 C95,89.724 95.209,89.932 95.466,89.932" id="Fill-359" fill="#29FF9C"></path>
            <path d="M101.466,89.932 C101.723,89.932 101.931,89.724 101.931,89.466 C101.931,89.209 101.723,89 101.466,89 C101.209,89 101,89.209 101,89.466 C101,89.724 101.209,89.932 101.466,89.932" id="Fill-361" fill="#29FF9C"></path>
            <path d="M30.466,95.932 C30.723,95.932 30.931,95.724 30.931,95.466 C30.931,95.209 30.723,95 30.466,95 C30.209,95 30,95.209 30,95.466 C30,95.724 30.209,95.932 30.466,95.932" id="Fill-363" fill="#29FF9C"></path>
            <path d="M36.466,95.932 C36.723,95.932 36.931,95.724 36.931,95.466 C36.931,95.209 36.723,95 36.466,95 C36.209,95 36,95.209 36,95.466 C36,95.724 36.209,95.932 36.466,95.932" id="Fill-365" fill="#29FF9C"></path>
            <path d="M41.466,95.932 C41.723,95.932 41.931,95.724 41.931,95.466 C41.931,95.209 41.723,95 41.466,95 C41.209,95 41,95.209 41,95.466 C41,95.724 41.209,95.932 41.466,95.932" id="Fill-367" fill="#29FF9C"></path>
            <path d="M47.466,95.932 C47.723,95.932 47.931,95.724 47.931,95.466 C47.931,95.209 47.723,95 47.466,95 C47.209,95 47,95.209 47,95.466 C47,95.724 47.209,95.932 47.466,95.932" id="Fill-369" fill="#29FF9C"></path>
            <path d="M53.466,95.932 C53.723,95.932 53.931,95.724 53.931,95.466 C53.931,95.209 53.723,95 53.466,95 C53.209,95 53,95.209 53,95.466 C53,95.724 53.209,95.932 53.466,95.932" id="Fill-371" fill="#29FF9C"></path>
            <path d="M59.466,95.932 C59.723,95.932 59.931,95.724 59.931,95.466 C59.931,95.209 59.723,95 59.466,95 C59.209,95 59,95.209 59,95.466 C59,95.724 59.209,95.932 59.466,95.932" id="Fill-373" fill="#29FF9C"></path>
            <path d="M65.466,95.932 C65.723,95.932 65.931,95.724 65.931,95.466 C65.931,95.209 65.723,95 65.466,95 C65.209,95 65,95.209 65,95.466 C65,95.724 65.209,95.932 65.466,95.932" id="Fill-375" fill="#29FF9C"></path>
            <path d="M71.466,95.932 C71.723,95.932 71.931,95.724 71.931,95.466 C71.931,95.209 71.723,95 71.466,95 C71.209,95 71,95.209 71,95.466 C71,95.724 71.209,95.932 71.466,95.932" id="Fill-377" fill="#29FF9C"></path>
            <path d="M77.466,95.932 C77.723,95.932 77.931,95.724 77.931,95.466 C77.931,95.209 77.723,95 77.466,95 C77.209,95 77,95.209 77,95.466 C77,95.724 77.209,95.932 77.466,95.932" id="Fill-379" fill="#29FF9C"></path>
            <path d="M83.466,95.932 C83.723,95.932 83.931,95.724 83.931,95.466 C83.931,95.209 83.723,95 83.466,95 C83.209,95 83,95.209 83,95.466 C83,95.724 83.209,95.932 83.466,95.932" id="Fill-381" fill="#29FF9C"></path>
            <path d="M47.466,101.932 C47.723,101.932 47.931,101.724 47.931,101.466 C47.931,101.209 47.723,101 47.466,101 C47.209,101 47,101.209 47,101.466 C47,101.724 47.209,101.932 47.466,101.932" id="Fill-383" fill="#29FF9C"></path>
            <path d="M53.466,101.932 C53.723,101.932 53.931,101.724 53.931,101.466 C53.931,101.209 53.723,101 53.466,101 C53.209,101 53,101.209 53,101.466 C53,101.724 53.209,101.932 53.466,101.932" id="Fill-385" fill="#29FF9C"></path>
            <path d="M59.466,101.932 C59.723,101.932 59.931,101.724 59.931,101.466 C59.931,101.209 59.723,101 59.466,101 C59.209,101 59,101.209 59,101.466 C59,101.724 59.209,101.932 59.466,101.932" id="Fill-387" fill="#29FF9C"></path>
            <path d="M65.466,101.932 C65.723,101.932 65.931,101.724 65.931,101.466 C65.931,101.209 65.723,101 65.466,101 C65.209,101 65,101.209 65,101.466 C65,101.724 65.209,101.932 65.466,101.932" id="Fill-389" fill="#29FF9C"></path>
            <path d="M6.67863249,101.578592 L55.5913322,118.636547 L55.5913322,30.353184 L6.67863249,101.578592 Z M57.7956661,124 C57.5546589,124 57.3121822,123.959808 57.0770532,123.877934 L2.48598941,104.840131 C1.83350658,104.612375 1.32357067,104.086896 1.1090155,103.421488 C0.894460336,102.757569 1.00026836,102.028152 1.39410935,101.453549 L55.9851732,21.9574371 C56.5362567,21.1580548 57.5355547,20.8112092 58.4540272,21.1014877 C59.3739692,21.3932548 60,22.2566472 60,23.2331738 L60,121.767089 C60,122.489063 59.6546544,123.164891 59.0756493,123.584678 C58.6965039,123.858582 58.2482893,124 57.7956661,124 Z" id="Fill-391" fill="#262626"></path>
            <g id="Group-395" transform="translate(56.000000, 21.000000)">
                <mask id="mask-6" fill="white">
                    <use xlink:href="#path-5"></use>
                </mask>
                <g id="Clip-394"></g>
                <path d="M4.5304,9.46017143 L4.5304,97.6536571 L54.2898286,80.5293143 L4.5304,9.46017143 Z M2.31611429,102.999257 C1.85997143,102.999257 1.40825714,102.858114 1.0274,102.584743 C0.447257143,102.165771 0.101828571,101.491257 0.101828571,100.770686 L0.101828571,2.42828571 C0.101828571,1.45662857 0.726257143,0.597885714 1.6474,0.303714286 C2.56559048,0.00954285714 3.5694,0.349771429 4.12592381,1.14462857 L59.6114952,80.3926286 C60.013019,80.9661143 60.1222571,81.6970857 59.9082095,82.3641714 C59.6926857,83.0312571 59.1789714,83.5586857 58.5176381,83.7845143 L3.03206667,102.8804 C2.79882857,102.960629 2.55673333,102.999257 2.31611429,102.999257 Z" id="Fill-393" fill="#262626" mask="url(#mask-6)"></path>
            </g>
        </g>
    </g>
</svg>