<?xml version="1.0" encoding="UTF-8"?>
<svg width="121px" height="129px" viewBox="0 0 121 129" version="1.1" xmlns="http://www.w3.org/2000/svg" xmlns:xlink="http://www.w3.org/1999/xlink">
    <!-- Generator: Sketch 51.3 (57544) - http://www.bohemiancoding.com/sketch -->
    <title>Group 396</title>
    <desc>Created with Sketch.</desc>
    <defs>
        <polygon id="path-1" points="0.0002 0.407 2.0002 0.407 2.0002 1.9064 0.0002 1.9064"></polygon>
        <polygon id="path-3" points="0.0002 0.407 2.0002 0.407 2.0002 1.9064 0.0002 1.9064"></polygon>
        <polygon id="path-5" points="0.155142857 0.245167325 62.9677381 0.245167325 62.9677381 106.999229 0.155142857 106.999229"></polygon>
    </defs>
    <g id="Page-1" stroke="none" stroke-width="1" fill="none" fill-rule="evenodd">
        <g id="Group-396">
            <g id="Group-3" transform="translate(56.000000, 0.000000)">
                <mask id="mask-2" fill="white">
                    <use xlink:href="#path-1"></use>
                </mask>
                <g id="Clip-2"></g>
                <path d="M0.9322,1.8044 C1.4462,1.8044 1.8622,1.4924 1.8622,1.1054 C1.8622,0.7199 1.4462,0.4064 0.9322,0.4064 C0.4182,0.4064 0.0002,0.7199 0.0002,1.1054 C0.0002,1.4924 0.4182,1.8044 0.9322,1.8044" id="Fill-1" fill="#262626" mask="url(#mask-2)"></path>
            </g>
            <g id="Group-6" transform="translate(62.000000, 0.000000)">
                <mask id="mask-4" fill="white">
                    <use xlink:href="#path-3"></use>
                </mask>
                <g id="Clip-5"></g>
                <path d="M0.9322,1.8044 C1.4462,1.8044 1.8622,1.4924 1.8622,1.1054 C1.8622,0.7199 1.4462,0.4064 0.9322,0.4064 C0.4182,0.4064 0.0002,0.7199 0.0002,1.1054 C0.0002,1.4924 0.4182,1.8044 0.9322,1.8044" id="Fill-4" fill="#262626" mask="url(#mask-4)"></path>
            </g>
            <path d="M56.932,8.864 C57.446,8.864 57.862,8.448 57.862,7.932 C57.862,7.418 57.446,7 56.932,7 C56.418,7 56,7.418 56,7.932 C56,8.448 56.418,8.864 56.932,8.864" id="Fill-7" fill="#262626"></path>
            <path d="M62.932,8.864 C63.446,8.864 63.862,8.448 63.862,7.932 C63.862,7.418 63.446,7 62.932,7 C62.418,7 62,7.418 62,7.932 C62,8.448 62.418,8.864 62.932,8.864" id="Fill-9" fill="#262626"></path>
            <path d="M49.932,14.864 C50.446,14.864 50.862,14.448 50.862,13.932 C50.862,13.418 50.446,13 49.932,13 C49.418,13 49,13.418 49,13.932 C49,14.448 49.418,14.864 49.932,14.864" id="Fill-11" fill="#262626"></path>
            <path d="M56.932,14.864 C57.446,14.864 57.862,14.448 57.862,13.932 C57.862,13.418 57.446,13 56.932,13 C56.418,13 56,13.418 56,13.932 C56,14.448 56.418,14.864 56.932,14.864" id="Fill-13" fill="#262626"></path>
            <path d="M62.932,14.864 C63.446,14.864 63.862,14.448 63.862,13.932 C63.862,13.418 63.446,13 62.932,13 C62.418,13 62,13.418 62,13.932 C62,14.448 62.418,14.864 62.932,14.864" id="Fill-15" fill="#262626"></path>
            <path d="M68.932,14.864 C69.446,14.864 69.862,14.448 69.862,13.932 C69.862,13.418 69.446,13 68.932,13 C68.418,13 68,13.418 68,13.932 C68,14.448 68.418,14.864 68.932,14.864" id="Fill-17" fill="#262626"></path>
            <path d="M49.932,20.864 C50.446,20.864 50.862,20.448 50.862,19.932 C50.862,19.418 50.446,19 49.932,19 C49.418,19 49,19.418 49,19.932 C49,20.448 49.418,20.864 49.932,20.864" id="Fill-19" fill="#262626"></path>
            <path d="M56.932,20.864 C57.446,20.864 57.862,20.448 57.862,19.932 C57.862,19.418 57.446,19 56.932,19 C56.418,19 56,19.418 56,19.932 C56,20.448 56.418,20.864 56.932,20.864" id="Fill-21" fill="#262626"></path>
            <path d="M62.932,20.864 C63.446,20.864 63.862,20.448 63.862,19.932 C63.862,19.418 63.446,19 62.932,19 C62.418,19 62,19.418 62,19.932 C62,20.448 62.418,20.864 62.932,20.864" id="Fill-23" fill="#262626"></path>
            <path d="M68.932,20.864 C69.446,20.864 69.862,20.448 69.862,19.932 C69.862,19.418 69.446,19 68.932,19 C68.418,19 68,19.418 68,19.932 C68,20.448 68.418,20.864 68.932,20.864" id="Fill-25" fill="#262626"></path>
            <path d="M74.932,20.864 C75.446,20.864 75.862,20.448 75.862,19.932 C75.862,19.418 75.446,19 74.932,19 C74.418,19 74,19.418 74,19.932 C74,20.448 74.418,20.864 74.932,20.864" id="Fill-27" fill="#262626"></path>
            <path d="M43.932,26.864 C44.446,26.864 44.862,26.448 44.862,25.932 C44.862,25.418 44.446,25 43.932,25 C43.418,25 43,25.418 43,25.932 C43,26.448 43.418,26.864 43.932,26.864" id="Fill-29" fill="#262626"></path>
            <path d="M49.932,26.864 C50.446,26.864 50.862,26.448 50.862,25.932 C50.862,25.418 50.446,25 49.932,25 C49.418,25 49,25.418 49,25.932 C49,26.448 49.418,26.864 49.932,26.864" id="Fill-31" fill="#262626"></path>
            <path d="M56.932,26.864 C57.446,26.864 57.862,26.448 57.862,25.932 C57.862,25.418 57.446,25 56.932,25 C56.418,25 56,25.418 56,25.932 C56,26.448 56.418,26.864 56.932,26.864" id="Fill-33" fill="#262626"></path>
            <path d="M62.932,26.864 C63.446,26.864 63.862,26.448 63.862,25.932 C63.862,25.418 63.446,25 62.932,25 C62.418,25 62,25.418 62,25.932 C62,26.448 62.418,26.864 62.932,26.864" id="Fill-35" fill="#262626"></path>
            <path d="M68.932,26.864 C69.446,26.864 69.862,26.448 69.862,25.932 C69.862,25.418 69.446,25 68.932,25 C68.418,25 68,25.418 68,25.932 C68,26.448 68.418,26.864 68.932,26.864" id="Fill-37" fill="#262626"></path>
            <path d="M74.932,26.864 C75.446,26.864 75.862,26.448 75.862,25.932 C75.862,25.418 75.446,25 74.932,25 C74.418,25 74,25.418 74,25.932 C74,26.448 74.418,26.864 74.932,26.864" id="Fill-39" fill="#262626"></path>
            <path d="M80.932,26.864 C81.446,26.864 81.862,26.448 81.862,25.932 C81.862,25.418 81.446,25 80.932,25 C80.418,25 80,25.418 80,25.932 C80,26.448 80.418,26.864 80.932,26.864" id="Fill-41" fill="#262626"></path>
            <path d="M37.932,32.864 C38.446,32.864 38.862,32.448 38.862,31.932 C38.862,31.418 38.446,31 37.932,31 C37.418,31 37,31.418 37,31.932 C37,32.448 37.418,32.864 37.932,32.864" id="Fill-43" fill="#262626"></path>
            <path d="M43.932,32.864 C44.446,32.864 44.862,32.448 44.862,31.932 C44.862,31.418 44.446,31 43.932,31 C43.418,31 43,31.418 43,31.932 C43,32.448 43.418,32.864 43.932,32.864" id="Fill-45" fill="#262626"></path>
            <path d="M49.932,32.864 C50.446,32.864 50.862,32.448 50.862,31.932 C50.862,31.418 50.446,31 49.932,31 C49.418,31 49,31.418 49,31.932 C49,32.448 49.418,32.864 49.932,32.864" id="Fill-47" fill="#262626"></path>
            <path d="M56.932,32.864 C57.446,32.864 57.862,32.448 57.862,31.932 C57.862,31.418 57.446,31 56.932,31 C56.418,31 56,31.418 56,31.932 C56,32.448 56.418,32.864 56.932,32.864" id="Fill-49" fill="#262626"></path>
            <path d="M62.932,32.864 C63.446,32.864 63.862,32.448 63.862,31.932 C63.862,31.418 63.446,31 62.932,31 C62.418,31 62,31.418 62,31.932 C62,32.448 62.418,32.864 62.932,32.864" id="Fill-51" fill="#262626"></path>
            <path d="M68.932,32.864 C69.446,32.864 69.862,32.448 69.862,31.932 C69.862,31.418 69.446,31 68.932,31 C68.418,31 68,31.418 68,31.932 C68,32.448 68.418,32.864 68.932,32.864" id="Fill-53" fill="#262626"></path>
            <path d="M74.932,32.864 C75.446,32.864 75.862,32.448 75.862,31.932 C75.862,31.418 75.446,31 74.932,31 C74.418,31 74,31.418 74,31.932 C74,32.448 74.418,32.864 74.932,32.864" id="Fill-55" fill="#262626"></path>
            <path d="M80.932,32.864 C81.446,32.864 81.862,32.448 81.862,31.932 C81.862,31.418 81.446,31 80.932,31 C80.418,31 80,31.418 80,31.932 C80,32.448 80.418,32.864 80.932,32.864" id="Fill-57" fill="#262626"></path>
            <path d="M37.932,39.864 C38.446,39.864 38.862,39.448 38.862,38.932 C38.862,38.418 38.446,38 37.932,38 C37.418,38 37,38.418 37,38.932 C37,39.448 37.418,39.864 37.932,39.864" id="Fill-59" fill="#262626"></path>
            <path d="M43.932,39.864 C44.446,39.864 44.862,39.448 44.862,38.932 C44.862,38.418 44.446,38 43.932,38 C43.418,38 43,38.418 43,38.932 C43,39.448 43.418,39.864 43.932,39.864" id="Fill-61" fill="#262626"></path>
            <path d="M49.932,39.864 C50.446,39.864 50.862,39.448 50.862,38.932 C50.862,38.418 50.446,38 49.932,38 C49.418,38 49,38.418 49,38.932 C49,39.448 49.418,39.864 49.932,39.864" id="Fill-63" fill="#262626"></path>
            <path d="M56.932,39.864 C57.446,39.864 57.862,39.448 57.862,38.932 C57.862,38.418 57.446,38 56.932,38 C56.418,38 56,38.418 56,38.932 C56,39.448 56.418,39.864 56.932,39.864" id="Fill-65" fill="#262626"></path>
            <path d="M62.932,39.864 C63.446,39.864 63.862,39.448 63.862,38.932 C63.862,38.418 63.446,38 62.932,38 C62.418,38 62,38.418 62,38.932 C62,39.448 62.418,39.864 62.932,39.864" id="Fill-67" fill="#262626"></path>
            <path d="M68.932,39.864 C69.446,39.864 69.862,39.448 69.862,38.932 C69.862,38.418 69.446,38 68.932,38 C68.418,38 68,38.418 68,38.932 C68,39.448 68.418,39.864 68.932,39.864" id="Fill-69" fill="#262626"></path>
            <path d="M74.932,39.864 C75.446,39.864 75.862,39.448 75.862,38.932 C75.862,38.418 75.446,38 74.932,38 C74.418,38 74,38.418 74,38.932 C74,39.448 74.418,39.864 74.932,39.864" id="Fill-71" fill="#262626"></path>
            <path d="M80.932,39.864 C81.446,39.864 81.862,39.448 81.862,38.932 C81.862,38.418 81.446,38 80.932,38 C80.418,38 80,38.418 80,38.932 C80,39.448 80.418,39.864 80.932,39.864" id="Fill-73" fill="#262626"></path>
            <path d="M86.932,39.864 C87.446,39.864 87.862,39.448 87.862,38.932 C87.862,38.418 87.446,38 86.932,38 C86.418,38 86,38.418 86,38.932 C86,39.448 86.418,39.864 86.932,39.864" id="Fill-75" fill="#262626"></path>
            <path d="M31.932,45.864 C32.446,45.864 32.862,45.448 32.862,44.932 C32.862,44.418 32.446,44 31.932,44 C31.418,44 31,44.418 31,44.932 C31,45.448 31.418,45.864 31.932,45.864" id="Fill-77" fill="#262626"></path>
            <path d="M37.932,45.864 C38.446,45.864 38.862,45.448 38.862,44.932 C38.862,44.418 38.446,44 37.932,44 C37.418,44 37,44.418 37,44.932 C37,45.448 37.418,45.864 37.932,45.864" id="Fill-79" fill="#262626"></path>
            <path d="M43.932,45.864 C44.446,45.864 44.862,45.448 44.862,44.932 C44.862,44.418 44.446,44 43.932,44 C43.418,44 43,44.418 43,44.932 C43,45.448 43.418,45.864 43.932,45.864" id="Fill-81" fill="#262626"></path>
            <path d="M49.932,45.864 C50.446,45.864 50.862,45.448 50.862,44.932 C50.862,44.418 50.446,44 49.932,44 C49.418,44 49,44.418 49,44.932 C49,45.448 49.418,45.864 49.932,45.864" id="Fill-83" fill="#262626"></path>
            <path d="M56.932,45.864 C57.446,45.864 57.862,45.448 57.862,44.932 C57.862,44.418 57.446,44 56.932,44 C56.418,44 56,44.418 56,44.932 C56,45.448 56.418,45.864 56.932,45.864" id="Fill-85" fill="#262626"></path>
            <path d="M62.932,45.864 C63.446,45.864 63.862,45.448 63.862,44.932 C63.862,44.418 63.446,44 62.932,44 C62.418,44 62,44.418 62,44.932 C62,45.448 62.418,45.864 62.932,45.864" id="Fill-87" fill="#262626"></path>
            <path d="M68.932,45.864 C69.446,45.864 69.862,45.448 69.862,44.932 C69.862,44.418 69.446,44 68.932,44 C68.418,44 68,44.418 68,44.932 C68,45.448 68.418,45.864 68.932,45.864" id="Fill-89" fill="#262626"></path>
            <path d="M74.932,45.864 C75.446,45.864 75.862,45.448 75.862,44.932 C75.862,44.418 75.446,44 74.932,44 C74.418,44 74,44.418 74,44.932 C74,45.448 74.418,45.864 74.932,45.864" id="Fill-91" fill="#262626"></path>
            <path d="M80.932,45.864 C81.446,45.864 81.862,45.448 81.862,44.932 C81.862,44.418 81.446,44 80.932,44 C80.418,44 80,44.418 80,44.932 C80,45.448 80.418,45.864 80.932,45.864" id="Fill-93" fill="#262626"></path>
            <path d="M86.932,45.864 C87.446,45.864 87.862,45.448 87.862,44.932 C87.862,44.418 87.446,44 86.932,44 C86.418,44 86,44.418 86,44.932 C86,45.448 86.418,45.864 86.932,45.864" id="Fill-95" fill="#262626"></path>
            <path d="M93.932,45.864 C94.446,45.864 94.862,45.448 94.862,44.932 C94.862,44.418 94.446,44 93.932,44 C93.418,44 93,44.418 93,44.932 C93,45.448 93.418,45.864 93.932,45.864" id="Fill-97" fill="#262626"></path>
            <path d="M25.932,51.864 C26.446,51.864 26.862,51.448 26.862,50.932 C26.862,50.418 26.446,50 25.932,50 C25.418,50 25,50.418 25,50.932 C25,51.448 25.418,51.864 25.932,51.864" id="Fill-99" fill="#262626"></path>
            <path d="M31.932,51.864 C32.446,51.864 32.862,51.448 32.862,50.932 C32.862,50.418 32.446,50 31.932,50 C31.418,50 31,50.418 31,50.932 C31,51.448 31.418,51.864 31.932,51.864" id="Fill-101" fill="#262626"></path>
            <path d="M37.932,51.864 C38.446,51.864 38.862,51.448 38.862,50.932 C38.862,50.418 38.446,50 37.932,50 C37.418,50 37,50.418 37,50.932 C37,51.448 37.418,51.864 37.932,51.864" id="Fill-103" fill="#262626"></path>
            <path d="M43.932,51.864 C44.446,51.864 44.862,51.448 44.862,50.932 C44.862,50.418 44.446,50 43.932,50 C43.418,50 43,50.418 43,50.932 C43,51.448 43.418,51.864 43.932,51.864" id="Fill-105" fill="#262626"></path>
            <path d="M49.932,51.864 C50.446,51.864 50.862,51.448 50.862,50.932 C50.862,50.418 50.446,50 49.932,50 C49.418,50 49,50.418 49,50.932 C49,51.448 49.418,51.864 49.932,51.864" id="Fill-107" fill="#262626"></path>
            <path d="M56.932,51.864 C57.446,51.864 57.862,51.448 57.862,50.932 C57.862,50.418 57.446,50 56.932,50 C56.418,50 56,50.418 56,50.932 C56,51.448 56.418,51.864 56.932,51.864" id="Fill-109" fill="#262626"></path>
            <path d="M62.932,51.864 C63.446,51.864 63.862,51.448 63.862,50.932 C63.862,50.418 63.446,50 62.932,50 C62.418,50 62,50.418 62,50.932 C62,51.448 62.418,51.864 62.932,51.864" id="Fill-111" fill="#262626"></path>
            <path d="M68.932,51.864 C69.446,51.864 69.862,51.448 69.862,50.932 C69.862,50.418 69.446,50 68.932,50 C68.418,50 68,50.418 68,50.932 C68,51.448 68.418,51.864 68.932,51.864" id="Fill-113" fill="#262626"></path>
            <path d="M74.932,51.864 C75.446,51.864 75.862,51.448 75.862,50.932 C75.862,50.418 75.446,50 74.932,50 C74.418,50 74,50.418 74,50.932 C74,51.448 74.418,51.864 74.932,51.864" id="Fill-115" fill="#262626"></path>
            <path d="M80.932,51.864 C81.446,51.864 81.862,51.448 81.862,50.932 C81.862,50.418 81.446,50 80.932,50 C80.418,50 80,50.418 80,50.932 C80,51.448 80.418,51.864 80.932,51.864" id="Fill-117" fill="#262626"></path>
            <path d="M86.932,51.864 C87.446,51.864 87.862,51.448 87.862,50.932 C87.862,50.418 87.446,50 86.932,50 C86.418,50 86,50.418 86,50.932 C86,51.448 86.418,51.864 86.932,51.864" id="Fill-119" fill="#262626"></path>
            <path d="M93.932,51.864 C94.446,51.864 94.862,51.448 94.862,50.932 C94.862,50.418 94.446,50 93.932,50 C93.418,50 93,50.418 93,50.932 C93,51.448 93.418,51.864 93.932,51.864" id="Fill-121" fill="#262626"></path>
            <path d="M25.932,57.864 C26.446,57.864 26.862,57.448 26.862,56.932 C26.862,56.418 26.446,56 25.932,56 C25.418,56 25,56.418 25,56.932 C25,57.448 25.418,57.864 25.932,57.864" id="Fill-123" fill="#262626"></path>
            <path d="M31.932,57.864 C32.446,57.864 32.862,57.448 32.862,56.932 C32.862,56.418 32.446,56 31.932,56 C31.418,56 31,56.418 31,56.932 C31,57.448 31.418,57.864 31.932,57.864" id="Fill-125" fill="#262626"></path>
            <path d="M37.932,57.864 C38.446,57.864 38.862,57.448 38.862,56.932 C38.862,56.418 38.446,56 37.932,56 C37.418,56 37,56.418 37,56.932 C37,57.448 37.418,57.864 37.932,57.864" id="Fill-127" fill="#262626"></path>
            <path d="M43.932,57.864 C44.446,57.864 44.862,57.448 44.862,56.932 C44.862,56.418 44.446,56 43.932,56 C43.418,56 43,56.418 43,56.932 C43,57.448 43.418,57.864 43.932,57.864" id="Fill-129" fill="#262626"></path>
            <path d="M49.932,57.864 C50.446,57.864 50.862,57.448 50.862,56.932 C50.862,56.418 50.446,56 49.932,56 C49.418,56 49,56.418 49,56.932 C49,57.448 49.418,57.864 49.932,57.864" id="Fill-131" fill="#262626"></path>
            <path d="M56.932,57.864 C57.446,57.864 57.862,57.448 57.862,56.932 C57.862,56.418 57.446,56 56.932,56 C56.418,56 56,56.418 56,56.932 C56,57.448 56.418,57.864 56.932,57.864" id="Fill-133" fill="#262626"></path>
            <path d="M62.932,57.864 C63.446,57.864 63.862,57.448 63.862,56.932 C63.862,56.418 63.446,56 62.932,56 C62.418,56 62,56.418 62,56.932 C62,57.448 62.418,57.864 62.932,57.864" id="Fill-135" fill="#262626"></path>
            <path d="M68.932,57.864 C69.446,57.864 69.862,57.448 69.862,56.932 C69.862,56.418 69.446,56 68.932,56 C68.418,56 68,56.418 68,56.932 C68,57.448 68.418,57.864 68.932,57.864" id="Fill-137" fill="#262626"></path>
            <path d="M74.932,57.864 C75.446,57.864 75.862,57.448 75.862,56.932 C75.862,56.418 75.446,56 74.932,56 C74.418,56 74,56.418 74,56.932 C74,57.448 74.418,57.864 74.932,57.864" id="Fill-139" fill="#262626"></path>
            <path d="M80.932,57.864 C81.446,57.864 81.862,57.448 81.862,56.932 C81.862,56.418 81.446,56 80.932,56 C80.418,56 80,56.418 80,56.932 C80,57.448 80.418,57.864 80.932,57.864" id="Fill-141" fill="#262626"></path>
            <path d="M86.932,57.864 C87.446,57.864 87.862,57.448 87.862,56.932 C87.862,56.418 87.446,56 86.932,56 C86.418,56 86,56.418 86,56.932 C86,57.448 86.418,57.864 86.932,57.864" id="Fill-143" fill="#262626"></path>
            <path d="M93.932,57.864 C94.446,57.864 94.862,57.448 94.862,56.932 C94.862,56.418 94.446,56 93.932,56 C93.418,56 93,56.418 93,56.932 C93,57.448 93.418,57.864 93.932,57.864" id="Fill-145" fill="#262626"></path>
            <path d="M99.932,57.864 C100.446,57.864 100.862,57.448 100.862,56.932 C100.862,56.418 100.446,56 99.932,56 C99.418,56 99,56.418 99,56.932 C99,57.448 99.418,57.864 99.932,57.864" id="Fill-147" fill="#262626"></path>
            <path d="M19.932,63.864 C20.446,63.864 20.862,63.448 20.862,62.932 C20.862,62.418 20.446,62 19.932,62 C19.418,62 19,62.418 19,62.932 C19,63.448 19.418,63.864 19.932,63.864" id="Fill-149" fill="#262626"></path>
            <path d="M25.932,63.864 C26.446,63.864 26.862,63.448 26.862,62.932 C26.862,62.418 26.446,62 25.932,62 C25.418,62 25,62.418 25,62.932 C25,63.448 25.418,63.864 25.932,63.864" id="Fill-151" fill="#262626"></path>
            <path d="M31.932,63.864 C32.446,63.864 32.862,63.448 32.862,62.932 C32.862,62.418 32.446,62 31.932,62 C31.418,62 31,62.418 31,62.932 C31,63.448 31.418,63.864 31.932,63.864" id="Fill-153" fill="#262626"></path>
            <path d="M37.932,63.864 C38.446,63.864 38.862,63.448 38.862,62.932 C38.862,62.418 38.446,62 37.932,62 C37.418,62 37,62.418 37,62.932 C37,63.448 37.418,63.864 37.932,63.864" id="Fill-155" fill="#262626"></path>
            <path d="M43.932,63.864 C44.446,63.864 44.862,63.448 44.862,62.932 C44.862,62.418 44.446,62 43.932,62 C43.418,62 43,62.418 43,62.932 C43,63.448 43.418,63.864 43.932,63.864" id="Fill-157" fill="#262626"></path>
            <path d="M49.932,63.864 C50.446,63.864 50.862,63.448 50.862,62.932 C50.862,62.418 50.446,62 49.932,62 C49.418,62 49,62.418 49,62.932 C49,63.448 49.418,63.864 49.932,63.864" id="Fill-159" fill="#262626"></path>
            <path d="M56.932,63.864 C57.446,63.864 57.862,63.448 57.862,62.932 C57.862,62.418 57.446,62 56.932,62 C56.418,62 56,62.418 56,62.932 C56,63.448 56.418,63.864 56.932,63.864" id="Fill-161" fill="#262626"></path>
            <path d="M62.932,63.864 C63.446,63.864 63.862,63.448 63.862,62.932 C63.862,62.418 63.446,62 62.932,62 C62.418,62 62,62.418 62,62.932 C62,63.448 62.418,63.864 62.932,63.864" id="Fill-163" fill="#262626"></path>
            <path d="M68.932,63.864 C69.446,63.864 69.862,63.448 69.862,62.932 C69.862,62.418 69.446,62 68.932,62 C68.418,62 68,62.418 68,62.932 C68,63.448 68.418,63.864 68.932,63.864" id="Fill-165" fill="#262626"></path>
            <path d="M74.932,63.864 C75.446,63.864 75.862,63.448 75.862,62.932 C75.862,62.418 75.446,62 74.932,62 C74.418,62 74,62.418 74,62.932 C74,63.448 74.418,63.864 74.932,63.864" id="Fill-167" fill="#262626"></path>
            <path d="M80.932,63.864 C81.446,63.864 81.862,63.448 81.862,62.932 C81.862,62.418 81.446,62 80.932,62 C80.418,62 80,62.418 80,62.932 C80,63.448 80.418,63.864 80.932,63.864" id="Fill-169" fill="#262626"></path>
            <path d="M86.932,63.864 C87.446,63.864 87.862,63.448 87.862,62.932 C87.862,62.418 87.446,62 86.932,62 C86.418,62 86,62.418 86,62.932 C86,63.448 86.418,63.864 86.932,63.864" id="Fill-171" fill="#262626"></path>
            <path d="M93.932,63.864 C94.446,63.864 94.862,63.448 94.862,62.932 C94.862,62.418 94.446,62 93.932,62 C93.418,62 93,62.418 93,62.932 C93,63.448 93.418,63.864 93.932,63.864" id="Fill-173" fill="#262626"></path>
            <path d="M99.932,63.864 C100.446,63.864 100.862,63.448 100.862,62.932 C100.862,62.418 100.446,62 99.932,62 C99.418,62 99,62.418 99,62.932 C99,63.448 99.418,63.864 99.932,63.864" id="Fill-175" fill="#262626"></path>
            <path d="M105.932,63.864 C106.446,63.864 106.862,63.448 106.862,62.932 C106.862,62.418 106.446,62 105.932,62 C105.418,62 105,62.418 105,62.932 C105,63.448 105.418,63.864 105.932,63.864" id="Fill-177" fill="#262626"></path>
            <path d="M12.932,69.864 C13.446,69.864 13.862,69.448 13.862,68.932 C13.862,68.418 13.446,68 12.932,68 C12.418,68 12,68.418 12,68.932 C12,69.448 12.418,69.864 12.932,69.864" id="Fill-179" fill="#262626"></path>
            <path d="M19.932,69.864 C20.446,69.864 20.862,69.448 20.862,68.932 C20.862,68.418 20.446,68 19.932,68 C19.418,68 19,68.418 19,68.932 C19,69.448 19.418,69.864 19.932,69.864" id="Fill-181" fill="#262626"></path>
            <path d="M25.932,69.864 C26.446,69.864 26.862,69.448 26.862,68.932 C26.862,68.418 26.446,68 25.932,68 C25.418,68 25,68.418 25,68.932 C25,69.448 25.418,69.864 25.932,69.864" id="Fill-183" fill="#262626"></path>
            <path d="M31.932,69.864 C32.446,69.864 32.862,69.448 32.862,68.932 C32.862,68.418 32.446,68 31.932,68 C31.418,68 31,68.418 31,68.932 C31,69.448 31.418,69.864 31.932,69.864" id="Fill-185" fill="#262626"></path>
            <path d="M37.932,69.864 C38.446,69.864 38.862,69.448 38.862,68.932 C38.862,68.418 38.446,68 37.932,68 C37.418,68 37,68.418 37,68.932 C37,69.448 37.418,69.864 37.932,69.864" id="Fill-187" fill="#262626"></path>
            <path d="M43.932,69.864 C44.446,69.864 44.862,69.448 44.862,68.932 C44.862,68.418 44.446,68 43.932,68 C43.418,68 43,68.418 43,68.932 C43,69.448 43.418,69.864 43.932,69.864" id="Fill-189" fill="#262626"></path>
            <path d="M49.932,69.864 C50.446,69.864 50.862,69.448 50.862,68.932 C50.862,68.418 50.446,68 49.932,68 C49.418,68 49,68.418 49,68.932 C49,69.448 49.418,69.864 49.932,69.864" id="Fill-191" fill="#262626"></path>
            <path d="M56.932,69.864 C57.446,69.864 57.862,69.448 57.862,68.932 C57.862,68.418 57.446,68 56.932,68 C56.418,68 56,68.418 56,68.932 C56,69.448 56.418,69.864 56.932,69.864" id="Fill-193" fill="#262626"></path>
            <path d="M62.932,69.864 C63.446,69.864 63.862,69.448 63.862,68.932 C63.862,68.418 63.446,68 62.932,68 C62.418,68 62,68.418 62,68.932 C62,69.448 62.418,69.864 62.932,69.864" id="Fill-195" fill="#262626"></path>
            <path d="M68.932,69.864 C69.446,69.864 69.862,69.448 69.862,68.932 C69.862,68.418 69.446,68 68.932,68 C68.418,68 68,68.418 68,68.932 C68,69.448 68.418,69.864 68.932,69.864" id="Fill-197" fill="#262626"></path>
            <path d="M74.932,69.864 C75.446,69.864 75.862,69.448 75.862,68.932 C75.862,68.418 75.446,68 74.932,68 C74.418,68 74,68.418 74,68.932 C74,69.448 74.418,69.864 74.932,69.864" id="Fill-199" fill="#262626"></path>
            <path d="M80.932,69.864 C81.446,69.864 81.862,69.448 81.862,68.932 C81.862,68.418 81.446,68 80.932,68 C80.418,68 80,68.418 80,68.932 C80,69.448 80.418,69.864 80.932,69.864" id="Fill-201" fill="#262626"></path>
            <path d="M86.932,69.864 C87.446,69.864 87.862,69.448 87.862,68.932 C87.862,68.418 87.446,68 86.932,68 C86.418,68 86,68.418 86,68.932 C86,69.448 86.418,69.864 86.932,69.864" id="Fill-203" fill="#262626"></path>
            <path d="M93.932,69.864 C94.446,69.864 94.862,69.448 94.862,68.932 C94.862,68.418 94.446,68 93.932,68 C93.418,68 93,68.418 93,68.932 C93,69.448 93.418,69.864 93.932,69.864" id="Fill-205" fill="#262626"></path>
            <path d="M99.932,69.864 C100.446,69.864 100.862,69.448 100.862,68.932 C100.862,68.418 100.446,68 99.932,68 C99.418,68 99,68.418 99,68.932 C99,69.448 99.418,69.864 99.932,69.864" id="Fill-207" fill="#262626"></path>
            <path d="M105.932,69.864 C106.446,69.864 106.862,69.448 106.862,68.932 C106.862,68.418 106.446,68 105.932,68 C105.418,68 105,68.418 105,68.932 C105,69.448 105.418,69.864 105.932,69.864" id="Fill-209" fill="#262626"></path>
            <path d="M111.932,69.864 C112.446,69.864 112.862,69.448 112.862,68.932 C112.862,68.418 112.446,68 111.932,68 C111.418,68 111,68.418 111,68.932 C111,69.448 111.418,69.864 111.932,69.864" id="Fill-211" fill="#262626"></path>
            <path d="M0.932,76.864 C1.446,76.864 1.862,76.448 1.862,75.932 C1.862,75.418 1.446,75 0.932,75 C0.418,75 0,75.418 0,75.932 C0,76.448 0.418,76.864 0.932,76.864" id="Fill-213" fill="#262626"></path>
            <path d="M6.932,76.864 C7.446,76.864 7.862,76.448 7.862,75.932 C7.862,75.418 7.446,75 6.932,75 C6.418,75 6,75.418 6,75.932 C6,76.448 6.418,76.864 6.932,76.864" id="Fill-215" fill="#262626"></path>
            <path d="M12.932,76.864 C13.446,76.864 13.862,76.448 13.862,75.932 C13.862,75.418 13.446,75 12.932,75 C12.418,75 12,75.418 12,75.932 C12,76.448 12.418,76.864 12.932,76.864" id="Fill-217" fill="#262626"></path>
            <path d="M19.932,76.864 C20.446,76.864 20.862,76.448 20.862,75.932 C20.862,75.418 20.446,75 19.932,75 C19.418,75 19,75.418 19,75.932 C19,76.448 19.418,76.864 19.932,76.864" id="Fill-219" fill="#262626"></path>
            <path d="M25.932,76.864 C26.446,76.864 26.862,76.448 26.862,75.932 C26.862,75.418 26.446,75 25.932,75 C25.418,75 25,75.418 25,75.932 C25,76.448 25.418,76.864 25.932,76.864" id="Fill-221" fill="#262626"></path>
            <path d="M31.932,76.864 C32.446,76.864 32.862,76.448 32.862,75.932 C32.862,75.418 32.446,75 31.932,75 C31.418,75 31,75.418 31,75.932 C31,76.448 31.418,76.864 31.932,76.864" id="Fill-223" fill="#262626"></path>
            <path d="M37.932,76.864 C38.446,76.864 38.862,76.448 38.862,75.932 C38.862,75.418 38.446,75 37.932,75 C37.418,75 37,75.418 37,75.932 C37,76.448 37.418,76.864 37.932,76.864" id="Fill-225" fill="#262626"></path>
            <path d="M43.932,76.864 C44.446,76.864 44.862,76.448 44.862,75.932 C44.862,75.418 44.446,75 43.932,75 C43.418,75 43,75.418 43,75.932 C43,76.448 43.418,76.864 43.932,76.864" id="Fill-227" fill="#262626"></path>
            <path d="M49.932,76.864 C50.446,76.864 50.862,76.448 50.862,75.932 C50.862,75.418 50.446,75 49.932,75 C49.418,75 49,75.418 49,75.932 C49,76.448 49.418,76.864 49.932,76.864" id="Fill-229" fill="#262626"></path>
            <path d="M56.932,76.864 C57.446,76.864 57.862,76.448 57.862,75.932 C57.862,75.418 57.446,75 56.932,75 C56.418,75 56,75.418 56,75.932 C56,76.448 56.418,76.864 56.932,76.864" id="Fill-231" fill="#262626"></path>
            <path d="M62.932,76.864 C63.446,76.864 63.862,76.448 63.862,75.932 C63.862,75.418 63.446,75 62.932,75 C62.418,75 62,75.418 62,75.932 C62,76.448 62.418,76.864 62.932,76.864" id="Fill-233" fill="#262626"></path>
            <path d="M68.932,76.864 C69.446,76.864 69.862,76.448 69.862,75.932 C69.862,75.418 69.446,75 68.932,75 C68.418,75 68,75.418 68,75.932 C68,76.448 68.418,76.864 68.932,76.864" id="Fill-235" fill="#262626"></path>
            <path d="M74.932,76.864 C75.446,76.864 75.862,76.448 75.862,75.932 C75.862,75.418 75.446,75 74.932,75 C74.418,75 74,75.418 74,75.932 C74,76.448 74.418,76.864 74.932,76.864" id="Fill-237" fill="#262626"></path>
            <path d="M80.932,76.864 C81.446,76.864 81.862,76.448 81.862,75.932 C81.862,75.418 81.446,75 80.932,75 C80.418,75 80,75.418 80,75.932 C80,76.448 80.418,76.864 80.932,76.864" id="Fill-239" fill="#262626"></path>
            <path d="M86.932,76.864 C87.446,76.864 87.862,76.448 87.862,75.932 C87.862,75.418 87.446,75 86.932,75 C86.418,75 86,75.418 86,75.932 C86,76.448 86.418,76.864 86.932,76.864" id="Fill-241" fill="#262626"></path>
            <path d="M93.932,76.864 C94.446,76.864 94.862,76.448 94.862,75.932 C94.862,75.418 94.446,75 93.932,75 C93.418,75 93,75.418 93,75.932 C93,76.448 93.418,76.864 93.932,76.864" id="Fill-243" fill="#262626"></path>
            <path d="M99.932,76.864 C100.446,76.864 100.862,76.448 100.862,75.932 C100.862,75.418 100.446,75 99.932,75 C99.418,75 99,75.418 99,75.932 C99,76.448 99.418,76.864 99.932,76.864" id="Fill-245" fill="#262626"></path>
            <path d="M105.932,76.864 C106.446,76.864 106.862,76.448 106.862,75.932 C106.862,75.418 106.446,75 105.932,75 C105.418,75 105,75.418 105,75.932 C105,76.448 105.418,76.864 105.932,76.864" id="Fill-247" fill="#262626"></path>
            <path d="M111.932,76.864 C112.446,76.864 112.862,76.448 112.862,75.932 C112.862,75.418 112.446,75 111.932,75 C111.418,75 111,75.418 111,75.932 C111,76.448 111.418,76.864 111.932,76.864" id="Fill-249" fill="#262626"></path>
            <path d="M0.932,82.864 C1.446,82.864 1.862,82.448 1.862,81.932 C1.862,81.418 1.446,81 0.932,81 C0.418,81 0,81.418 0,81.932 C0,82.448 0.418,82.864 0.932,82.864" id="Fill-251" fill="#262626"></path>
            <path d="M6.932,82.864 C7.446,82.864 7.862,82.448 7.862,81.932 C7.862,81.418 7.446,81 6.932,81 C6.418,81 6,81.418 6,81.932 C6,82.448 6.418,82.864 6.932,82.864" id="Fill-253" fill="#262626"></path>
            <path d="M12.932,82.864 C13.446,82.864 13.862,82.448 13.862,81.932 C13.862,81.418 13.446,81 12.932,81 C12.418,81 12,81.418 12,81.932 C12,82.448 12.418,82.864 12.932,82.864" id="Fill-255" fill="#262626"></path>
            <path d="M19.932,82.864 C20.446,82.864 20.862,82.448 20.862,81.932 C20.862,81.418 20.446,81 19.932,81 C19.418,81 19,81.418 19,81.932 C19,82.448 19.418,82.864 19.932,82.864" id="Fill-257" fill="#262626"></path>
            <path d="M25.932,82.864 C26.446,82.864 26.862,82.448 26.862,81.932 C26.862,81.418 26.446,81 25.932,81 C25.418,81 25,81.418 25,81.932 C25,82.448 25.418,82.864 25.932,82.864" id="Fill-259" fill="#262626"></path>
            <path d="M31.932,82.864 C32.446,82.864 32.862,82.448 32.862,81.932 C32.862,81.418 32.446,81 31.932,81 C31.418,81 31,81.418 31,81.932 C31,82.448 31.418,82.864 31.932,82.864" id="Fill-261" fill="#262626"></path>
            <path d="M37.932,82.864 C38.446,82.864 38.862,82.448 38.862,81.932 C38.862,81.418 38.446,81 37.932,81 C37.418,81 37,81.418 37,81.932 C37,82.448 37.418,82.864 37.932,82.864" id="Fill-263" fill="#262626"></path>
            <path d="M43.932,82.864 C44.446,82.864 44.862,82.448 44.862,81.932 C44.862,81.418 44.446,81 43.932,81 C43.418,81 43,81.418 43,81.932 C43,82.448 43.418,82.864 43.932,82.864" id="Fill-265" fill="#262626"></path>
            <path d="M49.932,82.864 C50.446,82.864 50.862,82.448 50.862,81.932 C50.862,81.418 50.446,81 49.932,81 C49.418,81 49,81.418 49,81.932 C49,82.448 49.418,82.864 49.932,82.864" id="Fill-267" fill="#262626"></path>
            <path d="M56.932,82.864 C57.446,82.864 57.862,82.448 57.862,81.932 C57.862,81.418 57.446,81 56.932,81 C56.418,81 56,81.418 56,81.932 C56,82.448 56.418,82.864 56.932,82.864" id="Fill-269" fill="#262626"></path>
            <path d="M62.932,82.864 C63.446,82.864 63.862,82.448 63.862,81.932 C63.862,81.418 63.446,81 62.932,81 C62.418,81 62,81.418 62,81.932 C62,82.448 62.418,82.864 62.932,82.864" id="Fill-271" fill="#262626"></path>
            <path d="M68.932,82.864 C69.446,82.864 69.862,82.448 69.862,81.932 C69.862,81.418 69.446,81 68.932,81 C68.418,81 68,81.418 68,81.932 C68,82.448 68.418,82.864 68.932,82.864" id="Fill-273" fill="#262626"></path>
            <path d="M74.932,82.864 C75.446,82.864 75.862,82.448 75.862,81.932 C75.862,81.418 75.446,81 74.932,81 C74.418,81 74,81.418 74,81.932 C74,82.448 74.418,82.864 74.932,82.864" id="Fill-275" fill="#262626"></path>
            <path d="M80.932,82.864 C81.446,82.864 81.862,82.448 81.862,81.932 C81.862,81.418 81.446,81 80.932,81 C80.418,81 80,81.418 80,81.932 C80,82.448 80.418,82.864 80.932,82.864" id="Fill-277" fill="#262626"></path>
            <path d="M86.932,82.864 C87.446,82.864 87.862,82.448 87.862,81.932 C87.862,81.418 87.446,81 86.932,81 C86.418,81 86,81.418 86,81.932 C86,82.448 86.418,82.864 86.932,82.864" id="Fill-279" fill="#262626"></path>
            <path d="M93.932,82.864 C94.446,82.864 94.862,82.448 94.862,81.932 C94.862,81.418 94.446,81 93.932,81 C93.418,81 93,81.418 93,81.932 C93,82.448 93.418,82.864 93.932,82.864" id="Fill-281" fill="#262626"></path>
            <path d="M99.932,82.864 C100.446,82.864 100.862,82.448 100.862,81.932 C100.862,81.418 100.446,81 99.932,81 C99.418,81 99,81.418 99,81.932 C99,82.448 99.418,82.864 99.932,82.864" id="Fill-283" fill="#262626"></path>
            <path d="M105.932,82.864 C106.446,82.864 106.862,82.448 106.862,81.932 C106.862,81.418 106.446,81 105.932,81 C105.418,81 105,81.418 105,81.932 C105,82.448 105.418,82.864 105.932,82.864" id="Fill-285" fill="#262626"></path>
            <path d="M111.932,82.864 C112.446,82.864 112.862,82.448 112.862,81.932 C112.862,81.418 112.446,81 111.932,81 C111.418,81 111,81.418 111,81.932 C111,82.448 111.418,82.864 111.932,82.864" id="Fill-287" fill="#262626"></path>
            <path d="M117.932,82.864 C118.446,82.864 118.864,82.448 118.864,81.932 C118.864,81.418 118.446,81 117.932,81 C117.418,81 117,81.418 117,81.932 C117,82.448 117.418,82.864 117.932,82.864" id="Fill-289" fill="#262626"></path>
            <path d="M0.932,88.864 C1.446,88.864 1.862,88.448 1.862,87.932 C1.862,87.418 1.446,87 0.932,87 C0.418,87 0,87.418 0,87.932 C0,88.448 0.418,88.864 0.932,88.864" id="Fill-291" fill="#262626"></path>
            <path d="M6.932,88.864 C7.446,88.864 7.862,88.448 7.862,87.932 C7.862,87.418 7.446,87 6.932,87 C6.418,87 6,87.418 6,87.932 C6,88.448 6.418,88.864 6.932,88.864" id="Fill-293" fill="#262626"></path>
            <path d="M12.932,88.864 C13.446,88.864 13.862,88.448 13.862,87.932 C13.862,87.418 13.446,87 12.932,87 C12.418,87 12,87.418 12,87.932 C12,88.448 12.418,88.864 12.932,88.864" id="Fill-295" fill="#262626"></path>
            <path d="M19.932,88.864 C20.446,88.864 20.862,88.448 20.862,87.932 C20.862,87.418 20.446,87 19.932,87 C19.418,87 19,87.418 19,87.932 C19,88.448 19.418,88.864 19.932,88.864" id="Fill-297" fill="#262626"></path>
            <path d="M25.932,88.864 C26.446,88.864 26.862,88.448 26.862,87.932 C26.862,87.418 26.446,87 25.932,87 C25.418,87 25,87.418 25,87.932 C25,88.448 25.418,88.864 25.932,88.864" id="Fill-299" fill="#262626"></path>
            <path d="M31.932,88.864 C32.446,88.864 32.862,88.448 32.862,87.932 C32.862,87.418 32.446,87 31.932,87 C31.418,87 31,87.418 31,87.932 C31,88.448 31.418,88.864 31.932,88.864" id="Fill-301" fill="#262626"></path>
            <path d="M37.932,88.864 C38.446,88.864 38.862,88.448 38.862,87.932 C38.862,87.418 38.446,87 37.932,87 C37.418,87 37,87.418 37,87.932 C37,88.448 37.418,88.864 37.932,88.864" id="Fill-303" fill="#262626"></path>
            <path d="M43.932,88.864 C44.446,88.864 44.862,88.448 44.862,87.932 C44.862,87.418 44.446,87 43.932,87 C43.418,87 43,87.418 43,87.932 C43,88.448 43.418,88.864 43.932,88.864" id="Fill-305" fill="#262626"></path>
            <path d="M49.932,88.864 C50.446,88.864 50.862,88.448 50.862,87.932 C50.862,87.418 50.446,87 49.932,87 C49.418,87 49,87.418 49,87.932 C49,88.448 49.418,88.864 49.932,88.864" id="Fill-307" fill="#262626"></path>
            <path d="M56.932,88.864 C57.446,88.864 57.862,88.448 57.862,87.932 C57.862,87.418 57.446,87 56.932,87 C56.418,87 56,87.418 56,87.932 C56,88.448 56.418,88.864 56.932,88.864" id="Fill-309" fill="#262626"></path>
            <path d="M62.932,88.864 C63.446,88.864 63.862,88.448 63.862,87.932 C63.862,87.418 63.446,87 62.932,87 C62.418,87 62,87.418 62,87.932 C62,88.448 62.418,88.864 62.932,88.864" id="Fill-311" fill="#262626"></path>
            <path d="M68.932,88.864 C69.446,88.864 69.862,88.448 69.862,87.932 C69.862,87.418 69.446,87 68.932,87 C68.418,87 68,87.418 68,87.932 C68,88.448 68.418,88.864 68.932,88.864" id="Fill-313" fill="#262626"></path>
            <path d="M74.932,88.864 C75.446,88.864 75.862,88.448 75.862,87.932 C75.862,87.418 75.446,87 74.932,87 C74.418,87 74,87.418 74,87.932 C74,88.448 74.418,88.864 74.932,88.864" id="Fill-315" fill="#262626"></path>
            <path d="M80.932,88.864 C81.446,88.864 81.862,88.448 81.862,87.932 C81.862,87.418 81.446,87 80.932,87 C80.418,87 80,87.418 80,87.932 C80,88.448 80.418,88.864 80.932,88.864" id="Fill-317" fill="#262626"></path>
            <path d="M86.932,88.864 C87.446,88.864 87.862,88.448 87.862,87.932 C87.862,87.418 87.446,87 86.932,87 C86.418,87 86,87.418 86,87.932 C86,88.448 86.418,88.864 86.932,88.864" id="Fill-319" fill="#262626"></path>
            <path d="M93.932,88.864 C94.446,88.864 94.862,88.448 94.862,87.932 C94.862,87.418 94.446,87 93.932,87 C93.418,87 93,87.418 93,87.932 C93,88.448 93.418,88.864 93.932,88.864" id="Fill-321" fill="#262626"></path>
            <path d="M99.932,88.864 C100.446,88.864 100.862,88.448 100.862,87.932 C100.862,87.418 100.446,87 99.932,87 C99.418,87 99,87.418 99,87.932 C99,88.448 99.418,88.864 99.932,88.864" id="Fill-323" fill="#262626"></path>
            <path d="M105.932,88.864 C106.446,88.864 106.862,88.448 106.862,87.932 C106.862,87.418 106.446,87 105.932,87 C105.418,87 105,87.418 105,87.932 C105,88.448 105.418,88.864 105.932,88.864" id="Fill-325" fill="#262626"></path>
            <path d="M111.932,88.864 C112.446,88.864 112.862,88.448 112.862,87.932 C112.862,87.418 112.446,87 111.932,87 C111.418,87 111,87.418 111,87.932 C111,88.448 111.418,88.864 111.932,88.864" id="Fill-327" fill="#262626"></path>
            <path d="M117.932,88.864 C118.446,88.864 118.864,88.448 118.864,87.932 C118.864,87.418 118.446,87 117.932,87 C117.418,87 117,87.418 117,87.932 C117,88.448 117.418,88.864 117.932,88.864" id="Fill-329" fill="#262626"></path>
            <path d="M12.932,94.864 C13.446,94.864 13.862,94.448 13.862,93.932 C13.862,93.418 13.446,93 12.932,93 C12.418,93 12,93.418 12,93.932 C12,94.448 12.418,94.864 12.932,94.864" id="Fill-331" fill="#262626"></path>
            <path d="M19.932,94.864 C20.446,94.864 20.862,94.448 20.862,93.932 C20.862,93.418 20.446,93 19.932,93 C19.418,93 19,93.418 19,93.932 C19,94.448 19.418,94.864 19.932,94.864" id="Fill-333" fill="#262626"></path>
            <path d="M25.932,94.864 C26.446,94.864 26.862,94.448 26.862,93.932 C26.862,93.418 26.446,93 25.932,93 C25.418,93 25,93.418 25,93.932 C25,94.448 25.418,94.864 25.932,94.864" id="Fill-335" fill="#262626"></path>
            <path d="M31.932,94.864 C32.446,94.864 32.862,94.448 32.862,93.932 C32.862,93.418 32.446,93 31.932,93 C31.418,93 31,93.418 31,93.932 C31,94.448 31.418,94.864 31.932,94.864" id="Fill-337" fill="#262626"></path>
            <path d="M37.932,94.864 C38.446,94.864 38.862,94.448 38.862,93.932 C38.862,93.418 38.446,93 37.932,93 C37.418,93 37,93.418 37,93.932 C37,94.448 37.418,94.864 37.932,94.864" id="Fill-339" fill="#262626"></path>
            <path d="M43.932,94.864 C44.446,94.864 44.862,94.448 44.862,93.932 C44.862,93.418 44.446,93 43.932,93 C43.418,93 43,93.418 43,93.932 C43,94.448 43.418,94.864 43.932,94.864" id="Fill-341" fill="#262626"></path>
            <path d="M49.932,94.864 C50.446,94.864 50.862,94.448 50.862,93.932 C50.862,93.418 50.446,93 49.932,93 C49.418,93 49,93.418 49,93.932 C49,94.448 49.418,94.864 49.932,94.864" id="Fill-343" fill="#262626"></path>
            <path d="M56.932,94.864 C57.446,94.864 57.862,94.448 57.862,93.932 C57.862,93.418 57.446,93 56.932,93 C56.418,93 56,93.418 56,93.932 C56,94.448 56.418,94.864 56.932,94.864" id="Fill-345" fill="#262626"></path>
            <path d="M62.932,94.864 C63.446,94.864 63.862,94.448 63.862,93.932 C63.862,93.418 63.446,93 62.932,93 C62.418,93 62,93.418 62,93.932 C62,94.448 62.418,94.864 62.932,94.864" id="Fill-347" fill="#262626"></path>
            <path d="M68.932,94.864 C69.446,94.864 69.862,94.448 69.862,93.932 C69.862,93.418 69.446,93 68.932,93 C68.418,93 68,93.418 68,93.932 C68,94.448 68.418,94.864 68.932,94.864" id="Fill-349" fill="#262626"></path>
            <path d="M74.932,94.864 C75.446,94.864 75.862,94.448 75.862,93.932 C75.862,93.418 75.446,93 74.932,93 C74.418,93 74,93.418 74,93.932 C74,94.448 74.418,94.864 74.932,94.864" id="Fill-351" fill="#262626"></path>
            <path d="M80.932,94.864 C81.446,94.864 81.862,94.448 81.862,93.932 C81.862,93.418 81.446,93 80.932,93 C80.418,93 80,93.418 80,93.932 C80,94.448 80.418,94.864 80.932,94.864" id="Fill-353" fill="#262626"></path>
            <path d="M86.932,94.864 C87.446,94.864 87.862,94.448 87.862,93.932 C87.862,93.418 87.446,93 86.932,93 C86.418,93 86,93.418 86,93.932 C86,94.448 86.418,94.864 86.932,94.864" id="Fill-355" fill="#262626"></path>
            <path d="M93.932,94.864 C94.446,94.864 94.862,94.448 94.862,93.932 C94.862,93.418 94.446,93 93.932,93 C93.418,93 93,93.418 93,93.932 C93,94.448 93.418,94.864 93.932,94.864" id="Fill-357" fill="#262626"></path>
            <path d="M99.932,94.864 C100.446,94.864 100.862,94.448 100.862,93.932 C100.862,93.418 100.446,93 99.932,93 C99.418,93 99,93.418 99,93.932 C99,94.448 99.418,94.864 99.932,94.864" id="Fill-359" fill="#262626"></path>
            <path d="M105.932,94.864 C106.446,94.864 106.862,94.448 106.862,93.932 C106.862,93.418 106.446,93 105.932,93 C105.418,93 105,93.418 105,93.932 C105,94.448 105.418,94.864 105.932,94.864" id="Fill-361" fill="#262626"></path>
            <path d="M31.932,100.864 C32.446,100.864 32.862,100.448 32.862,99.932 C32.862,99.418 32.446,99 31.932,99 C31.418,99 31,99.418 31,99.932 C31,100.448 31.418,100.864 31.932,100.864" id="Fill-363" fill="#262626"></path>
            <path d="M37.932,100.864 C38.446,100.864 38.862,100.448 38.862,99.932 C38.862,99.418 38.446,99 37.932,99 C37.418,99 37,99.418 37,99.932 C37,100.448 37.418,100.864 37.932,100.864" id="Fill-365" fill="#262626"></path>
            <path d="M43.932,100.864 C44.446,100.864 44.862,100.448 44.862,99.932 C44.862,99.418 44.446,99 43.932,99 C43.418,99 43,99.418 43,99.932 C43,100.448 43.418,100.864 43.932,100.864" id="Fill-367" fill="#262626"></path>
            <path d="M49.932,100.864 C50.446,100.864 50.862,100.448 50.862,99.932 C50.862,99.418 50.446,99 49.932,99 C49.418,99 49,99.418 49,99.932 C49,100.448 49.418,100.864 49.932,100.864" id="Fill-369" fill="#262626"></path>
            <path d="M56.932,100.864 C57.446,100.864 57.862,100.448 57.862,99.932 C57.862,99.418 57.446,99 56.932,99 C56.418,99 56,99.418 56,99.932 C56,100.448 56.418,100.864 56.932,100.864" id="Fill-371" fill="#262626"></path>
            <path d="M62.932,100.864 C63.446,100.864 63.862,100.448 63.862,99.932 C63.862,99.418 63.446,99 62.932,99 C62.418,99 62,99.418 62,99.932 C62,100.448 62.418,100.864 62.932,100.864" id="Fill-373" fill="#262626"></path>
            <path d="M68.932,100.864 C69.446,100.864 69.862,100.448 69.862,99.932 C69.862,99.418 69.446,99 68.932,99 C68.418,99 68,99.418 68,99.932 C68,100.448 68.418,100.864 68.932,100.864" id="Fill-375" fill="#262626"></path>
            <path d="M74.932,100.864 C75.446,100.864 75.862,100.448 75.862,99.932 C75.862,99.418 75.446,99 74.932,99 C74.418,99 74,99.418 74,99.932 C74,100.448 74.418,100.864 74.932,100.864" id="Fill-377" fill="#262626"></path>
            <path d="M80.932,100.864 C81.446,100.864 81.862,100.448 81.862,99.932 C81.862,99.418 81.446,99 80.932,99 C80.418,99 80,99.418 80,99.932 C80,100.448 80.418,100.864 80.932,100.864" id="Fill-379" fill="#262626"></path>
            <path d="M86.932,100.864 C87.446,100.864 87.862,100.448 87.862,99.932 C87.862,99.418 87.446,99 86.932,99 C86.418,99 86,99.418 86,99.932 C86,100.448 86.418,100.864 86.932,100.864" id="Fill-381" fill="#262626"></path>
            <path d="M49.932,106.864 C50.446,106.864 50.862,106.448 50.862,105.932 C50.862,105.418 50.446,105 49.932,105 C49.418,105 49,105.418 49,105.932 C49,106.448 49.418,106.864 49.932,106.864" id="Fill-383" fill="#262626"></path>
            <path d="M56.932,106.864 C57.446,106.864 57.862,106.448 57.862,105.932 C57.862,105.418 57.446,105 56.932,105 C56.418,105 56,105.418 56,105.932 C56,106.448 56.418,106.864 56.932,106.864" id="Fill-385" fill="#262626"></path>
            <path d="M62.932,106.864 C63.446,106.864 63.862,106.448 63.862,105.932 C63.862,105.418 63.446,105 62.932,105 C62.418,105 62,105.418 62,105.932 C62,106.448 62.418,106.864 62.932,106.864" id="Fill-387" fill="#262626"></path>
            <path d="M68.932,106.864 C69.446,106.864 69.862,106.448 69.862,105.932 C69.862,105.418 69.446,105 68.932,105 C68.418,105 68,105.418 68,105.932 C68,106.448 68.418,106.864 68.932,106.864" id="Fill-389" fill="#262626"></path>
            <path d="M6.96737652,105.707858 L58.3671626,123.428257 L58.3671626,31.7164144 L6.96737652,105.707858 Z M60.6835813,129 C60.4303195,129 60.1755135,128.958247 59.9284288,128.873194 L2.5615482,109.096059 C1.87588827,108.859457 1.34002342,108.313572 1.11455866,107.622323 C0.889093913,106.932621 1.00028201,106.174876 1.41414881,105.577959 L58.7810295,22.9946191 C59.3601341,22.1641928 60.4102439,21.8038775 61.3754184,22.1054289 C62.3421371,22.4085268 63,23.305449 63,24.319899 L63,126.680374 C63,127.430386 62.6370944,128.13246 62.0286484,128.568549 C61.6302244,128.85309 61.1592193,129 60.6835813,129 Z" id="Fill-391" fill="#29FF9C"></path>
            <g id="Group-395" transform="translate(58.000000, 22.000000)">
                <mask id="mask-6" fill="white">
                    <use xlink:href="#path-5"></use>
                </mask>
                <g id="Clip-394"></g>
                <path d="M4.798,9.86248571 L4.798,101.448029 L56.9651429,83.6650571 L4.798,9.86248571 Z M2.47657143,106.999229 C1.99835714,106.999229 1.52478571,106.852657 1.1255,106.568771 C0.517285714,106.133686 0.155142857,105.433229 0.155142857,104.684943 L0.155142857,2.56014286 C0.155142857,1.55111429 0.809785714,0.659342857 1.7755,0.353857143 C2.73811905,0.0483714286 3.7905,0.401685714 4.37395238,1.22711429 L62.5443095,83.5231143 C62.9652619,84.1186571 63.0797857,84.8777429 62.855381,85.5704857 C62.6294286,86.2632286 62.0908571,86.8109429 61.3975238,87.0454571 L3.22716667,106.8758 C2.98264286,106.959114 2.72883333,106.999229 2.47657143,106.999229 Z" id="Fill-393" fill="#29FF9C" mask="url(#mask-6)"></path>
            </g>
        </g>
    </g>
</svg>