<?xml version="1.0" encoding="UTF-8"?>
<svg width="90px" height="11px" viewBox="0 0 90 11" version="1.1" xmlns="http://www.w3.org/2000/svg" xmlns:xlink="http://www.w3.org/1999/xlink">
    <!-- Generator: Sketch 51.3 (57544) - http://www.bohemiancoding.com/sketch -->
    <title>Fill 7410</title>
    <desc>Created with Sketch.</desc>
    <defs></defs>
    <g id="Page-1" stroke="none" stroke-width="1" fill="none" fill-rule="evenodd">
        <g id="Artboard" transform="translate(-219.000000, -771.000000)" fill="#29FF9C">
            <path d="M267.211,821.138 C266.707,821.138 266.203,820.948 265.814,820.569 L261.469,816.327 C259.926,814.822 259.081,812.814 259.088,810.676 C259.096,808.512 259.973,806.48 261.558,804.955 C262.754,803.803 263.713,802.872 264.414,802.188 C263.697,801.503 262.749,800.577 261.469,799.327 C259.926,797.822 259.081,795.814 259.088,793.676 C259.096,791.512 259.973,789.48 261.558,787.955 C262.754,786.803 263.713,785.872 264.414,785.188 C263.697,784.503 262.749,783.577 261.469,782.327 C259.926,780.822 259.081,778.814 259.088,776.676 C259.096,774.512 259.973,772.48 261.558,770.955 C262.754,769.803 263.713,768.872 264.414,768.188 C263.697,767.503 262.749,766.577 261.469,765.327 C259.926,763.822 259.081,761.814 259.088,759.676 C259.096,757.512 259.973,755.48 261.558,753.955 C262.754,752.803 263.713,751.872 264.414,751.188 C263.697,750.503 262.749,749.577 261.469,748.327 C259.926,746.822 259.081,744.814 259.088,742.676 C259.096,740.512 259.973,738.48 261.558,736.955 L265.981,732.697 C266.777,731.931 268.042,731.954 268.809,732.751 C269.575,733.546 269.551,734.813 268.755,735.578 L264.332,739.837 C263.534,740.605 263.092,741.618 263.088,742.69 C263.085,743.737 263.502,744.723 264.263,745.466 C266.71,747.854 268.198,749.273 268.509,749.553 C268.787,749.766 269.009,750.052 269.145,750.391 C269.671,751.695 269.671,751.695 264.332,756.837 C263.534,757.605 263.092,758.618 263.088,759.69 C263.085,760.737 263.502,761.723 264.263,762.466 C266.71,764.854 268.198,766.273 268.509,766.553 C268.787,766.766 269.009,767.052 269.145,767.391 C269.671,768.695 269.671,768.695 264.332,773.837 C263.534,774.605 263.092,775.618 263.088,776.69 C263.085,777.737 263.502,778.723 264.263,779.466 C266.71,781.854 268.198,783.273 268.509,783.553 C268.787,783.766 269.009,784.052 269.145,784.391 C269.671,785.695 269.671,785.695 264.332,790.837 C263.534,791.605 263.092,792.618 263.088,793.69 C263.085,794.737 263.502,795.723 264.263,796.466 C266.71,798.854 268.198,800.273 268.509,800.553 C268.787,800.766 269.009,801.052 269.145,801.391 C269.671,802.695 269.671,802.695 264.332,807.837 C263.534,808.605 263.092,809.618 263.088,810.69 C263.085,811.737 263.502,812.723 264.263,813.466 L268.608,817.706 C269.398,818.478 269.414,819.744 268.642,820.534 C268.25,820.937 267.731,821.138 267.211,821.138" id="Fill-7410" transform="translate(264.228036, 776.637760) rotate(-90.000000) translate(-264.228036, -776.637760) "></path>
        </g>
    </g>
</svg>