<?xml version="1.0" encoding="UTF-8"?>
<svg width="148px" height="31px" viewBox="0 0 148 31" version="1.1" xmlns="http://www.w3.org/2000/svg" xmlns:xlink="http://www.w3.org/1999/xlink">
    <!-- Generator: Sketch 51.3 (57544) - http://www.bohemiancoding.com/sketch -->
    <title>Fill 6853</title>
    <desc>Created with Sketch.</desc>
    <defs></defs>
    <g id="Page-1" stroke="none" stroke-width="1" fill="none" fill-rule="evenodd">
        <g id="Artboard" transform="translate(-60.000000, -335.000000)" fill="#29FF9C">
            <g id="Group" transform="translate(60.000000, 335.000000)">
                <path d="M38.089,30.995 C28.631,30.995 17.51,28.599 3.62,22.093 C0.619,20.688 -0.674,17.116 0.731,14.115 C2.138,11.114 5.707,9.821 8.71,11.226 C37.248,24.591 50.74,18.074 66.365,10.528 C83.882,2.07 103.736,-7.521 143.858,11.224 C146.861,12.626 148.158,16.197 146.756,19.199 C145.353,22.202 141.782,23.499 138.78,22.096 C103.821,5.766 88.163,13.327 71.583,21.334 C61.682,26.116 51.579,30.995 38.089,30.995" id="Fill-6853"></path>
            </g>
        </g>
    </g>
</svg>