<?xml version="1.0" encoding="utf-8"?>
<!-- Generator: Adobe Illustrator 21.1.0, SVG Export Plug-In . SVG Version: 6.00 Build 0)  -->
<svg version="1.1" id="Layer_1" xmlns="http://www.w3.org/2000/svg" xmlns:xlink="http://www.w3.org/1999/xlink" x="0px" y="0px"
	 viewBox="0 0 450 450" style="enable-background:new 0 0 450 450;" xml:space="preserve">
<g id="XMLID_10_">
	<circle id="XMLID_1_" style="fill:none;stroke:#FFFFFF;stroke-width:5;stroke-miterlimit:10;" cx="224.6" cy="225.7" r="220.6"/>
	<g id="XMLID_2_">
		<defs>
			<circle id="XMLID_3_" cx="224.6" cy="225.7" r="211.9"/>
		</defs>
		<clipPath id="XMLID_9_">
			<use xlink:href="#XMLID_3_"  style="overflow:visible;"/>
		</clipPath>
		<g id="XMLID_4_" style="clip-path:url(#XMLID_9_);">
			<path id="XMLID_13_" style="fill:#FFFFFF;" d="M307,139.5c-3,6.7-7,13.1-12,18.8v46.5c0,1.3-1.2,2.4-2.5,2.4s-2.5-1.1-2.5-2.4
				v-41.3c-2,1.9-3.7,3.8-5.8,5.6c-1.4,1.2-3.2,2.4-4.2,3.5v32.2c0,1.3-1.2,2.4-2.5,2.4s-2.5-1.1-2.5-2.4V176c-3,2.2-7,4.2-10,5.9
				v23c0,1.3-1.2,2.4-2.5,2.4s-2.5-1.1-2.5-2.4V184c-3,1.4-7,2.6-10,3.6v17.3c0,1.3-1.2,2.4-2.5,2.4s-2.5-1.1-2.5-2.4v-16
				c-4,0.8-7,1.3-10,1.7v14.3c0,1.3-1.2,2.4-2.5,2.4s-2.5-1.1-2.5-2.4v-13.9c-2,0.1-3.6,0.1-5.4,0.1c-0.1,0-0.2,0-0.3,0
				c-1.7,0-3.3,0-5.3-0.1v13.9c0,1.3-0.7,2.4-2,2.4s-2-1.1-2-2.4v-14.3c-4-0.4-7-0.9-11-1.7v16.1c0,1.3-0.7,2.4-2,2.4s-2-1.1-2-2.4
				v-17.3c-4-1-7-2.2-11-3.6v20.9c0,1.3-1.2,2.4-2.5,2.4s-2.5-1.1-2.5-2.4v-23c-3-1.7-7-3.7-10-5.9v28.9c0,1.3-1.2,2.4-2.5,2.4
				s-2.5-1.1-2.5-2.4v-32.3c-1-1.2-3-2.5-4.5-3.8c-2-1.7-3.5-3.5-5.5-5.3v41.4c0,1.3-1.2,2.4-2.5,2.4s-2.5-1.1-2.5-2.4v-46.6
				c-5-5.8-9-12.1-12-18.9V209h165V139.5z"/>
			<path id="XMLID_22_" style="fill:#FFFFFF;" d="M436.4,220H340v9h96.4c0-1,0-2.4,0-3.4C436.5,223.8,436.4,222,436.4,220z"/>
			<path id="XMLID_23_" style="fill:#FFFFFF;" d="M431,190.7v14.2c0,1.3-0.7,2.4-2,2.4s-2-1.1-2-2.4V191c-2,0-2.8,0-4,0
				c-0.1,0-0.2,0-0.3,0c-2.2,0-4.8,0-6.8-0.2v14c0,1.3-0.7,2.4-2,2.4s-2-1.1-2-2.4v-14.5c-4-0.4-7-1.1-11-1.9v16.4
				c0,1.3-1.2,2.4-2.5,2.4s-2.5-1.1-2.5-2.4v-17.7c-3-1.1-7-2.3-10-3.8v21.6c0,1.3-1.2,2.4-2.5,2.4s-2.5-1.1-2.5-2.4V181
				c-3-1.8-7-3.9-10-6.2v30c0,1.3-1.2,2.4-2.5,2.4s-2.5-1.1-2.5-2.4v-33.5c-1-0.9-2-1.7-3-2.6c-2.5-2.2-5-4.5-7-6.9v43
				c0,1.3-1.2,2.4-2.5,2.4s-2.5-1.1-2.5-2.4v-48.5c-4-5.3-8-11-11-17V209h95.8c-0.5-7-1.4-12.4-2.4-18.3
				C432.6,190.7,432,190.6,431,190.7z"/>
			<path id="XMLID_24_" style="fill:#FFFFFF;" d="M82.9,165.5C94.9,155.3,104,142,109,127.1V97.7c0-0.2,0-0.3,0-0.5
				c0-0.2,0-0.3,0-0.5c0-4.4,1.7-8.7,4.8-11.8c3.1-3.1,7.2-5,11.6-5c0,0,0,0,0,0c4.4,0,8.5,1.9,11.6,5s4.9,7.3,4.9,11.7
				c0,0,0.1,0.1,0.1,0.2v30c5,14.8,13.8,27.9,25.7,38.1c15.8,13.6,35.8,21,56.7,21c0.1,0,0.2,0,0.3,0c2.5,0,4.9,0.1,7.4-0.1
				c0.1,0,0.1,0.1,0.2,0.1c0,0,0,0,0,0c18-1.6,35-8.7,48.9-20.5c12.1-10.3,20.9-23.6,25.9-38.4V96.7c0-4.4,1.9-8.7,5-11.8
				c3.1-3.1,7.4-5,11.8-5c0,0,0,0,0,0c4.4,0,8.5,1.9,11.6,5c3.1,3.1,4.7,7.3,4.7,11.7c0,0-0.1,0.1-0.1,0.1v30
				c5,14.8,14,28,25.9,38.3c15.8,13.6,36,21.1,56.8,21.2c3.3,0,6.7-0.2,10-0.5c-18.7-97.9-104.7-172-208.1-172
				c-103.4,0-189.4,74-208.1,172c3.1,0.4,6.3,0.6,9.5,0.6C46.8,186.4,67,179,82.9,165.5z"/>
			<path id="XMLID_25_" style="fill:#FFFFFF;" d="M109,220H12.8c0,2-0.1,3.8-0.1,5.6c0,1,0,2.4,0,3.4H109V220z"/>
			<rect id="XMLID_26_" x="142" y="220" style="fill:#FFFFFF;" width="165" height="9"/>
			<path id="XMLID_28_" style="fill:#FFFFFF;" d="M323.7,92C323.7,92,323.7,92,323.7,92C323.7,92,323.7,92,323.7,92
				C323.7,92,323.7,92,323.7,92z"/>
			<path id="XMLID_29_" style="fill:#FFFFFF;" d="M109,139.5c-3,6-7,11.7-11,17v48.4c0,1.3-1.2,2.4-2.5,2.4s-2.5-1.1-2.5-2.4v-42.9
				c-2,2.5-4.7,5-7.3,7.2c-0.9,0.8-1.7,1.6-2.7,2.3v33.4c0,1.3-1.2,2.4-2.5,2.4s-2.5-1.1-2.5-2.4v-29.9c-3,2.3-6,4.3-10,6.2v23.8
				c0,1.3-1.2,2.4-2.5,2.4s-2.5-1.1-2.5-2.4v-21.5c-3,1.5-7,2.8-10,3.8v17.7c0,1.3-1.2,2.4-2.5,2.4s-2.5-1.1-2.5-2.4v-16.4
				c-3,0.8-7,1.5-10,1.9v14.5c0,1.3-1.2,2.4-2.5,2.4s-2.5-1.1-2.5-2.4v-14c-2,0.2-4.5,0.2-6.8,0.2c-0.1,0-0.2,0-0.3,0
				c-1.1,0-1.9,0-2.9,0v13.9c0,1.3-1.2,2.4-2.5,2.4s-2.5-1.1-2.5-2.4v-14.2c-1-0.1-1.5,0-2.2,0c-1,6-1.9,11.4-2.4,18.4H109V139.5z"
				/>
		</g>
	</g>
	<g id="XMLID_5_">
		<path id="XMLID_7_" style="fill:#FFFFFF;" d="M185.9,326.6c-5.3,0-8.9,4.4-8.9,9.2v0.1c0,4.9,3.7,9.3,9.1,9.3
			c5.3,0,8.9-4.4,8.9-9.2v-0.1C195,331,191.3,326.6,185.9,326.6z"/>
		<path id="XMLID_11_" style="fill:#FFFFFF;" d="M236.7,327H231v8h5.6c3.3,0,5.4-1.6,5.4-4.1v-0.1C242,328.1,239.9,327,236.7,327z"
			/>
		<polygon id="XMLID_41_" style="fill:#FFFFFF;" points="344.3,341 351.8,341 348.1,331 		"/>
		<path id="XMLID_42_" style="fill:#FFFFFF;" d="M304.2,326H300v10h4.2c3.5,0,5.8-2.1,5.8-5v-0.1C310,327.8,307.9,326,304.2,326z"/>
	</g>
	<g id="XMLID_6_">
		<path id="XMLID_12_" style="fill:#FFFFFF;" d="M185,282.2L185,282.2c0-1.7-1.4-2.2-3.3-2.2H178v5h3.8
			C183.7,285,185,283.7,185,282.2z"/>
		<path id="XMLID_38_" style="fill:#FFFFFF;" d="M334.3,241c-3.3,0-5.9-2.8-5.9-6.1c0-0.2-0.2-0.6-0.1-0.8c0-0.2-0.2-0.5-0.2-0.8
			v-18.6c0-0.1,0-0.1,0-0.2s0-0.1,0-0.2V96.7c0,0,0,0,0,0c0-1.2-0.3-2.4-1.2-3.3c-0.9-0.9-1.9-1.4-3.1-1.4c-1.2,0-2.4,0.6-3.3,1.4
			c-0.9,0.9-1.4,2.1-1.4,3.3v136.6c0,0.2,0.1,0.5,0.1,0.7c0,0.2,0.1,0.6,0.1,0.9c0,3.3-2.6,6.1-5.9,6.1H135.9
			c-3.3,0-5.9-2.8-5.9-6.1c0-0.1,0-0.3,0-0.4c0-0.1,0-0.2,0-0.3v-19.6c0,0,0,0,0,0s0,0,0,0V96.7c0,0,0,0,0,0c0-1.2-0.5-2.4-1.3-3.3
			c-0.9-0.9-2-1.4-3.3-1.4c0,0,0,0,0,0c-1.2,0-2.4,0.6-3.2,1.4c-0.9,0.9-1.3,2.1-1.3,3.3c0,0.2,0.1,0.4,0.1,0.5
			c0,0.2,0.1,0.4,0.1,0.5v136.6c0,0.1-0.1,0.1-0.1,0.2c0,0,0,0.3,0,0.3c0,3.3-2.7,6.1-6,6.1H13.2c7.7,110,99.4,196.9,211.4,196.9
			S428.3,351,435.9,241H334.3z M324.6,277.8c1.2-0.4,2.6,0.5,3,1.7c1.3,3.8,4.7,6.5,8.7,6.5c0,0,0.1,0,0.1,0c4,0,7.5-2.8,8.6-6.7
			c0.4-1.3,1.7-2,3-1.7c1,0.3,1.6,1.3,1.7,2.2c1.3,3.6,4.7,6.1,8.6,6.1c0,0,0.1,0,0.1,0c4,0,7.5-2.8,8.6-6.7c0.4-1.3,1.7-2.1,3-1.8
			c1.3,0.4,2,1.5,1.6,2.8c-1.8,5.8-7,9.7-13.1,9.7c-0.1,0-0.1,0-0.2,0c-4.4,0-8.4-2-11-5.4c-2.5,3.3-6.5,5.4-10.8,5.4
			c-0.1,0-0.1,0-0.2,0c-6,0-11.3-3.6-13.2-9.3C322.7,279.5,323.4,278.2,324.6,277.8z M270.8,275h5.6l-5.5,20h-5.6L270.8,275z
			 M239,275h18v5h-6v15h-6v-15h-6V275z M217,275h5.6l8.4,10.6V275h6v20h-5.4l-8.6-11v11h-6V275z M172,275h10c3.1,0,5,0.7,6.4,2.1
			c1.2,1.2,1.6,2.7,1.6,4.7v0.1c0,3.1-1.4,5.1-4,6.2l5.1,7h-6.5l-4.1-6H178v6h-6V275z M119,327H98v5h19v11H98v14H84v-42h35V327z
			 M120,290c-4.4,0-8.4-2-11-5.4c-2.5,3.3-6.5,5.4-10.8,5.4c-0.1,0-0.1,0-0.2,0c-6,0-11.3-3.6-13.2-9.3c-0.4-1.2,0.3-2.5,1.5-2.9
			c1.2-0.4,2.6,0.5,3,1.7c1.3,3.8,4.7,6.5,8.7,6.5c0,0,0.1,0,0.1,0c4,0,7.5-2.8,8.6-6.7c0.4-1.3,1.7-2,3-1.7c1,0.3,1.6,1.1,1.7,2.1
			c1.3,3.6,4.8,6,8.7,6c4-0.1,7.5-2.7,8.6-6.5c0.4-1.3,1.7-2.1,3-1.7c1.3,0.4,2,1.6,1.6,2.8c-1.8,5.8-7,9.7-13.1,9.7
			C120.1,290,120.1,290,120,290z M159,357h-33v-42h14v30h19V357z M159,295h-5v-20h16v5h-11v3h10v5h-10V295z M209,335.9
			c0,12-9.8,21.5-22.6,21.5c-12.7,0-22.4-9.4-22.4-21.4v-0.1c0-12,9.8-21.5,22.6-21.5c12.7,0,22.4,9.4,22.4,21.4V335.9z M214,285
			c0,5.8-4.3,10.6-10.5,10.6s-10.5-4.7-10.5-10.5V285c0-5.8,4.3-10.6,10.5-10.6S214,279.1,214,285L214,285z M241.4,357l-7.8-12H231
			v12h-14v-42h20c7.3,0,12.1,2,15,4.9c2.5,2.5,3.9,5.7,3.9,9.9v0.1c0,6-3.3,10.4-8.3,12.8l9.5,14.3H241.4z M277,357h-13v-42h13V357z
			 M280.2,295h-5.6l5.5-20h5.2l5.2,11.3l3-11.3h5.6l-5.5,20h-4.9l-5.5-11.7L280.2,295z M304.9,345H300v12h-13v-42h18.2
			c11,0,18.8,5.2,18.8,15v0.1C324,340,316.1,345,304.9,345z M357.4,357l-2.2-6h-14.5l-2.1,6h-14.8l17.4-42H355l17.4,42H357.4z"/>
		<path id="XMLID_67_" style="fill:#FFFFFF;" d="M203.5,279.5c-3.1,0-5.5,2.5-5.5,5.4v0.1c0,2.9,2.4,5.5,5.5,5.5
			c3.1,0,5.5-2.5,5.5-5.4V285C209,282.1,206.6,279.5,203.5,279.5z"/>
	</g>
</g>
</svg>
