<?xml version="1.0" encoding="UTF-8"?>
<svg width="447px" height="447px" viewBox="0 0 447 447" version="1.1" xmlns="http://www.w3.org/2000/svg" xmlns:xlink="http://www.w3.org/1999/xlink">
    <!-- Generator: Sketch 51.3 (57544) - http://www.bohemiancoding.com/sketch -->
    <title>Group 42</title>
    <desc>Created with Sketch.</desc>
    <defs>
        <path d="M0.206,211.912 C0.206,328.931 95.069,423.794 212.088,423.794 C329.107,423.794 423.971,328.931 423.971,211.912 C423.971,94.893 329.107,0.03 212.088,0.03 C95.069,0.03 0.206,94.893 0.206,211.912 Z" id="path-1"></path>
        <polygon id="path-3" points="0 447 446.176 447 446.176 0.824 0 0.824"></polygon>
    </defs>
    <g id="Page-1" stroke="none" stroke-width="1" fill="none" fill-rule="evenodd">
        <g id="Group-42" transform="translate(0.000000, -1.000000)">
            <g id="Group-7" transform="translate(2.000000, 3.176000)">
                <path d="M441.6768,220.9119 C441.6768,342.7389 342.9158,441.4999 221.0888,441.4999 C99.2608,441.4999 0.4998,342.7389 0.4998,220.9119 C0.4998,99.0839 99.2608,0.3239 221.0888,0.3239 C342.9158,0.3239 441.6768,99.0839 441.6768,220.9119" id="Fill-1" fill="#FFFFFF"></path>
                <path d="M441.6768,220.9119 C441.6768,342.7389 342.9158,441.4999 221.0888,441.4999 C99.2608,441.4999 0.4998,342.7389 0.4998,220.9119 C0.4998,99.0839 99.2608,0.3239 221.0888,0.3239 C342.9158,0.3239 441.6768,99.0839 441.6768,220.9119 Z" id="Stroke-3" stroke="#212121" stroke-width="5"></path>
                <path d="M432.9707,220.9119 C432.9707,337.9319 338.1077,432.7939 221.0887,432.7939 C104.0687,432.7939 9.2057,337.9319 9.2057,220.9119 C9.2057,103.8919 104.0687,9.0299 221.0887,9.0299 C338.1077,9.0299 432.9707,103.8919 432.9707,220.9119" id="Fill-5" fill="#29FF9C"></path>
            </g>
            <g id="Group-10" transform="translate(11.000000, 12.176000)">
                <mask id="mask-2" fill="white">
                    <use xlink:href="#path-1"></use>
                </mask>
                <g id="Clip-9"></g>
                <path d="M141.5,144.4305 L141.5,191.0665 C141.5,192.3755 142.691,193.4375 144,193.4375 C145.309,193.4375 146.5,192.3755 146.5,191.0665 L146.5,149.6705 C148.5,151.5115 149.99,153.2875 151.956,154.9805 C153.494,156.3045 155.5,157.5545 156.5,158.7675 L156.5,191.0665 C156.5,192.3755 157.691,193.4375 159,193.4375 C160.309,193.4375 161.5,192.3755 161.5,191.0665 L161.5,162.1215 C164.5,164.3185 168.5,166.2865 171.5,168.0245 L171.5,191.0665 C171.5,192.3755 172.691,193.4375 174,193.4375 C175.309,193.4375 176.5,192.3755 176.5,191.0665 L176.5,170.1655 C180.5,171.5805 183.5,172.7895 187.5,173.7915 L187.5,191.0665 C187.5,192.3755 188.191,193.4375 189.5,193.4375 C190.809,193.4375 191.5,192.3755 191.5,191.0665 L191.5,175.0095 C195.5,175.7855 198.5,176.3495 202.5,176.7325 L202.5,191.0665 C202.5,192.3755 203.191,193.4375 204.5,193.4375 C205.809,193.4375 206.5,192.3755 206.5,191.0665 L206.5,177.1325 C208.5,177.2265 210.189,177.2055 211.846,177.2055 L212.128,177.2055 C213.853,177.2055 215.5,177.2305 217.5,177.1345 L217.5,191.0665 C217.5,192.3755 218.69,193.4375 220,193.4375 C221.31,193.4375 222.5,192.3755 222.5,191.0665 L222.5,176.7405 C225.5,176.3615 228.5,175.8015 232.5,175.0285 L232.5,191.0665 C232.5,192.3755 233.69,193.4375 235,193.4375 C236.31,193.4375 237.5,192.3755 237.5,191.0665 L237.5,173.8105 C240.5,172.8125 244.5,171.6175 247.5,170.2065 L247.5,191.0665 C247.5,192.3755 248.69,193.4375 250,193.4375 C251.31,193.4375 252.5,192.3755 252.5,191.0665 L252.5,168.0595 C255.5,166.3265 259.5,164.3615 262.5,162.1685 L262.5,191.0665 C262.5,192.3755 263.69,193.4375 265,193.4375 C266.31,193.4375 267.5,192.3755 267.5,191.0665 L267.5,158.8325 C268.5,157.7125 270.268,156.5635 271.695,155.3485 C273.785,153.5725 275.5,151.7095 277.5,149.7665 L277.5,191.0665 C277.5,192.3755 278.69,193.4375 280,193.4375 C281.31,193.4375 282.5,192.3755 282.5,191.0665 L282.5,144.5345 C287.5,138.7665 291.5,132.4345 294.5,125.6855 L294.5,195.2055 L129.5,195.2055 L129.5,125.5135 C132.5,132.2865 136.5,138.6395 141.5,144.4305 Z M129.5,215.2055 L294.5,215.2055 L294.5,206.2055 L129.5,206.2055 L129.5,215.2055 Z M427.246,215.2055 L327.5,215.2055 L327.5,206.2055 L427.246,206.2055 C430.519,206.2055 433.172,203.9785 433.172,200.7055 C433.172,197.4325 430.519,195.2055 427.246,195.2055 L327.5,195.2055 L327.5,125.5105 C330.5,131.5595 334.5,137.2755 338.5,142.5545 L338.5,191.0665 C338.5,192.3755 339.69,193.4375 341,193.4375 C342.31,193.4375 343.5,192.3755 343.5,191.0665 L343.5,148.0385 C345.5,150.4665 347.96,152.7945 350.498,154.9785 C351.546,155.8815 352.5,156.7575 353.5,157.6095 L353.5,191.0665 C353.5,192.3755 354.69,193.4375 356,193.4375 C357.31,193.4375 358.5,192.3755 358.5,191.0665 L358.5,161.0665 C361.5,163.3575 365.5,165.4205 368.5,167.2445 L368.5,191.0665 C368.5,192.3755 369.69,193.4375 371,193.4375 C372.31,193.4375 373.5,192.3755 373.5,191.0665 L373.5,169.4925 C376.5,170.9785 380.5,172.2565 383.5,173.3265 L383.5,191.0665 C383.5,192.3755 384.69,193.4375 386,193.4375 C387.31,193.4375 388.5,192.3755 388.5,191.0665 L388.5,174.6245 C392.5,175.4615 395.5,176.1075 399.5,176.5495 L399.5,191.0665 C399.5,192.3755 400.19,193.4375 401.5,193.4375 C402.81,193.4375 403.5,192.3755 403.5,191.0665 L403.5,177.0175 C405.5,177.1775 408.084,177.2055 410.257,177.2055 L410.52,177.2055 C411.735,177.2055 412.5,177.2515 414.5,177.2045 L414.5,191.0665 C414.5,192.3755 415.19,193.4375 416.5,193.4375 C417.81,193.4375 418.5,192.3755 418.5,191.0665 L418.5,176.9085 C421.5,176.6425 424.604,176.2405 427.488,175.6925 C428.775,175.4485 429.72,174.2085 429.476,172.9215 C429.231,171.6355 428.042,170.7925 426.754,171.0355 C421.387,172.0545 415.83,172.5955 410.245,172.5475 C389.427,172.4865 369.169,164.9715 353.39,151.3865 C341.448,141.1055 332.5,127.8285 327.5,113.0615 L327.5,83.0135 C327.5,82.9935 327.619,82.9755 327.619,82.9555 C327.621,78.5635 325.972,74.2835 322.867,71.1755 C319.763,68.0695 315.691,66.2055 311.3,66.2055 L311.295,66.2055 C306.905,66.2055 302.599,68.0665 299.494,71.1695 C296.388,74.2755 294.5,78.5545 294.5,82.9465 L294.5,113.3195 C289.5,128.1575 280.642,141.4735 268.571,151.7375 C254.705,163.5285 237.611,170.6575 219.599,172.2235 C219.587,172.2235 219.622,172.2205 219.611,172.2205 C219.558,172.2205 219.529,172.0575 219.477,172.0615 C217.033,172.2685 214.597,172.2055 212.129,172.2055 L211.861,172.2055 C191.039,172.2055 170.974,164.7985 155.193,151.2125 C143.256,140.9355 134.5,127.8355 129.5,113.0715 L129.5,83.0315 C129.5,83.0055 129.411,82.9805 129.411,82.9545 C129.413,78.5625 127.659,74.2835 124.554,71.1755 C121.45,68.0695 117.275,66.2055 112.883,66.2055 L112.878,66.2055 C108.488,66.2055 104.36,68.0665 101.255,71.1695 C98.149,74.2755 96.438,78.4795 96.438,82.8715 C96.438,83.0405 96.48,83.2435 96.495,83.4095 C96.48,83.5745 96.5,83.7775 96.5,83.9465 L96.5,113.3225 C91.5,128.1605 82.436,141.4775 70.366,151.7405 C54.504,165.2285 34.271,172.6455 13.461,172.5475 C8.035,172.5325 2.622,172.0125 -2.614,171.0035 C-3.901,170.7535 -5.146,171.5975 -5.394,172.8835 C-5.641,174.1685 -4.69,175.4115 -3.404,175.6595 C-0.515,176.2155 2.5,176.6225 5.5,176.8955 L5.5,191.0665 C5.5,192.3755 6.691,193.4375 8,193.4375 C9.309,193.4375 10.5,192.3755 10.5,191.0665 L10.5,177.1995 C11.5,177.2445 12.292,177.2055 13.431,177.2055 L13.738,177.2055 C15.971,177.2055 18.5,177.1875 20.5,177.0265 L20.5,191.0665 C20.5,192.3755 21.691,193.4375 23,193.4375 C24.309,193.4375 25.5,192.3755 25.5,191.0665 L25.5,176.5645 C28.5,176.1255 32.5,175.4795 35.5,174.6455 L35.5,191.0665 C35.5,192.3755 36.691,193.4375 38,193.4375 C39.309,193.4375 40.5,192.3755 40.5,191.0665 L40.5,173.3555 C43.5,172.2895 47.5,171.0135 50.5,169.5315 L50.5,191.0665 C50.5,192.3755 51.691,193.4375 53,193.4375 C54.309,193.4375 55.5,192.3755 55.5,191.0665 L55.5,167.2945 C59.5,165.4745 62.5,163.4175 65.5,161.1325 L65.5,191.0665 C65.5,192.3755 66.691,193.4375 68,193.4375 C69.309,193.4375 70.5,192.3755 70.5,191.0665 L70.5,157.6705 C71.5,156.9155 72.221,156.1475 73.156,155.3525 C75.82,153.0865 78.5,150.6655 80.5,148.1335 L80.5,191.0665 C80.5,192.3755 81.691,193.4375 83,193.4375 C84.309,193.4375 85.5,192.3755 85.5,191.0665 L85.5,142.6575 C89.5,137.4025 93.5,131.7135 96.5,125.6905 L96.5,195.2055 L-3.07,195.2055 C-6.343,195.2055 -8.996,197.4325 -8.996,200.7055 C-8.996,203.9785 -6.343,206.2055 -3.07,206.2055 L96.5,206.2055 L96.5,215.2055 L-3.07,215.2055 C-6.343,215.2055 -8.996,217.9335 -8.996,221.2055 C-8.996,224.4785 -6.343,227.2055 -3.07,227.2055 L102.362,227.2055 C105.635,227.2055 108.288,224.3755 108.288,221.1025 C108.288,221.0545 108.387,220.9185 108.385,220.8695 C108.388,220.8025 108.5,220.6485 108.5,220.5795 L108.5,83.9465 C108.5,83.7775 108.384,83.6115 108.37,83.4465 C108.384,83.2815 108.343,83.1155 108.343,82.9465 C108.343,81.7215 108.794,80.4925 109.661,79.6255 C110.527,78.7595 111.653,78.2055 112.878,78.2055 L112.88,78.2055 C114.105,78.2055 115.257,78.7595 116.124,79.6265 C116.984,80.4875 117.476,81.6685 117.482,82.8835 C117.482,82.8915 117.5,82.9385 117.5,82.9465 L117.5,200.6985 C117.5,200.7145 117.498,200.7305 117.498,200.7465 C117.498,200.7635 117.5,200.7795 117.5,200.7955 L117.5,220.4385 C117.5,220.5125 117.49,220.5845 117.492,220.6585 C117.488,220.7465 117.469,221.0125 117.469,221.1025 C117.469,224.3755 120.113,227.2055 123.386,227.2055 L300.774,227.2055 C304.047,227.2055 306.7,224.3755 306.7,221.1025 C306.7,220.8695 306.58,220.5535 306.554,220.3275 C306.583,220.0875 306.5,219.7565 306.5,219.5085 L306.5,82.9465 C306.5,81.7215 307.081,80.5685 307.948,79.7015 C308.814,78.8355 310.019,78.3585 311.243,78.3585 L311.27,78.3585 C312.496,78.3585 313.471,78.8365 314.337,79.7035 C315.199,80.5655 315.5,81.7105 315.5,82.9275 L315.5,82.9465 L315.5,200.5925 C315.5,200.6435 315.492,200.6945 315.492,200.7465 C315.492,200.7995 315.5,200.8495 315.5,200.9015 L315.5,219.5085 C315.5,219.7405 315.706,219.9675 315.732,220.1915 C315.702,220.4325 315.777,220.8535 315.777,221.1025 C315.777,224.3755 318.525,227.2055 321.798,227.2055 L427.246,227.2055 C430.519,227.2055 433.172,224.4785 433.172,221.2055 C433.172,217.9335 430.519,215.2055 427.246,215.2055 Z" id="Fill-8" fill="#212121" mask="url(#mask-2)"></path>
            </g>
            <g id="Group-41" transform="translate(0.000000, 0.176000)">
                <polygon id="Fill-11" fill="#212121" points="152.1216 273.0711 168.3656 273.0711 168.3656 278.0031 157.7486 278.0031 157.7486 281.4541 167.3506 281.4541 167.3506 286.1241 157.7486 286.1241 157.7486 293.3761 152.1216 293.3761"></polygon>
                <path d="M180.2539,282.8172 C182.1689,282.8172 183.2709,281.8892 183.2709,280.4092 L183.2709,280.3522 C183.2709,278.7562 182.1099,277.9442 180.2249,277.9442 L176.5409,277.9442 L176.5409,282.8172 L180.2539,282.8172 Z M170.9139,273.0712 L180.5149,273.0712 C183.6189,273.0712 185.7649,273.8832 187.1289,275.2752 C188.3179,276.4362 188.9269,278.0032 188.9269,280.0042 L188.9269,280.0612 C188.9269,283.1652 187.2739,285.2252 184.7499,286.2972 L189.5939,293.3762 L183.0969,293.3762 L179.0069,287.2262 L176.5409,287.2262 L176.5409,293.3762 L170.9139,293.3762 L170.9139,273.0712 Z" id="Fill-13" fill="#212121"></path>
                <path d="M207.1958,283.2821 L207.1958,283.2231 C207.1958,280.2941 205.0788,277.7411 201.9748,277.7411 C198.8998,277.7411 196.8408,280.2351 196.8408,283.1651 L196.8408,283.2231 C196.8408,286.1531 198.9578,288.7061 202.0328,288.7061 C205.1358,288.7061 207.1958,286.2111 207.1958,283.2821 M191.0678,283.2821 L191.0678,283.2231 C191.0678,277.3931 195.7668,272.6651 202.0328,272.6651 C208.2988,272.6651 212.9398,277.3351 212.9398,283.1651 L212.9398,283.2231 C212.9398,289.0531 208.2398,293.7821 201.9748,293.7821 C195.7088,293.7821 191.0678,289.1121 191.0678,283.2821" id="Fill-15" fill="#212121"></path>
                <polygon id="Fill-17" fill="#212121" points="215.8628 273.0711 221.1128 273.0711 229.4678 283.8031 229.4678 273.0711 235.0368 273.0711 235.0368 293.3761 230.1058 293.3761 221.4318 282.2371 221.4318 293.3761 215.8628 293.3761"></polygon>
                <polygon id="Fill-19" fill="#212121" points="243.5879 278.0028 237.4959 278.0028 237.4959 273.0708 255.3069 273.0708 255.3069 278.0028 249.2149 278.0028 249.2149 293.3758 243.5879 293.3758"></polygon>
                <polygon id="Fill-21" fill="#212121" points="269.252 273.0711 274.879 273.0711 269.426 293.3761 263.799 293.3761"></polygon>
                <polygon id="Fill-23" fill="#212121" points="278.5322 273.0711 283.7822 273.0711 289.0322 284.3541 292.0782 273.0711 297.6772 273.0711 292.2232 293.3761 287.2922 293.3761 281.8092 281.6861 278.6772 293.3761 273.0792 293.3761"></polygon>
                <polygon id="Fill-25" fill="#212121" points="82.48 313.4715 117.057 313.4715 117.057 325.2725 96.287 325.2725 96.287 330.5245 115.582 330.5245 115.582 341.2625 96.287 341.2625 96.287 354.7755 82.48 354.7755"></polygon>
                <polygon id="Fill-27" fill="#212121" points="124.7231 313.4715 138.5301 313.4715 138.5301 342.9745 157.9431 342.9745 157.9431 354.7755 124.7231 354.7755"></polygon>
                <path d="M193.2261,334.241 L193.2261,334.123 C193.2261,329.225 189.8631,324.8 184.5521,324.8 C179.3011,324.8 175.9961,329.167 175.9961,334.005 L175.9961,334.123 C175.9961,339.02 179.3591,343.446 184.6701,343.446 C189.9211,343.446 193.2261,339.08 193.2261,334.241 M162.0711,334.241 L162.0711,334.123 C162.0711,322.145 171.9251,312.587 184.6701,312.587 C197.4151,312.587 207.1511,322.027 207.1511,334.005 L207.1511,334.123 C207.1511,346.101 197.2971,355.66 184.5521,355.66 C171.8071,355.66 162.0711,346.22 162.0711,334.241" id="Fill-29" fill="#212121"></path>
                <path d="M235.1143,333.1199 C238.4193,333.1199 240.4253,331.6449 240.4253,329.1069 L240.4253,328.9899 C240.4253,326.3349 238.3593,325.0359 235.1733,325.0359 L229.1543,325.0359 L229.1543,333.1199 L235.1143,333.1199 Z M215.3473,313.4719 L235.5273,313.4719 C242.8433,313.4719 247.5063,315.3009 250.3963,318.1919 C252.8753,320.6699 254.1733,323.7379 254.1733,327.9859 L254.1733,328.1039 C254.1733,334.1229 251.0463,338.3119 246.0303,340.7319 L255.6483,354.7749 L239.8933,354.7749 L232.1043,342.9739 L229.1543,342.9739 L229.1543,354.7749 L215.3473,354.7749 L215.3473,313.4719 Z" id="Fill-31" fill="#212121"></path>
                <mask id="mask-4" fill="white">
                    <use xlink:href="#path-3"></use>
                </mask>
                <g id="Clip-34"></g>
                <polygon id="Fill-33" fill="#212121" mask="url(#mask-4)" points="262.075 354.776 275.882 354.776 275.882 313.472 262.075 313.472"></polygon>
                <path d="M302.668,333.7098 C306.208,333.7098 308.568,332.1168 308.568,329.1668 L308.568,329.0488 C308.568,326.0398 306.386,324.5048 302.728,324.5048 L298.951,324.5048 L298.951,333.7098 L302.668,333.7098 Z M285.144,313.4718 L303.73,313.4718 C314.705,313.4718 322.199,318.3678 322.199,328.1638 L322.199,328.2818 C322.199,338.2538 314.587,343.5638 303.436,343.5638 L298.951,343.5638 L298.951,354.7748 L285.144,354.7748 L285.144,313.4718 Z" id="Fill-35" fill="#212121" mask="url(#mask-4)"></path>
                <path d="M350.3408,339.4334 L346.5648,329.4034 L342.7878,339.4334 L350.3408,339.4334 Z M339.8378,313.1764 L353.5278,313.1764 L370.9338,354.7754 L355.9458,354.7754 L353.7628,349.2284 L339.3068,349.2284 L337.1828,354.7754 L322.4308,354.7754 L339.8378,313.1764 Z" id="Fill-36" fill="#212121" mask="url(#mask-4)"></path>
                <path d="M330.8047,288.6268 C324.8037,288.6268 319.5207,284.8268 317.6167,279.1188 C317.2027,277.8768 317.8747,276.5338 319.1167,276.1198 C320.3607,275.7038 321.7007,276.3778 322.1157,277.6188 C323.3687,281.3818 324.1847,283.8868 330.8067,283.8868 C330.8497,283.8868 330.8927,283.8868 330.9357,283.8858 C334.9447,283.8308 338.4177,281.2168 339.5807,277.3798 C339.9607,276.1268 341.2827,275.4188 342.5367,275.7988 C343.7897,276.1788 344.4977,277.5018 344.1177,278.7548 C342.3537,284.5758 337.0817,288.5428 331.0007,288.6258 C330.9357,288.6268 330.8697,288.6268 330.8047,288.6268" id="Fill-37" fill="#FFFFFF" mask="url(#mask-4)"></path>
                <path d="M352.7881,288.6268 C346.7871,288.6268 341.5041,284.8268 339.6001,279.1188 C339.1861,277.8768 339.8581,276.5338 341.1001,276.1198 C342.3461,275.7038 343.6841,276.3778 344.0991,277.6188 C345.3521,281.3818 348.8351,283.8868 352.7901,283.8868 C352.8331,283.8868 352.8761,283.8868 352.9201,283.8858 C356.9281,283.8308 360.4011,281.2168 361.5641,277.3798 C361.9441,276.1268 363.2661,275.4188 364.5201,275.7988 C365.7731,276.1788 366.4811,277.5018 366.1011,278.7548 C364.3481,284.5398 356.3881,288.5788 352.9841,288.6258 C352.9191,288.6268 352.8531,288.6268 352.7881,288.6268" id="Fill-38" fill="#FFFFFF" mask="url(#mask-4)"></path>
                <path d="M96.5039,288.6268 C90.5029,288.6268 85.2199,284.8268 83.3159,279.1188 C82.9029,277.8768 83.5739,276.5338 84.8159,276.1198 C86.0549,275.7038 87.3999,276.3768 87.8139,277.6188 C89.0679,281.3818 92.5509,283.8868 96.5059,283.8868 C96.5489,283.8868 96.5919,283.8868 96.6349,283.8858 C100.6439,283.8308 104.1179,281.2168 105.2809,277.3798 C105.6599,276.1268 106.9859,275.4208 108.2369,275.7988 C109.4899,276.1788 110.1979,277.5018 109.8179,278.7548 C108.0539,284.5758 102.7819,288.5428 96.6999,288.6258 C96.6349,288.6268 96.5689,288.6268 96.5039,288.6268" id="Fill-39" fill="#FFFFFF" mask="url(#mask-4)"></path>
                <path d="M118.4878,288.6268 C112.4868,288.6268 107.2028,284.8268 105.2998,279.1178 C104.8868,277.8768 105.5578,276.5338 106.7998,276.1198 C108.0398,275.7048 109.3838,276.3768 109.7988,277.6198 C111.0658,281.4228 114.5758,283.9468 118.6188,283.8858 C122.6278,283.8308 126.1018,281.2168 127.2638,277.3798 C127.6428,276.1268 128.9688,275.4208 130.2198,275.7988 C131.4728,276.1788 132.1808,277.5018 131.8008,278.7548 C130.0368,284.5758 124.7658,288.5428 118.6838,288.6258 C118.6188,288.6268 118.5528,288.6268 118.4878,288.6268" id="Fill-40" fill="#FFFFFF" mask="url(#mask-4)"></path>
            </g>
        </g>
    </g>
</svg>